<?xml version="1.0" encoding="UTF-8" standalone="no"?>
<!DOCTYPE svg PUBLIC "-//W3C//DTD SVG 1.1//EN" "http://www.w3.org/Graphics/SVG/1.1/DTD/svg11.dtd">
<svg width="100%" height="100%" viewBox="0 0 1024 256" version="1.1" xmlns="http://www.w3.org/2000/svg" xmlns:xlink="http://www.w3.org/1999/xlink" xml:space="preserve" xmlns:serif="http://www.serif.com/" style="fill-rule:evenodd;clip-rule:evenodd;stroke-linejoin:round;stroke-miterlimit:2;">
    <g transform="matrix(0.966523,0,0,0.794355,187.383,39.0914)">
        <g>
            <g>
                <path d="M136.769,60.339C135.665,59.146 134.439,57.989 133.09,56.87C129.105,53.737 124.506,52.171 119.295,52.171C114.328,52.171 109.837,53.644 105.821,56.591C101.806,59.537 98.633,63.491 96.303,68.452C93.973,73.413 92.808,78.952 92.808,85.069C92.808,91.112 93.973,96.632 96.303,101.631C98.633,106.629 101.806,110.601 105.821,113.548C109.837,116.495 114.328,117.968 119.295,117.968C124.445,117.968 129.043,116.402 133.09,113.268C134.5,112.075 135.788,110.844 136.953,109.576C136.953,109.576 140.355,114.723 147.161,125.018C143.298,128.897 138.96,131.937 134.147,134.138C129.335,136.339 124.2,137.439 118.743,137.439C112.673,137.439 107.002,136.077 101.729,133.355C96.456,130.632 91.812,126.883 87.796,122.109C83.78,117.334 80.638,111.776 78.369,105.435C76.101,99.094 74.966,92.306 74.966,85.069C74.966,77.833 76.101,71.044 78.369,64.703C80.638,58.362 83.78,52.805 87.796,48.03C91.812,43.256 96.456,39.507 101.729,36.784C107.002,34.061 112.673,32.7 118.743,32.7C124.2,32.7 129.35,33.782 134.193,35.945C139.037,38.108 143.36,41.167 147.161,45.121L136.769,60.339Z" style="fill-rule:nonzero;"/>
                <path d="M194.782,137.439C188.712,137.439 183.041,136.077 177.768,133.355C172.495,130.632 167.851,126.883 163.835,122.109C159.819,117.334 156.677,111.776 154.408,105.435C152.139,99.094 151.005,92.306 151.005,85.069C151.005,77.833 152.139,71.044 154.408,64.703C156.677,58.362 159.819,52.805 163.835,48.03C167.851,43.256 172.495,39.507 177.768,36.784C183.041,34.061 188.712,32.7 194.782,32.7C200.852,32.7 206.523,34.061 211.796,36.784C217.069,39.507 221.713,43.256 225.729,48.03C229.745,52.805 232.887,58.362 235.156,64.703C237.424,71.044 238.558,77.833 238.558,85.069C238.558,92.306 237.424,99.094 235.156,105.435C232.887,111.776 229.745,117.334 225.729,122.109C221.713,126.883 217.069,130.632 211.796,133.355C206.523,136.077 200.852,137.439 194.782,137.439ZM194.782,117.968C199.748,117.968 204.224,116.495 208.209,113.548C212.194,110.601 215.367,106.629 217.728,101.631C220.088,96.632 221.269,91.112 221.269,85.069C221.269,78.952 220.088,73.413 217.728,68.452C215.367,63.491 212.194,59.537 208.209,56.591C204.224,53.644 199.748,52.171 194.782,52.171C189.816,52.171 185.324,53.644 181.309,56.591C177.293,59.537 174.12,63.491 171.79,68.452C169.46,73.413 168.295,78.952 168.295,85.069C168.295,91.112 169.46,96.632 171.79,101.631C174.12,106.629 177.293,110.601 181.309,113.548C185.324,116.495 189.816,117.968 194.782,117.968Z" style="fill-rule:nonzero;"/>
            </g>
            <path d="M238.411,124.57C238.411,118.901 239.592,113.679 241.952,108.904C244.313,104.13 247.531,100.269 251.609,97.323C255.686,94.376 260.269,92.902 265.358,92.902C270.324,92.902 274.892,94.338 279.061,97.211C283.23,100.083 286.556,103.906 289.04,108.68C291.523,113.455 292.764,118.789 292.764,124.682C292.764,128.263 292.228,131.676 291.155,134.921C290.082,138.166 288.38,141.766 286.051,145.72L267.381,177.723L293.776,177.723L293.776,195.851L239.515,195.851L273.175,135.76C274.585,133.149 275.536,131.005 276.026,129.326C276.517,127.648 276.762,126.1 276.762,124.682C276.762,120.878 275.658,117.651 273.451,115.003C271.244,112.355 268.515,111.03 265.266,111.03C262.016,111.03 259.303,112.355 257.127,115.003C254.95,117.651 253.862,120.878 253.862,124.682C253.862,124.682 248.712,124.645 238.411,124.57Z" style="fill-rule:nonzero;"/>
        </g>
        <g>
            <path d="M295.174,52.842L295.174,34.714L352.746,34.714L352.746,52.842L332.513,52.842L332.513,135.425L315.407,135.425L315.407,52.842L295.174,52.842Z" style="fill-rule:nonzero;"/>
            <path d="M404.671,135.425L386.277,97.155L373.769,97.155L373.769,135.425L357.767,135.425L357.767,34.714L383.058,34.714C389.067,34.714 394.202,36.169 398.463,39.078C402.724,41.988 405.989,45.848 408.257,50.66C410.526,55.472 411.66,60.75 411.66,66.494C411.66,71.716 410.725,76.453 408.855,80.705C406.985,84.957 404.333,88.464 400.9,91.224L418.006,125.801C418.006,125.801 413.561,129.009 404.671,135.425ZM373.769,80.37L382.69,80.37C385.695,80.37 388.147,79.679 390.048,78.299C391.948,76.919 393.359,75.166 394.278,73.04C395.198,70.914 395.658,68.732 395.658,66.494C395.658,62.54 394.462,59.276 392.071,56.703C389.68,54.129 386.553,52.842 382.69,52.842L373.769,52.842L373.769,80.37Z" style="fill-rule:nonzero;"/>
            <path d="M449.753,137.775C443.928,137.775 438.748,136.32 434.211,133.41C429.673,130.501 426.102,126.342 423.496,120.934C420.891,115.525 419.588,109.053 419.588,101.519L419.588,34.714L436.694,34.714L436.694,100.512C436.694,105.958 437.935,110.284 440.418,113.492C442.902,116.7 446.105,118.304 450.029,118.304C453.892,118.304 457.08,116.756 459.594,113.66C462.107,110.564 463.364,106.405 463.364,101.183L463.364,34.714L479.919,34.714L479.919,101.183C479.919,108.792 478.631,115.339 476.056,120.822C473.481,126.305 469.94,130.501 465.434,133.41C460.927,136.32 455.7,137.775 449.753,137.775Z" style="fill-rule:nonzero;"/>
            <path d="M526.583,57.206C525.357,56.012 524.039,54.931 522.628,53.961C519.195,51.574 515.792,50.38 512.42,50.38C509.416,50.38 507.101,51.313 505.476,53.178C503.852,55.043 503.039,57.355 503.039,60.116C503.039,61.831 503.361,63.361 504.005,64.703C504.649,66.046 505.584,67.24 506.81,68.284C508.036,69.329 509.477,70.373 511.132,71.417L520.973,77.348C522.628,78.318 524.437,79.568 526.399,81.097C528.361,82.626 530.262,84.547 532.101,86.86C533.94,89.172 535.443,91.951 536.607,95.196C537.772,98.442 538.355,102.302 538.355,106.778C538.355,112.597 537.251,117.838 535.044,122.5C532.837,127.163 529.725,130.855 525.709,133.578C521.693,136.301 516.896,137.663 511.316,137.663C506.289,137.663 501.522,136.525 497.015,134.25C492.509,131.974 488.907,129.233 486.209,126.025L496.51,112.037C497.552,113.082 498.655,114.089 499.82,115.059C503.744,118.043 507.76,119.535 511.868,119.535C515.24,119.535 517.892,118.416 519.823,116.178C521.755,113.94 522.72,111.217 522.72,108.009C522.72,105.398 522.214,103.235 521.203,101.519C520.191,99.803 518.996,98.386 517.616,97.267C516.237,96.148 515.026,95.29 513.983,94.693L504.235,88.762C501.414,87.046 498.717,85.013 496.142,82.664C493.567,80.314 491.467,77.386 489.842,73.879C488.217,70.373 487.405,66.046 487.405,60.899C487.405,55.229 488.462,50.268 490.578,46.016C492.693,41.764 495.682,38.444 499.544,36.057C503.407,33.67 507.944,32.476 513.156,32.476C518.061,32.476 522.429,33.427 526.261,35.329C530.093,37.232 533.205,39.265 535.596,41.428L526.583,57.206Z" style="fill-rule:nonzero;"/>
            <path d="M539.183,52.842L539.183,34.714L596.754,34.714L596.754,52.842L576.521,52.842L576.521,135.425L559.415,135.425L559.415,52.842L539.183,52.842Z" style="fill-rule:nonzero;"/>
        </g>
    </g>
</svg>
