<?xml version="1.0" encoding="UTF-8" standalone="no"?><!DOCTYPE svg PUBLIC "-//W3C//DTD SVG 1.1//EN" "http://www.w3.org/Graphics/SVG/1.1/DTD/svg11.dtd"><svg width="100%" height="100%" viewBox="0 0 6250 6250" version="1.1" xmlns="http://www.w3.org/2000/svg" xmlns:xlink="http://www.w3.org/1999/xlink" xml:space="preserve" xmlns:serif="http://www.serif.com/" style="fill-rule:evenodd;clip-rule:evenodd;stroke-linejoin:round;stroke-miterlimit:2;"><g><g><g><g><path d="M1449.62,1404.79l1664.37,854.304l-2.606,2192.73c-0,0 -98.974,-64.74 -132.602,-85.748c-22.636,-14.141 -46.205,-26.709 -69.17,-40.308c-28.79,-17.05 -69.445,-40.672 -103.562,-61.991c-38.032,-23.757 -83.391,-53.214 -124.607,-80.563c-49.273,-32.704 -127.203,-85.481 -171.051,-115.677c-31.022,-21.363 -61.52,-43.474 -92.062,-65.514c-31.619,-22.822 -65.754,-46.72 -97.631,-71.41c-33.789,-26.167 -72.513,-57.874 -105.11,-85.606c-30.8,-26.193 -62.099,-53.169 -90.489,-80.767c-27.856,-27.074 -54.165,-55.721 -79.878,-84.832c-27.909,-31.609 -61.894,-72.834 -87.589,-104.817c-22.893,-28.487 -45.021,-57.589 -66.598,-87.073c-22.36,-30.551 -46.081,-63.432 -67.533,-96.225c-29.12,-44.506 -74.559,-112.813 -107.183,-170.829c-32.383,-57.571 -61.174,-118.033 -88.576,-177.268c-27.109,-58.567 -54.156,-117.348 -75.876,-178.113c-23.338,-65.291 -47.877,-147.517 -64.153,-213.609c-14.826,-60.187 -31.787,-120.96 -33.504,-182.925c-6.35,-229.058 -4.589,-1063.76 -4.589,-1063.76Z" style="fill:#bfb389;"/><path d="M4772.23,1405.7c0,0 7.293,838.562 2.757,1062.84c-1.067,52.671 -19.344,106.756 -29.982,155.166c-9.979,45.396 -21.354,93.682 -33.842,135.279c-11.642,38.779 -26.904,76.383 -41.099,114.298c-15.227,40.673 -33.051,90.026 -50.278,129.765c-16.036,36.982 -34.616,72.825 -53.08,108.659c-20.519,39.828 -45.405,87.589 -70.059,130.299c-24.992,43.296 -52.039,87.073 -79.878,129.453c-27.901,42.487 -60.222,88.123 -87.536,125.451c-24.529,33.522 -50.322,66.119 -76.337,98.502c-26.736,33.282 -55.073,69.303 -84.076,101.171c-28.559,31.369 -58.719,61.324 -89.964,90.026c-34.064,31.289 -77.654,67.799 -114.414,97.719c-34.642,28.194 -70.325,55.081 -106.133,81.781c-36.786,27.429 -79.139,57.714 -114.573,82.786c-32.41,22.929 -65.817,45.609 -98.022,67.631c-31.645,21.639 -63.949,43.901 -95.211,64.509c-30.516,20.118 -61.432,39.632 -92.348,59.128c-31.156,19.656 -62.712,39.721 -94.562,58.772c-35.514,21.248 -78.383,46.934 -118.54,68.698c-41.544,22.511 -130.743,66.403 -130.743,66.403l-0.32,-2173.71l1658.24,-854.633Z" style="fill:#9cc3a4;"/><path d="M3115.06,557.832l1657.17,847.873l-1653.5,855.229l-1669.11,-856.145l1665.44,-846.957Z" style="fill:url(#_Linear1);"/><g><path d="M4337.57,1069.92c-0.22,-0.119 -0.45,-0.239 -0.679,-0.358l-1030.61,-527.245c-119.833,-61.657 -262.612,-61.657 -382.445,-0.009c-10.903,5.585 -1357.64,694.44 -1357.64,694.44c-0.065,0.028 -0.138,0.065 -0.202,0.101c-130.14,66.93 -211.914,200.808 -211.914,347.069c-0,-0.092 -0.919,884.537 -0.919,884.537c0,2.618 0.101,5.236 0.294,7.845c1.02,13.2 5.87,52.829 17.031,112.732c0.065,0.312 0.12,0.615 0.184,0.927c9.673,49.33 24.159,113.09 47.262,187.452c5.071,18.096 11.125,37.212 18.134,56.347c5.576,16.765 11.271,33.75 17.857,51.644c26.778,73.608 56.44,146.252 90.851,218.905c0.055,0.11 0.11,0.229 0.165,0.339c31.38,65.617 65.616,131.242 102.71,195.912c0.101,0.184 0.211,0.367 0.321,0.551c98.071,168.528 217.049,330.424 354.16,481.819c0.037,0.046 0.083,0.092 0.129,0.138c104.455,114.909 309.801,276.327 598.483,468.15c0.422,0.285 0.854,0.561 1.286,0.836c25.473,16.379 50.955,33.677 77.346,50.965c0.056,0.037 0.12,0.082 0.175,0.119c64.348,41.962 144.543,90.483 214.495,132.445c0.037,0.028 0.073,0.046 0.11,0.074c134.723,80.589 304.317,80.589 439.04,-0c0.211,-0.129 0.422,-0.258 0.624,-0.377c68.914,-41.907 148.034,-89.417 213.237,-132.261c330.341,-213.935 564.402,-394.074 677.235,-519.161c139.95,-154.234 260.829,-319.914 359.846,-491.29c0.009,-0.027 0.028,-0.064 0.046,-0.092c79.478,-137.874 144.552,-279.606 194.341,-422.266c-0,-0.018 0.009,-0.036 0.018,-0.055c74.968,-215.165 91.19,-363.245 94.112,-389.526c0.413,-3.739 0.615,-7.496 0.615,-11.253l-0.919,-884.629c0,-146.206 -81.71,-278.926 -210.646,-345.875c0.138,0.074 -324.131,-168.95 -324.131,-168.95Zm-46.702,89.601l-1030.68,-527.281c-90.942,-46.849 -199.338,-46.849 -290.28,-0l-1357.7,694.468c-96.454,49.605 -157.082,148.814 -157.082,257.21l-0.919,884.629c0.919,11.942 5.512,47.768 15.617,101.965c9.186,46.849 22.965,107.478 45.011,178.21c4.593,16.535 10.105,33.989 16.535,51.443c5.512,16.534 11.024,33.069 17.454,50.523c25.721,70.733 54.198,140.547 87.268,210.361c30.314,63.384 63.384,126.768 99.209,189.234c94.617,162.593 209.443,318.757 341.723,464.815c101.047,111.152 300.384,266.397 579.641,451.956c25.721,16.535 51.442,33.988 78.082,51.442c63.384,41.337 142.384,89.105 211.28,130.442c102.884,61.547 232.408,61.547 335.292,-0c67.977,-41.337 146.059,-88.186 210.361,-130.442c320.595,-207.606 548.409,-381.223 657.724,-502.479c135.035,-148.815 251.698,-308.652 347.234,-474.002c76.244,-132.28 138.71,-268.234 186.477,-405.106c70.733,-203.013 86.349,-342.641 89.105,-367.443l-0.918,-884.629c-0,-108.396 -60.629,-206.687 -156.164,-256.292l-324.269,-169.024Z" style="fill:#090a0b;"/></g><g><path d="M4393.19,1008.45c-0.24,-0.125 -0.479,-0.25 -0.718,-0.365c0,0 -1063.8,-545.764 -1073.41,-550.695c-124.923,-64.456 -273.756,-64.456 -398.68,-0l-1414.01,725.306c-0.077,0.038 -0.144,0.076 -0.211,0.105c-135.495,69.877 -220.685,209.621 -220.685,362.317c0,-0.096 -0.956,929.544 -0.956,929.544c-0.01,2.725 0.095,5.44 0.306,8.155c1.052,13.778 6.104,55.159 17.728,117.706c0.058,0.316 0.125,0.642 0.182,0.959c10.075,51.522 25.163,118.099 49.225,195.747c5.272,18.901 11.577,38.858 18.877,58.843c5.817,17.5 11.739,35.241 18.609,53.931c27.88,76.871 58.764,152.735 94.604,228.617c0.057,0.116 0.105,0.231 0.162,0.355c32.693,68.524 68.351,137.058 106.975,204.594c0.105,0.191 0.22,0.383 0.326,0.575c102.143,176.021 226.062,345.105 368.857,503.222c0.048,0.048 0.086,0.106 0.134,0.154c108.802,120.017 322.675,288.612 623.355,488.964c0.44,0.297 0.89,0.585 1.33,0.873c26.54,17.107 53.08,35.174 80.558,53.23c0.067,0.048 0.125,0.087 0.192,0.125c67.02,43.837 150.545,94.506 223.402,138.343c0.038,0.029 0.077,0.048 0.115,0.077c140.432,84.24 317.222,84.24 457.654,-0c0.22,-0.134 0.431,-0.269 0.651,-0.403c71.775,-43.761 154.19,-93.393 222.091,-138.132c344.078,-223.456 587.85,-411.604 705.377,-542.252c145.752,-161.092 271.642,-334.129 374.771,-513.114c0.019,-0.038 0.029,-0.067 0.048,-0.096c82.769,-143.994 150.536,-292.009 202.382,-441.002c0.01,-0.009 0.019,-0.028 0.019,-0.048c78.071,-224.693 94.968,-379.308 98.001,-406.758c0.43,-3.886 0.65,-7.791 0.641,-11.706l-0.957,-929.639c-0,-152.639 -85.123,-291.174 -219.365,-361.07c0.153,0.077 -337.581,-176.462 -337.581,-176.462Zm-48.824,93.402l-1073.48,-550.724c-94.718,-48.932 -207.615,-48.932 -302.334,0l-1414.08,725.344c-100.459,51.81 -163.605,155.431 -163.605,268.646l-0.957,929.64c0.957,12.473 5.741,49.891 16.265,106.499c9.567,48.932 23.919,112.255 46.881,186.133c4.784,17.27 10.524,35.5 17.222,53.729c5.74,17.27 11.481,34.54 18.178,52.77c26.789,73.878 56.448,146.796 90.892,219.714c31.573,66.202 66.016,132.404 103.329,197.647c98.546,169.822 218.14,332.929 355.913,485.481c105.243,116.094 312.859,278.241 603.712,472.05c26.79,17.27 53.579,35.499 81.325,53.729c66.016,43.175 148.297,93.067 220.053,136.242c107.157,64.283 242.059,64.283 349.216,-0c70.8,-43.175 152.124,-92.107 219.097,-136.242c333.907,-216.836 571.182,-398.172 685.036,-524.819c140.643,-155.431 262.151,-322.375 361.654,-495.076c79.41,-138.161 144.47,-280.16 194.221,-423.118c73.67,-212.038 89.935,-357.875 92.805,-383.78l-0.957,-929.639c0,-113.216 -63.146,-215.877 -162.648,-267.687l-337.735,-176.539Z"/></g><g><rect x="3069.65" y="2685.97" width="153.521" height="1720.54"/></g><g><g><path d="M3580.69,2090.43l-62.042,-133.281l410.691,-226.115l69.539,145.333l-418.188,214.063Z" style="fill-rule:nonzero;"/></g><path d="M2297.81,2734.28l-56.09,-129.772c-0,-0 430.469,-236.679 430.956,-235.228c-0.487,-1.451 75.252,131.986 75.252,131.986l-450.118,233.014Z" style="fill-rule:nonzero;"/><circle cx="2042.89" cy="2766.16" r="256.292"/><g><circle cx="3124.09" cy="2221.43" r="474.92" style="fill:url(#_Radial2);"/></g><path d="M3113.99,2259.09l-0.184,437.147c-0,0 3.417,0.074 -0,0c-257.376,-5.484 -464.632,-216.13 -464.632,-474.81c-0,-64.275 12.796,-125.592 35.982,-181.526c11.574,-27.935 0.027,-0.064 0.027,-0.064l428.807,219.253Z"/><g><circle cx="4183.25" cy="1695.98" r="256.292" style="fill:url(#_Radial3);"/></g></g></g></g><path d="M4390.34,1034.06l-1116.55,-552.159c-98.519,-49.059 -215.946,-49.059 -314.465,0l-1470.82,727.234c-104.49,51.945 -170.169,155.836 -170.169,269.346l-0.995,1060.07c0.995,12.505 5.97,50.021 16.917,106.776c9.951,49.059 24.879,112.548 48.762,186.618c4.976,17.315 10.946,35.592 17.912,53.869c5.971,17.315 11.942,34.631 18.908,52.908c27.864,74.07 58.713,147.178 94.539,220.286c32.839,66.375 68.664,132.749 107.475,198.162c102.499,170.265 226.892,333.796 370.192,486.746c109.466,116.396 325.411,278.966 627.934,473.279c27.864,17.316 55.728,35.593 84.587,53.87c68.665,43.287 154.247,93.309 228.882,136.597c111.456,64.45 251.771,64.45 363.227,-0c73.64,-43.288 158.227,-92.348 227.887,-136.597c347.304,-217.401 594.099,-399.209 712.521,-526.187c146.286,-155.836 272.669,-323.215 376.163,-496.366c82.597,-138.521 150.266,-280.889 202.014,-424.22c76.626,-212.591 93.543,-358.807 96.528,-384.78l-0.995,-1060.07c0,-113.51 -65.679,-216.439 -169.174,-268.384l-351.284,-176.999Z" style="fill-opacity:0;fill-rule:nonzero;"/><path d="M4447.44,919.481c-0.25,-0.126 -0.5,-0.252 -0.75,-0.369c-0,0 -1111.75,-552.934 -1121.8,-557.93c-130.555,-65.302 -286.096,-65.302 -416.65,0l-1477.74,734.834c-0.08,0.039 -0.15,0.078 -0.22,0.107c-141.603,70.795 -230.632,212.375 -230.632,367.077c-0,-0.097 -1,1071.11 -1,1071.11c-0.01,2.76 0.1,5.511 0.32,8.262c1.1,13.959 6.379,55.883 18.527,119.252c0.06,0.32 0.13,0.651 0.19,0.972c10.529,52.199 26.297,119.65 51.444,198.318c5.51,19.15 12.099,39.368 19.728,59.616c6.079,17.73 12.268,35.704 19.447,54.639c29.137,77.881 61.413,154.742 98.869,231.621c0.06,0.117 0.11,0.234 0.17,0.36c34.165,69.424 71.431,138.858 111.796,207.281c0.11,0.194 0.23,0.389 0.34,0.583c106.747,178.333 236.252,349.638 385.484,509.833c0.05,0.049 0.09,0.107 0.14,0.155c113.706,121.595 337.219,292.404 651.451,495.388c0.46,0.302 0.93,0.593 1.39,0.885c27.737,17.332 55.473,35.635 84.19,53.93c0.07,0.048 0.13,0.087 0.2,0.126c70.041,44.413 157.331,95.747 233.472,140.16c0.04,0.03 0.08,0.049 0.12,0.078c146.762,85.347 331.52,85.347 478.282,0c0.23,-0.136 0.45,-0.272 0.68,-0.408c75.011,-44.335 161.141,-94.62 232.102,-139.947c359.587,-226.391 614.346,-417.011 737.171,-549.376c152.322,-163.208 283.886,-338.517 391.663,-519.854c0.02,-0.039 0.03,-0.068 0.05,-0.097c86.5,-145.886 157.321,-295.845 211.505,-446.795c0.01,-0.01 0.02,-0.03 0.02,-0.049c81.59,-227.645 99.248,-384.292 102.417,-412.102c0.45,-3.937 0.68,-7.893 0.67,-11.859l-1,-1071.2c0,-154.644 -88.959,-294.999 -229.252,-365.813c0.16,0.077 -352.797,-178.781 -352.797,-178.781Zm-51.024,94.63l-1121.87,-557.959c-98.988,-49.575 -216.974,-49.575 -315.962,-0l-1477.82,734.873c-104.988,52.491 -170.98,157.473 -170.98,272.175l-1,1071.2c1,12.636 6,50.547 16.998,107.898c9.999,49.574 24.997,113.73 48.994,188.578c5,17.497 10.999,35.966 17.998,54.435c6,17.497 11.999,34.994 18.998,53.463c27.997,74.848 58.993,148.725 94.989,222.601c32.996,67.071 68.991,134.143 107.987,200.243c102.987,172.053 227.972,337.303 371.955,491.859c109.987,117.619 326.96,281.896 630.924,478.251c27.996,17.497 55.993,35.966 84.99,54.435c68.991,43.742 154.981,94.289 229.972,138.032c111.986,65.127 252.969,65.127 364.956,-0c73.991,-43.743 158.981,-93.318 228.972,-138.032c348.958,-219.684 596.929,-403.403 715.914,-531.714c146.983,-157.472 273.967,-326.61 377.955,-501.58c82.99,-139.975 150.982,-283.839 202.975,-428.676c76.991,-214.824 93.989,-362.576 96.989,-388.821l-1,-1071.2c-0,-114.702 -65.992,-218.712 -169.98,-271.203l-352.957,-178.858Z" style="fill:#fff;"/></g><g><g><g><path d="M1475.28,5401.21c-42.651,0 -82.663,-8.478 -120.037,-25.435c-36.934,-16.957 -69.911,-40.038 -98.051,-69.713c-28.141,-29.675 -50.565,-64.06 -66.394,-103.626c-15.829,-39.567 -24.183,-81.488 -24.183,-126.236c-0,-44.748 7.914,-87.14 24.183,-126.236c15.829,-39.566 38.253,-73.951 66.394,-103.626c28.14,-29.675 61.117,-52.755 98.051,-69.712c36.935,-16.957 76.947,-25.436 120.037,-25.436c38.253,0 74.747,6.595 109.044,20.254c31.912,12.271 60.396,29.845 85.81,51.96c1.9,1.653 5.646,5.035 5.646,5.035l-75.781,91.502c-0,0 -2.388,-2.143 -3.597,-3.203c-6.151,-5.356 -12.668,-10.447 -19.553,-15.29c-28.141,-19.783 -60.678,-29.674 -97.172,-29.674c-35.176,-0 -66.834,8.949 -94.974,27.319c-28.141,18.37 -50.565,42.864 -67.273,73.481c-16.269,30.617 -24.623,65.002 -24.623,103.155c-0,37.682 8.354,71.597 24.623,102.684c16.268,31.088 38.693,55.582 67.273,73.952c28.14,18.37 59.798,27.32 94.974,27.32c36.494,-0 68.592,-9.892 96.732,-29.675c7.62,-5.356 14.822,-11.027 21.589,-17.014c1.429,-1.267 4.234,-3.848 4.234,-3.848l73.548,93.871c-0,0 -3.54,3.086 -5.325,4.593c-25.876,21.846 -54.491,39.157 -86.571,51.931c-33.857,14.602 -70.351,21.667 -108.604,21.667Z" style="fill-rule:nonzero;"/><path d="M1475.28,5454.15c45.416,-0 88.725,-8.488 128.953,-25.733c37.106,-14.86 70.32,-34.988 100.36,-60.348c2.005,-1.691 5.971,-5.143 5.971,-5.143c21.219,-18.502 24.24,-50.377 6.877,-72.539l-73.548,-93.871c-9.101,-11.616 -22.644,-18.907 -37.356,-20.108c-14.712,-1.202 -29.257,3.796 -40.122,13.787c-0,-0 -2.317,2.133 -3.5,3.179c-5.312,4.701 -10.966,9.143 -16.946,13.349c-19.263,13.537 -41.313,20.042 -66.292,20.042c-24.434,0 -46.498,-5.949 -66.042,-18.709c-0.106,-0.071 -0.207,-0.137 -0.313,-0.203c-20.841,-13.396 -37.136,-31.304 -48.999,-53.97c-12.373,-23.646 -18.59,-49.482 -18.59,-78.144c-0,-28.77 6.019,-54.776 18.212,-77.899c12.448,-22.722 28.923,-40.861 49.69,-54.417c19.544,-12.761 41.608,-18.71 66.042,-18.71c25.027,0 47.434,6.477 66.732,20.043c5.364,3.772 10.442,7.734 15.231,11.902c0.998,0.872 2.959,2.643 2.959,2.643c10.715,9.637 24.9,14.489 39.273,13.434c14.374,-1.055 27.692,-7.923 36.886,-19.025l75.786,-91.502c18.089,-21.837 15.749,-54.056 -5.307,-73.052c-0,-0 -4.217,-3.806 -6.358,-5.667c-30.027,-26.132 -63.708,-46.858 -101.402,-61.375c-40.241,-15.986 -83.177,-23.843 -128.197,-23.843c-51.027,-0 -98.382,10.183 -142.122,30.263c-43.095,19.788 -81.537,46.769 -114.373,81.394c-32.648,34.428 -58.669,74.314 -77.052,120.202c-18.74,45.158 -28.044,94.244 -28.044,146.08c0,51.719 9.673,100.165 27.969,145.897c18.388,45.963 44.435,85.911 77.127,120.385c32.836,34.626 71.278,61.606 114.373,81.394c0.074,0.033 0.145,0.066 0.215,0.099c44.189,20.047 91.478,30.165 141.907,30.165Zm-0,-52.93c-42.651,0 -82.663,-8.478 -120.037,-25.435c-36.934,-16.957 -69.911,-40.038 -98.051,-69.713c-28.141,-29.674 -50.565,-64.06 -66.394,-103.626c-15.829,-39.566 -24.183,-81.488 -24.183,-126.236c-0,-44.747 7.914,-87.14 24.183,-126.235c15.829,-39.567 38.253,-73.952 66.394,-103.627c28.14,-29.675 61.117,-52.755 98.051,-69.712c36.935,-16.957 76.947,-25.436 120.037,-25.436c38.253,0 74.747,6.595 109.044,20.255c31.912,12.27 60.396,29.844 85.81,51.959c1.9,1.653 5.646,5.035 5.646,5.035l-75.781,91.502c-0,0 -2.388,-2.143 -3.597,-3.203c-6.151,-5.355 -12.668,-10.447 -19.553,-15.289c-28.141,-19.784 -60.678,-29.675 -97.172,-29.675c-35.176,-0 -66.834,8.949 -94.974,27.319c-28.141,18.371 -50.565,42.864 -67.273,73.481c-16.269,30.617 -24.623,65.002 -24.623,103.155c-0,37.683 8.354,71.597 24.623,102.685c16.268,31.087 38.693,55.581 67.273,73.951c28.14,18.37 59.798,27.32 94.974,27.32c36.494,-0 68.592,-9.892 96.732,-29.675c7.62,-5.356 14.822,-11.027 21.589,-17.014c1.429,-1.267 4.234,-3.848 4.234,-3.848l73.548,93.871c-0,0 -3.54,3.086 -5.325,4.593c-25.876,21.846 -54.491,39.157 -86.571,51.931c-33.857,14.602 -70.351,21.667 -108.604,21.667Z" style="fill:#fff;"/><path d="M1475.28,5401.21c-42.651,0 -82.663,-8.478 -120.037,-25.435c-36.934,-16.957 -69.911,-40.038 -98.051,-69.713c-28.141,-29.675 -50.565,-64.06 -66.394,-103.626c-15.829,-39.567 -24.183,-81.488 -24.183,-126.236c-0,-44.748 7.914,-87.14 24.183,-126.236c15.829,-39.566 38.253,-73.951 66.394,-103.626c28.14,-29.675 61.117,-52.755 98.051,-69.712c36.935,-16.957 76.947,-25.436 120.037,-25.436c38.253,0 74.747,6.595 109.044,20.254c31.912,12.271 60.396,29.845 85.81,51.96c1.9,1.653 5.646,5.035 5.646,5.035l-75.781,91.502c-0,0 -2.388,-2.143 -3.597,-3.203c-6.151,-5.356 -12.668,-10.447 -19.553,-15.29c-28.141,-19.783 -60.678,-29.674 -97.172,-29.674c-35.176,-0 -66.834,8.949 -94.974,27.319c-28.141,18.37 -50.565,42.864 -67.273,73.481c-16.269,30.617 -24.623,65.002 -24.623,103.155c-0,37.682 8.354,71.597 24.623,102.684c16.268,31.088 38.693,55.582 67.273,73.952c28.14,18.37 59.798,27.32 94.974,27.32c36.494,-0 68.592,-9.892 96.732,-29.675c7.62,-5.356 14.822,-11.027 21.589,-17.014c1.429,-1.267 4.234,-3.848 4.234,-3.848l73.548,93.871c-0,0 -3.54,3.086 -5.325,4.593c-25.876,21.846 -54.491,39.157 -86.571,51.931c-33.857,14.602 -70.351,21.667 -108.604,21.667Z" style="fill-rule:nonzero;stroke:#fff;stroke-width:4.1px;"/></g><g><path d="M2058.31,5401.21c-42.65,0 -82.662,-8.478 -120.036,-25.435c-36.935,-16.957 -69.912,-40.038 -98.052,-69.713c-28.14,-29.675 -50.565,-64.06 -66.394,-103.626c-15.829,-39.567 -24.183,-81.488 -24.183,-126.236c0,-44.748 7.915,-87.14 24.183,-126.236c15.829,-39.566 38.254,-73.951 66.394,-103.626c28.14,-29.675 61.117,-52.755 98.052,-69.712c36.934,-16.957 76.946,-25.436 120.036,-25.436c43.09,0 83.102,8.479 120.036,25.436c37.374,16.957 69.911,40.037 98.052,69.712c28.14,29.675 50.125,64.06 66.393,103.626c15.829,39.567 23.744,81.488 23.744,126.236c-0,44.748 -7.915,87.141 -23.744,126.236c-15.829,39.566 -38.253,73.951 -66.393,103.626c-28.141,29.675 -61.118,52.756 -98.052,69.713c-36.934,16.957 -76.946,25.435 -120.036,25.435Zm-0,-121.054c34.736,-0 66.394,-8.95 94.534,-27.32c28.14,-18.37 50.565,-42.864 67.273,-73.952c16.708,-31.087 25.062,-65.473 25.062,-102.684c0,-37.682 -8.354,-72.067 -25.062,-103.155c-16.708,-30.617 -39.133,-55.111 -67.273,-73.481c-28.14,-18.37 -59.798,-27.319 -94.534,-27.319c-35.176,-0 -66.834,8.949 -94.974,27.319c-28.14,18.37 -50.565,42.864 -66.833,73.481c-16.269,30.617 -24.623,65.002 -24.623,103.155c-0,37.682 8.354,71.597 24.623,102.684c16.268,31.088 38.693,55.582 66.833,73.952c28.14,18.37 59.798,27.32 94.974,27.32Z" style="fill-rule:nonzero;"/><path d="M2058.31,5454.15c51.026,-0 98.381,-10.184 142.122,-30.264c43.094,-19.788 81.537,-46.768 114.373,-81.394c32.665,-34.451 58.699,-74.361 77.087,-120.286c18.296,-45.228 27.569,-94.239 27.569,-145.996c-0,-51.723 -9.234,-100.159 -27.53,-145.896c-0.061,-0.156 -0.123,-0.311 -0.189,-0.467c-18.832,-45.807 -44.36,-85.562 -76.937,-119.919c-32.867,-34.653 -70.848,-61.629 -114.487,-81.445c-43.706,-20.047 -91.026,-30.212 -142.008,-30.212c-51.027,-0 -98.382,10.183 -142.122,30.263c-43.095,19.788 -81.537,46.769 -114.373,81.394c-32.647,34.428 -58.668,74.314 -77.052,120.202c-18.74,45.158 -28.044,94.244 -28.044,146.08c0,51.719 9.674,100.165 27.969,145.897c18.388,45.963 44.436,85.911 77.127,120.385c32.836,34.626 71.278,61.606 114.373,81.394c0.075,0.033 0.145,0.066 0.215,0.099c44.189,20.047 91.478,30.165 141.907,30.165Zm-0,-52.93c-42.65,0 -82.662,-8.478 -120.036,-25.435c-36.935,-16.957 -69.912,-40.038 -98.052,-69.713c-28.14,-29.674 -50.565,-64.06 -66.394,-103.626c-15.829,-39.566 -24.183,-81.488 -24.183,-126.236c0,-44.747 7.915,-87.14 24.183,-126.235c15.829,-39.567 38.254,-73.952 66.394,-103.627c28.14,-29.675 61.117,-52.755 98.052,-69.712c36.934,-16.957 76.946,-25.436 120.036,-25.436c43.09,0 83.102,8.479 120.036,25.436c37.374,16.957 69.911,40.037 98.052,69.712c28.14,29.675 50.125,64.06 66.393,103.627c15.829,39.566 23.744,81.488 23.744,126.235c-0,44.748 -7.915,87.141 -23.744,126.236c-15.829,39.566 -38.253,73.952 -66.393,103.626c-28.141,29.675 -61.118,52.756 -98.052,69.713c-36.934,16.957 -76.946,25.435 -120.036,25.435Zm-0,-121.054c34.736,-0 66.394,-8.95 94.534,-27.32c28.14,-18.37 50.565,-42.863 67.273,-73.951c16.708,-31.088 25.062,-65.473 25.062,-102.685c0,-37.682 -8.354,-72.067 -25.062,-103.155c-16.708,-30.617 -39.133,-55.11 -67.273,-73.481c-28.14,-18.37 -59.798,-27.319 -94.534,-27.319c-35.176,-0 -66.834,8.949 -94.974,27.319c-28.14,18.371 -50.565,42.864 -66.833,73.481c-16.269,30.617 -24.623,65.002 -24.623,103.155c-0,37.683 8.354,71.597 24.623,102.685c16.268,31.088 38.693,55.581 66.833,73.951c28.14,18.37 59.798,27.32 94.974,27.32Zm-0,-52.93c-24.434,0 -46.498,-5.949 -66.042,-18.709c-20.595,-13.448 -36.961,-31.418 -48.872,-54.173c-12.373,-23.646 -18.59,-49.482 -18.59,-78.144c-0,-28.944 6.094,-55.091 18.436,-78.318c11.947,-22.482 28.365,-40.508 49.026,-53.998c19.544,-12.761 41.608,-18.71 66.042,-18.71c24.082,0 46.093,5.978 65.602,18.71c20.776,13.565 37.26,31.714 49.624,54.29c12.628,23.556 18.718,49.576 18.718,78.026c-0,28.116 -6.134,54.14 -18.758,77.626c-12.338,22.958 -28.804,41.125 -49.584,54.691c-19.509,12.732 -41.52,18.709 -65.602,18.709Z" style="fill:#fff;"/><path d="M2058.31,5401.21c-42.65,0 -82.662,-8.478 -120.036,-25.435c-36.935,-16.957 -69.912,-40.038 -98.052,-69.713c-28.14,-29.675 -50.565,-64.06 -66.394,-103.626c-15.829,-39.567 -24.183,-81.488 -24.183,-126.236c0,-44.748 7.915,-87.14 24.183,-126.236c15.829,-39.566 38.254,-73.951 66.394,-103.626c28.14,-29.675 61.117,-52.755 98.052,-69.712c36.934,-16.957 76.946,-25.436 120.036,-25.436c43.09,0 83.102,8.479 120.036,25.436c37.374,16.957 69.911,40.037 98.052,69.712c28.14,29.675 50.125,64.06 66.393,103.626c15.829,39.567 23.744,81.488 23.744,126.236c-0,44.748 -7.915,87.141 -23.744,126.236c-15.829,39.566 -38.253,73.951 -66.393,103.626c-28.141,29.675 -61.118,52.756 -98.052,69.713c-36.934,16.957 -76.946,25.435 -120.036,25.435Zm-0,-121.054c34.736,-0 66.394,-8.95 94.534,-27.32c28.14,-18.37 50.565,-42.864 67.273,-73.952c16.708,-31.087 25.062,-65.473 25.062,-102.684c0,-37.682 -8.354,-72.067 -25.062,-103.155c-16.708,-30.617 -39.133,-55.111 -67.273,-73.481c-28.14,-18.37 -59.798,-27.319 -94.534,-27.319c-35.176,-0 -66.834,8.949 -94.974,27.319c-28.14,18.37 -50.565,42.864 -66.833,73.481c-16.269,30.617 -24.623,65.002 -24.623,103.155c-0,37.682 8.354,71.597 24.623,102.684c16.268,31.088 38.693,55.582 66.833,73.952c28.14,18.37 59.798,27.32 94.974,27.32Z" style="fill-rule:nonzero;stroke:#fff;stroke-width:4.1px;"/></g><g id="_2_1_"><path d="M2412.78,5747.62l239.764,-352.09c10.258,-16.667 17.31,-29.167 20.836,-39.584c3.525,-10.417 5.449,-20.834 5.449,-29.167c-0,-22.917 -8.334,-43.751 -25.323,-60.418c-16.989,-16.667 -37.503,-25 -62.185,-25c-24.682,-0 -45.196,8.333 -61.864,25c-15.835,15.834 -24.147,35.417 -24.938,57.001c-0.042,1.125 -0.065,3.417 -0.065,3.417l-100.649,-2.083c-0,-0 0.012,-2.5 0.035,-3.73c0.602,-31.792 8.924,-59.792 24.967,-85.855c16.668,-27.084 39.106,-50.001 67.634,-66.668c28.528,-16.667 60.262,-25.001 95.521,-25.001c34.619,0 66.352,8.334 95.201,25.001c28.848,16.667 51.927,37.5 69.237,66.668c17.309,27.083 25.963,58.334 25.963,91.668c0,20.834 -3.526,39.584 -10.898,58.334c-7.372,18.751 -19.232,39.584 -35.259,62.502l-142.641,202.087l197.453,-0l0,95.835l-378.238,-0l-0,2.083Z" style="fill-rule:nonzero;"/><path d="M2376.19,5707.31c-10.077,9.625 -16.344,23.188 -16.344,38.23l-0,2.083c-0,23.23 15.142,43.751 37.34,50.585c10.106,3.104 20.595,3.062 30.256,0.25l363.57,-0c29.23,-0 52.928,-23.688 52.928,-52.918l-0,-95.835c-0,-29.23 -23.698,-52.918 -52.928,-52.918l-95.31,0l83.739,-118.648c0.044,-0.063 0.089,-0.125 0.131,-0.188c18.806,-26.896 32.493,-51.459 41.145,-73.459c9.821,-24.98 14.568,-49.96 14.568,-77.71c0,-43.438 -11.443,-84.127 -33.859,-119.482c-22.024,-36.834 -51.148,-63.522 -87.793,-84.689c-36.881,-21.313 -77.417,-32.084 -121.677,-32.084c-45.135,0 -85.7,10.876 -122.219,32.209c-36.247,21.188 -64.833,50.23 -86.011,84.627c-21.043,34.209 -32.022,70.897 -32.81,112.606c-0.029,1.479 -0.045,4.48 -0.045,4.48c-0.135,28.896 22.938,52.563 51.831,53.167l100.65,2.084c14.142,0.291 27.81,-5.084 37.959,-14.938c10.151,-9.855 15.934,-23.355 16.062,-37.501c-0,0 0.006,-1.312 0.029,-1.958c0.301,-8.146 3.49,-15.521 9.472,-21.522c6.552,-6.541 14.741,-9.5 24.441,-9.5c9.937,0 18.28,3.146 25.118,9.855c6.362,6.25 9.462,14.062 9.462,22.646c-0,3.5 -1.173,7.813 -2.654,12.188c-2.516,7.437 -7.924,16.062 -15.133,27.771l-231.918,340.569Zm38.004,38.23l-1.42,2.083l-0,-2.083l1.42,-0l238.344,-350.007c10.258,-16.667 17.31,-29.167 20.836,-39.584c3.525,-10.417 5.449,-20.834 5.449,-29.167c-0,-22.917 -8.334,-43.751 -25.323,-60.418c-16.989,-16.667 -37.503,-25 -62.185,-25c-24.682,-0 -45.196,8.333 -61.864,25c-15.835,15.834 -24.147,35.417 -24.938,57.001c-0.042,1.125 -0.065,3.417 -0.065,3.417l-100.649,-2.083c-0,-0 0.012,-2.5 0.035,-3.73c0.602,-31.792 8.924,-59.792 24.967,-85.855c16.668,-27.084 39.106,-50.001 67.634,-66.668c28.528,-16.667 60.262,-25.001 95.521,-25.001c34.619,0 66.352,8.334 95.201,25.001c28.848,16.667 51.927,37.5 69.237,66.668c17.309,27.083 25.963,58.334 25.963,91.668c0,20.834 -3.526,39.584 -10.898,58.334c-7.372,18.751 -19.232,39.584 -35.259,62.502l-142.641,202.087l197.453,-0l0,95.835l-376.818,-0Z" style="fill:#fff;"/><path d="M2412.78,5747.62l239.764,-352.09c10.258,-16.667 17.31,-29.167 20.836,-39.584c3.525,-10.417 5.449,-20.834 5.449,-29.167c-0,-22.917 -8.334,-43.751 -25.323,-60.418c-16.989,-16.667 -37.503,-25 -62.185,-25c-24.682,-0 -45.196,8.333 -61.864,25c-15.835,15.834 -24.147,35.417 -24.938,57.001c-0.042,1.125 -0.065,3.417 -0.065,3.417l-100.649,-2.083c-0,-0 0.012,-2.5 0.035,-3.73c0.602,-31.792 8.924,-59.792 24.967,-85.855c16.668,-27.084 39.106,-50.001 67.634,-66.668c28.528,-16.667 60.262,-25.001 95.521,-25.001c34.619,0 66.352,8.334 95.201,25.001c28.848,16.667 51.927,37.5 69.237,66.668c17.309,27.083 25.963,58.334 25.963,91.668c0,20.834 -3.526,39.584 -10.898,58.334c-7.372,18.751 -19.232,39.584 -35.259,62.502l-142.641,202.087l197.453,-0l0,95.835l-378.238,-0l-0,2.083Z" style="fill-rule:nonzero;stroke:#fff;stroke-width:4.17px;"/></g></g><g><g><path d="M2817.66,4874.64l0,-112.576l405.837,0l-0,112.576l-142.461,0l0,512.48l-120.476,-0l0,-512.48l-142.9,0Z" style="fill-rule:nonzero;"/><path d="M2764.74,4874.64c0,29.232 23.695,52.93 52.926,52.93l89.974,-0l0,459.55c0,29.232 23.696,52.929 52.926,52.929l120.476,0c29.231,0 52.926,-23.697 52.926,-52.929l0,-459.55l89.535,-0c29.231,-0 52.926,-23.698 52.926,-52.93l-0,-112.576c-0,-29.232 -23.695,-52.929 -52.926,-52.929l-405.837,-0c-29.231,-0 -52.926,23.697 -52.926,52.929l0,112.576Zm52.926,0l0,-112.576l405.837,0l-0,112.576l-142.461,0l0,512.48l-120.476,-0l0,-512.48l-142.9,0Z" style="fill:#fff;"/><path d="M2817.66,4874.64l0,-112.576l405.837,0l-0,112.576l-142.461,0l0,512.48l-120.476,-0l0,-512.48l-142.9,0Z" style="fill-rule:nonzero;stroke:#fff;stroke-width:4.1px;"/></g><g><path d="M3301.76,5387.12l0,-625.056l178.076,0c42.211,0 78.705,8.95 108.604,26.849c29.899,17.899 53.203,41.921 69.032,72.067c15.829,29.675 24.183,62.647 24.183,98.445c0,32.501 -6.595,61.705 -19.786,88.083c-13.191,26.377 -31.658,48.045 -55.841,65.473l119.649,212.533l-92.828,61.606l-129.709,-237.399l-87.939,0l0,237.399l-113.441,-0Zm113.001,-341.967l62.877,-0c21.105,-0 38.253,-4.24 51.883,-12.718c13.191,-8.479 23.304,-19.312 29.9,-32.501c6.595,-13.189 9.673,-26.849 9.673,-40.509c-0,-24.493 -8.354,-44.747 -25.063,-60.762c-16.708,-16.015 -38.693,-24.023 -65.954,-24.023l-62.876,0l0,170.513l-0.44,-0Z" style="fill-rule:nonzero;"/><path d="M3354.68,5387.12c-0.241,28.808 -23.506,52.124 -52.297,52.439l-0.62,0.49l-0.479,-0.485c-29.007,-0.25 -52.438,-23.834 -52.447,-52.901l0,-624.599c0,-29.232 23.695,-52.929 52.926,-52.929l178.076,-0c52.851,-0 98.355,11.954 135.79,34.366c38.425,23.005 68.254,53.994 88.625,92.717c19.786,37.15 30.33,78.403 30.33,123.207c0,41.258 -8.627,78.271 -25.375,111.757c-9.792,19.58 -21.826,37.164 -36.213,52.854l98.808,175.515c13.604,24.163 6.248,54.733 -16.858,70.065l-92.828,61.606c-12.351,8.196 -27.577,10.838 -41.973,7.277c-14.391,-3.56 -26.632,-12.99 -33.738,-26l-114.658,-209.848l-3.619,-0l-0,184.469c-0,29.232 -23.695,52.929 -52.926,52.929l-113.441,0c29.231,0 52.926,-23.697 52.926,-52.929l60.515,-0l0,-237.399l87.939,0l129.709,237.399l92.828,-61.606l-119.649,-212.533c24.183,-17.428 42.65,-39.096 55.841,-65.473c13.191,-26.378 19.786,-55.582 19.786,-88.083c0,-35.798 -8.354,-68.77 -24.183,-98.445c-15.829,-30.146 -39.133,-54.168 -69.032,-72.067c-29.899,-17.899 -66.393,-26.849 -108.604,-26.849l-178.076,0l0,625.056l52.917,-0Zm128.448,-512.386l-5.048,-0.094l-62.876,0l0,170.513l62.437,-0c21.105,-0 38.253,-4.24 51.883,-12.718c13.191,-8.479 23.304,-19.312 29.9,-32.501c6.595,-13.189 9.673,-26.849 9.673,-40.509c-0,-24.493 -8.354,-44.747 -25.063,-60.762c-15.666,-15.012 -35.967,-22.991 -60.906,-23.929Zm-14.998,117.489l9.511,0c9.462,0 17.407,-0.829 23.677,-4.578c4.634,-3.048 8.425,-6.698 10.768,-11.385c2.744,-5.483 4.085,-11.154 4.085,-16.835c-0,-9.015 -2.612,-16.655 -8.763,-22.553c-7.321,-7.018 -17.377,-9.302 -29.328,-9.302l-9.95,-0l-0,64.653Z" style="fill:#fff;"/><path d="M3301.76,5387.12l0,-625.056l178.076,0c42.211,0 78.705,8.95 108.604,26.849c29.899,17.899 53.203,41.921 69.032,72.067c15.829,29.675 24.183,62.647 24.183,98.445c0,32.501 -6.595,61.705 -19.786,88.083c-13.191,26.377 -31.658,48.045 -55.841,65.473l119.649,212.533l-92.828,61.606l-129.709,-237.399l-87.939,0l0,237.399l-113.441,-0Zm113.001,-341.967l62.877,-0c21.105,-0 38.253,-4.24 51.883,-12.718c13.191,-8.479 23.304,-19.312 29.9,-32.501c6.595,-13.189 9.673,-26.849 9.673,-40.509c-0,-24.493 -8.354,-44.747 -25.063,-60.762c-16.708,-16.015 -38.693,-24.023 -65.954,-24.023l-62.876,0l0,170.513l-0.44,-0Z" style="fill-rule:nonzero;stroke:#fff;stroke-width:4.1px;"/></g><g><path d="M3982.85,5401.25c-40.891,-0 -77.386,-8.95 -109.484,-27.32c-32.097,-17.899 -57.16,-43.806 -75.627,-77.249c-18.467,-33.443 -27.7,-73.951 -27.7,-120.583l-0,-414.506l120.915,0l0,407.911c0,33.914 8.794,60.763 26.382,80.546c17.588,19.783 40.012,29.675 67.713,29.675c27.261,0 49.685,-9.421 67.273,-28.733c17.587,-19.312 26.381,-45.219 26.381,-77.248l0,-412.151l116.519,0l-0,412.151c-0,47.102 -9.234,87.611 -27.261,121.996c-18.027,33.914 -43.09,59.821 -74.748,78.191c-31.658,18.37 -68.592,27.32 -110.363,27.32Z" style="fill-rule:nonzero;"/><path d="M3982.85,5454.19c51.875,0 97.612,-11.658 136.925,-34.47c40.17,-23.306 72.048,-56.099 94.921,-99.128c0.048,-0.089 0.092,-0.179 0.141,-0.264c21.676,-41.346 33.311,-89.938 33.311,-146.574l-0,-412.151c-0,-29.232 -23.695,-52.929 -52.926,-52.929l-116.519,-0c-29.231,-0 -52.926,23.697 -52.926,52.929l0,412.151c0,17.056 -3.223,31.328 -12.588,41.61c-7.303,8.022 -16.818,11.442 -28.14,11.442c-11.454,-0 -20.886,-3.731 -28.158,-11.913c-9.797,-11.017 -13.011,-26.49 -13.011,-45.379l0,-407.911c0,-29.232 -23.695,-52.929 -52.926,-52.929l-120.915,-0c-29.231,-0 -52.926,23.697 -52.926,52.929l-0,414.506c-0,56.589 11.885,105.586 34.291,146.17c23.41,42.387 55.34,75.067 95.999,97.785c39.699,22.661 84.808,34.126 135.447,34.126Zm0,-52.929c-40.891,-0 -77.386,-8.95 -109.484,-27.32c-32.097,-17.899 -57.16,-43.806 -75.627,-77.249c-18.467,-33.443 -27.7,-73.951 -27.7,-120.583l-0,-414.506l120.915,0l0,407.911c0,33.914 8.794,60.763 26.382,80.546c17.588,19.784 40.012,29.675 67.713,29.675c27.261,0 49.685,-9.42 67.273,-28.733c17.587,-19.312 26.381,-45.218 26.381,-77.248l0,-412.151l116.519,0l-0,412.151c-0,47.103 -9.234,87.611 -27.261,121.996c-18.027,33.914 -43.09,59.821 -74.748,78.191c-31.658,18.37 -68.592,27.32 -110.363,27.32Z" style="fill:#fff;"/><path d="M3982.85,5401.25c-40.891,-0 -77.386,-8.95 -109.484,-27.32c-32.097,-17.899 -57.16,-43.806 -75.627,-77.249c-18.467,-33.443 -27.7,-73.951 -27.7,-120.583l-0,-414.506l120.915,0l0,407.911c0,33.914 8.794,60.763 26.382,80.546c17.588,19.783 40.012,29.675 67.713,29.675c27.261,0 49.685,-9.421 67.273,-28.733c17.587,-19.312 26.381,-45.219 26.381,-77.248l0,-412.151l116.519,0l-0,412.151c-0,47.102 -9.234,87.611 -27.261,121.996c-18.027,33.914 -43.09,59.821 -74.748,78.191c-31.658,18.37 -68.592,27.32 -110.363,27.32Z" style="fill-rule:nonzero;stroke:#fff;stroke-width:4.1px;"/></g><g><path d="M4455.56,5402.12c-35.615,0 -69.032,-7.065 -100.69,-21.196c-28.681,-12.803 -52.306,-27.923 -70.557,-45.36c-1.895,-1.814 -5.51,-5.511 -5.51,-5.511l65.238,-93.528c-0,0 3.478,3.415 5.267,5.083c7.774,7.225 16.229,13.942 25.349,20.145c27.7,18.842 55.841,28.262 84.86,28.262c23.744,0 42.651,-7.065 55.841,-20.725c13.631,-13.66 20.226,-30.617 20.226,-50.871c0,-16.015 -3.517,-29.675 -10.552,-40.038c-7.035,-10.833 -15.39,-19.312 -25.063,-26.377c-9.673,-7.066 -18.467,-12.247 -25.502,-16.015l-68.592,-36.741c-19.786,-10.833 -38.693,-23.08 -57.16,-37.682c-18.028,-14.602 -32.977,-32.972 -44.409,-54.639c-11.432,-21.668 -17.148,-48.516 -17.148,-80.546c-0,-35.327 7.474,-65.944 22.424,-92.322c14.949,-26.377 36.055,-47.103 63.316,-61.705c27.261,-14.602 59.358,-22.138 95.853,-22.138c34.736,-0 65.514,6.123 92.335,17.899c23.045,10.118 42.514,20.928 58.418,32.138c2.607,1.837 7.536,5.544 7.536,5.544l-68.196,93.985c0,-0 -15.385,-11.715 -23.699,-16.736c-24.184,-14.602 -47.927,-21.667 -71.67,-21.667c-21.106,-0 -37.374,5.652 -48.806,17.428c-11.432,11.776 -17.148,25.906 -17.148,42.864c-0,10.833 2.198,20.254 6.595,28.261c4.397,8.479 10.992,15.544 19.786,22.139c8.794,6.594 18.907,13.188 30.339,19.312l69.472,36.74c11.871,6.123 24.622,13.66 38.253,23.08c13.63,9.421 27.261,21.197 40.012,35.799c12.751,14.131 23.743,31.559 31.658,51.813c8.354,20.254 12.311,44.277 12.311,71.596c0,36.27 -7.914,68.771 -23.304,97.503c-15.389,28.733 -37.373,51.813 -65.953,68.771c-28.141,16.957 -61.997,25.435 -101.13,25.435Z" style="fill-rule:nonzero;"/><path d="M4455.56,5455.07c49.699,-0 92.529,-11.432 128.289,-32.935c37.027,-22.006 65.501,-51.959 85.45,-89.212c19.347,-36.114 29.574,-76.901 29.574,-122.492c0,-34.889 -5.536,-65.501 -16.159,-91.412c-10.28,-26.156 -24.627,-48.747 -41.168,-67.155c-15.763,-17.993 -32.63,-32.529 -49.488,-44.182c-15.639,-10.81 -30.286,-19.454 -43.916,-26.491c0.101,0.052 -69.01,-36.5 -69.01,-36.5c-8.842,-4.739 -16.669,-9.84 -23.475,-14.946c-1.829,-1.37 -3.641,-2.397 -4.555,-4.159c-0.194,-0.372 -0.392,-0.739 -0.594,-1.107c-0.422,-0.772 -0.062,-1.747 -0.062,-2.788c0,-2.346 0.616,-4.367 2.199,-5.997c2.409,-2.482 6.384,-1.366 10.83,-1.366c14.742,0 29.296,4.979 44.312,14.047c6.683,4.036 18.995,13.537 18.995,13.537c11.335,8.629 25.673,12.327 39.77,10.254c14.096,-2.077 26.764,-9.75 35.131,-21.281l68.197,-93.984c16.959,-23.373 12.052,-56.02 -11.023,-73.382c-0,0 -5.796,-4.347 -8.86,-6.509c-18.428,-12.987 -40.936,-25.615 -67.634,-37.339c-33.021,-14.494 -70.848,-22.364 -113.612,-22.364c-46.054,-0 -86.444,9.985 -120.845,28.412c-36.332,19.463 -64.446,47.108 -84.369,82.265c-19.197,33.867 -29.305,73.057 -29.305,118.417c-0,41.922 8.301,76.886 23.264,105.247c14.883,28.21 34.432,52.053 57.903,71.069c0.163,0.127 0.325,0.259 0.488,0.386c20.864,16.5 42.215,30.348 64.569,42.59c0.141,0.076 0.286,0.156 0.427,0.231l68.592,36.74c5.316,2.85 11.964,6.76 19.276,12.101c4.577,3.344 8.561,7.334 11.889,12.463c0.198,0.302 0.4,0.603 0.603,0.9c1.767,2.605 1.415,6.288 1.415,10.311c0,5.29 -1.204,9.915 -4.766,13.485c-0.202,0.208 -0.404,0.41 -0.607,0.618c-4.062,4.211 -10.456,4.564 -17.768,4.564c-18.92,-0 -37.035,-6.811 -55.093,-19.096c-6.859,-4.668 -13.226,-9.708 -19.074,-15.143c-1.434,-1.333 -4.217,-4.075 -4.217,-4.075c-11.111,-10.918 -26.474,-16.387 -41.986,-14.95c-15.512,1.441 -29.605,9.647 -38.517,22.426l-65.238,93.527c-14.545,20.852 -12.205,49.105 5.571,67.282c0,-0 4.454,4.541 6.785,6.769c22.178,21.196 50.696,39.872 85.551,55.43c38.442,17.16 79.013,25.794 122.261,25.794Zm0,-52.93c-35.615,0 -69.032,-7.065 -100.69,-21.196c-28.681,-12.803 -52.306,-27.923 -70.557,-45.36c-1.895,-1.814 -5.51,-5.511 -5.51,-5.511l65.238,-93.528c-0,0 3.478,3.415 5.267,5.083c7.774,7.225 16.229,13.942 25.349,20.146c27.7,18.841 55.841,28.261 84.86,28.261c23.744,0 42.651,-7.065 55.841,-20.725c13.631,-13.66 20.226,-30.617 20.226,-50.871c0,-16.015 -3.517,-29.675 -10.552,-40.038c-7.035,-10.833 -15.39,-19.312 -25.063,-26.377c-9.673,-7.066 -18.467,-12.247 -25.502,-16.015l-68.592,-36.74c-19.786,-10.834 -38.693,-23.081 -57.16,-37.683c-18.028,-14.602 -32.977,-32.972 -44.409,-54.639c-11.432,-21.667 -17.148,-48.516 -17.148,-80.546c-0,-35.327 7.474,-65.944 22.424,-92.322c14.949,-26.377 36.055,-47.103 63.316,-61.705c27.261,-14.601 59.358,-22.138 95.853,-22.138c34.736,0 65.514,6.123 92.335,17.899c23.045,10.118 42.514,20.928 58.418,32.139c2.607,1.837 7.536,5.544 7.536,5.544l-68.196,93.984c0,-0 -15.385,-11.715 -23.699,-16.736c-24.184,-14.602 -47.927,-21.667 -71.67,-21.667c-21.106,-0 -37.374,5.652 -48.806,17.428c-11.432,11.776 -17.148,25.907 -17.148,42.864c-0,10.833 2.198,20.254 6.595,28.261c4.397,8.479 10.992,15.544 19.786,22.139c8.794,6.594 18.907,13.189 30.339,19.312l69.472,36.74c11.871,6.124 24.622,13.66 38.253,23.081c13.63,9.42 27.261,21.196 40.012,35.798c12.751,14.131 23.743,31.559 31.658,51.813c8.354,20.254 12.311,44.277 12.311,71.596c0,36.27 -7.914,68.771 -23.304,97.503c-15.389,28.733 -37.373,51.814 -65.953,68.771c-28.141,16.957 -61.997,25.435 -101.13,25.435Z" style="fill:#fff;"/><path d="M4455.56,5402.12c-35.615,0 -69.032,-7.065 -100.69,-21.196c-28.681,-12.803 -52.306,-27.923 -70.557,-45.36c-1.895,-1.814 -5.51,-5.511 -5.51,-5.511l65.238,-93.528c-0,0 3.478,3.415 5.267,5.083c7.774,7.225 16.229,13.942 25.349,20.145c27.7,18.842 55.841,28.262 84.86,28.262c23.744,0 42.651,-7.065 55.841,-20.725c13.631,-13.66 20.226,-30.617 20.226,-50.871c0,-16.015 -3.517,-29.675 -10.552,-40.038c-7.035,-10.833 -15.39,-19.312 -25.063,-26.377c-9.673,-7.066 -18.467,-12.247 -25.502,-16.015l-68.592,-36.741c-19.786,-10.833 -38.693,-23.08 -57.16,-37.682c-18.028,-14.602 -32.977,-32.972 -44.409,-54.639c-11.432,-21.668 -17.148,-48.516 -17.148,-80.546c-0,-35.327 7.474,-65.944 22.424,-92.322c14.949,-26.377 36.055,-47.103 63.316,-61.705c27.261,-14.602 59.358,-22.138 95.853,-22.138c34.736,-0 65.514,6.123 92.335,17.899c23.045,10.118 42.514,20.928 58.418,32.138c2.607,1.837 7.536,5.544 7.536,5.544l-68.196,93.985c0,-0 -15.385,-11.715 -23.699,-16.736c-24.184,-14.602 -47.927,-21.667 -71.67,-21.667c-21.106,-0 -37.374,5.652 -48.806,17.428c-11.432,11.776 -17.148,25.906 -17.148,42.864c-0,10.833 2.198,20.254 6.595,28.261c4.397,8.479 10.992,15.544 19.786,22.139c8.794,6.594 18.907,13.188 30.339,19.312l69.472,36.74c11.871,6.123 24.622,13.66 38.253,23.08c13.63,9.421 27.261,21.197 40.012,35.799c12.751,14.131 23.743,31.559 31.658,51.813c8.354,20.254 12.311,44.277 12.311,71.596c0,36.27 -7.914,68.771 -23.304,97.503c-15.389,28.733 -37.373,51.813 -65.953,68.771c-28.141,16.957 -61.997,25.435 -101.13,25.435Z" style="fill-rule:nonzero;stroke:#fff;stroke-width:4.1px;"/></g><g><path d="M4677.56,4874.64l0,-112.576l405.837,0l0,112.576l-142.46,0l-0,512.48l-120.476,-0l-0,-512.48l-142.901,0Z" style="fill-rule:nonzero;"/><path d="M4624.62,4874.64c0,29.232 23.695,52.93 52.926,52.93l89.975,-0l-0,459.55c-0,29.232 23.695,52.929 52.925,52.929l120.476,0c29.231,0 52.926,-23.697 52.926,-52.929l0,-459.55l89.535,-0c29.231,-0 52.926,-23.698 52.926,-52.93l-0,-112.576c-0,-29.232 -23.695,-52.929 -52.926,-52.929l-405.837,-0c-29.231,-0 -52.926,23.697 -52.926,52.929l0,112.576Zm52.926,0l0,-112.576l405.837,0l0,112.576l-142.461,0l0,512.48l-120.476,-0l0,-512.48l-142.9,0Z" style="fill:#fff;"/><path d="M4677.56,4874.64l0,-112.576l405.837,0l0,112.576l-142.46,0l-0,512.48l-120.476,-0l-0,-512.48l-142.901,0Z" style="fill-rule:nonzero;stroke:#fff;stroke-width:4.1px;"/></g></g></g></g><defs><linearGradient id="_Linear1" x1="0" y1="0" x2="1" y2="0" gradientUnits="userSpaceOnUse" gradientTransform="matrix(-4.05841,-1719.41,1719.41,-4.05841,3119.11,2277.24)"><stop offset="0" style="stop-color:#fefffe;stop-opacity:1"/><stop offset="0.85" style="stop-color:#d4ffff;stop-opacity:1"/><stop offset="1" style="stop-color:#d4ffff;stop-opacity:1"/></linearGradient><radialGradient id="_Radial2" cx="0" cy="0" r="1" gradientUnits="userSpaceOnUse" gradientTransform="matrix(-623.493,57.9516,57.9516,623.493,3249.96,2047.76)"><stop offset="0" style="stop-color:#666d6f;stop-opacity:1"/><stop offset="0" style="stop-color:#666d6f;stop-opacity:1"/><stop offset="0.15" style="stop-color:#4e5455;stop-opacity:1"/><stop offset="0.4" style="stop-color:#2d3031;stop-opacity:1"/><stop offset="0.63" style="stop-color:#141516;stop-opacity:1"/><stop offset="0.84" style="stop-color:#050606;stop-opacity:1"/><stop offset="1" style="stop-color:#000;stop-opacity:1"/></radialGradient><radialGradient id="_Radial3" cx="0" cy="0" r="1" gradientUnits="userSpaceOnUse" gradientTransform="matrix(-321.837,29.9137,29.9137,321.837,4275.24,1577.6)"><stop offset="0" style="stop-color:#555b5c;stop-opacity:1"/><stop offset="0" style="stop-color:#666d6f;stop-opacity:1"/><stop offset="0.15" style="stop-color:#4e5455;stop-opacity:1"/><stop offset="0.4" style="stop-color:#2d3031;stop-opacity:1"/><stop offset="0.63" style="stop-color:#141516;stop-opacity:1"/><stop offset="0.84" style="stop-color:#050606;stop-opacity:1"/><stop offset="1" style="stop-color:#000;stop-opacity:1"/></radialGradient></defs></svg>