<?xml version="1.0" encoding="UTF-8" standalone="no"?><!DOCTYPE svg PUBLIC "-//W3C//DTD SVG 1.1//EN" "http://www.w3.org/Graphics/SVG/1.1/DTD/svg11.dtd"><svg width="100%" height="100%" viewBox="0 0 5782 1563" version="1.1" xmlns="http://www.w3.org/2000/svg" xmlns:xlink="http://www.w3.org/1999/xlink" xml:space="preserve" xmlns:serif="http://www.serif.com/" style="fill-rule:evenodd;clip-rule:evenodd;stroke-linejoin:round;stroke-miterlimit:2;"><g><path d="M550.8,1069.91c-36.503,-0 -70.757,-7.256 -102.743,-21.767c-31.616,-14.511 -59.843,-34.272 -83.932,-59.671c-24.08,-25.399 -43.28,-54.828 -56.825,-88.702c-13.553,-33.866 -20.7,-69.746 -20.7,-108.048c-0,-38.302 6.776,-74.589 20.7,-108.048c13.545,-33.874 32.745,-63.303 56.825,-88.702c24.089,-25.399 52.316,-45.151 83.932,-59.671c31.615,-14.511 65.86,-21.767 102.743,-21.767c32.745,0 63.982,5.638 93.338,17.33c27.315,10.509 51.693,25.553 73.451,44.473c1.626,1.419 4.834,4.31 4.834,4.31l-64.867,78.33c0,0 -2.042,-1.843 -3.081,-2.747c-5.268,-4.581 -10.843,-8.945 -16.734,-13.083c-24.089,-16.933 -51.937,-25.399 -83.173,-25.399c-30.115,-0 -57.213,7.653 -81.293,23.384c-24.089,15.722 -43.28,36.684 -57.584,62.887c-13.924,26.213 -21.08,55.642 -21.08,88.296c0,32.257 7.156,61.289 21.08,87.899c13.924,26.609 33.116,47.572 57.584,63.294c24.08,15.722 51.178,23.384 81.293,23.384c31.236,0 58.705,-8.466 82.793,-25.399c6.524,-4.581 12.686,-9.433 18.478,-14.565c1.229,-1.085 3.624,-3.289 3.624,-3.289l62.96,80.344c-0,0 -3.036,2.648 -4.563,3.931c-22.147,18.703 -46.642,33.522 -74.101,44.455c-28.977,12.496 -60.214,18.541 -92.959,18.541Z" style="fill-rule:nonzero;stroke:#fff;stroke-width:6.25px;"/><path d="M3714.73,1068.89c-17.02,0 -31.265,-5.734 -42.735,-17.204c-11.469,-11.47 -17.204,-25.715 -17.204,-42.735c-0,-17.019 5.735,-31.264 17.204,-42.734c11.47,-11.47 25.715,-17.205 42.735,-17.205c17.389,0 31.727,5.735 43.012,17.205c11.284,11.47 16.927,25.715 16.927,42.734c-0,17.02 -5.643,31.265 -16.927,42.735c-11.285,11.47 -25.623,17.204 -43.012,17.204Z" style="fill-rule:nonzero;stroke:#fff;stroke-width:6.25px;"/><path d="M4128.75,1031.15c-16.65,12.58 -35.427,22.015 -56.331,28.305c-20.905,6.29 -42.642,9.434 -65.212,9.434c-37.369,0 -70.299,-7.769 -98.788,-23.309c-28.49,-15.54 -50.69,-36.907 -66.599,-64.102c-15.91,-27.194 -23.865,-58.366 -23.865,-93.516c0,-33.669 7.77,-63.546 23.31,-89.631c15.539,-26.084 36.537,-46.712 62.991,-61.881c26.455,-15.17 55.777,-22.755 87.966,-22.755c32.93,0 62.344,7.492 88.244,22.477c25.9,14.985 46.342,35.427 61.327,61.327c14.984,25.899 22.477,55.314 22.477,88.243l-0,33.855l-254.186,-0.555c5.18,19.98 15.909,36.259 32.189,48.839c17.39,14.06 39.775,21.09 67.154,21.09c21.09,-0 40.144,-4.255 57.164,-12.765c5.18,-2.59 9.99,-5.365 14.43,-8.325c-0,0 15.91,21.09 47.729,63.269Zm-53.279,-176.487c-5.55,-19.98 -15.632,-35.705 -30.247,-47.174c-14.615,-11.47 -32.652,-17.205 -54.112,-17.205c-20.349,-0 -38.017,5.827 -53.001,17.482c-14.985,11.655 -25.437,27.657 -31.357,48.007c-0,-0 56.239,-0.37 168.717,-1.11Z" style="fill-rule:nonzero;stroke:#fff;stroke-width:6.25px;"/><path d="M4367.4,1066.67c-30.709,-0 -58.644,-7.955 -83.803,-23.865c-25.16,-15.91 -45.232,-37.092 -60.217,-63.547c-14.985,-26.454 -22.477,-55.776 -22.477,-87.966c0,-32.189 7.492,-61.604 22.477,-88.243c14.985,-26.64 35.057,-47.822 60.217,-63.547c25.159,-15.725 53.094,-23.587 83.803,-23.587c21.46,0 41.07,3.792 58.83,11.377c17.759,7.585 32.929,18.038 45.509,31.357l-0,-33.854l83.249,-0l-0,332.995l-83.249,-0l-0,-33.855c-12.58,13.32 -27.75,23.772 -45.509,31.357c-17.76,7.585 -37.37,11.378 -58.83,11.378Zm11.655,-84.914c16.28,-0 31.08,-4.07 44.4,-12.21c13.319,-8.14 23.957,-19.055 31.912,-32.744c7.954,-13.69 11.932,-28.86 11.932,-45.51c-0,-16.649 -3.978,-31.819 -11.932,-45.509c-7.955,-13.69 -18.593,-24.605 -31.912,-32.745c-13.32,-8.139 -28.12,-12.209 -44.4,-12.209c-16.279,-0 -31.079,4.07 -44.399,12.209c-13.32,8.14 -23.957,19.055 -31.912,32.745c-7.955,13.69 -11.932,28.86 -11.932,45.509c-0,16.65 3.977,31.82 11.932,45.51c7.955,13.689 18.592,24.604 31.912,32.744c13.32,8.14 28.12,12.21 44.399,12.21Z" style="fill-rule:nonzero;stroke:#fff;stroke-width:6.25px;"/><path d="M4845.8,835.795c-2.59,-4.81 -5.55,-9.435 -8.88,-13.875c-11.1,-14.429 -27.009,-21.644 -47.729,-21.644c-16.65,-0 -31.542,5.642 -44.677,16.927c-13.135,11.285 -19.702,28.952 -19.702,53.002l-0,187.587l-96.569,-0l0,-332.995l86.579,-0l0,36.629c11.84,-15.539 26.455,-27.379 43.844,-35.519c17.39,-8.14 36.075,-12.21 56.054,-12.21c23.68,0 45.787,5.642 66.322,16.927c20.535,11.285 37.277,27.842 50.227,49.672c-0,-0 -28.49,18.5 -85.469,55.499Z" style="fill-rule:nonzero;stroke:#fff;stroke-width:6.25px;"/><path d="M5034.5,1057.79l0,-256.406l-62.159,-0l-0,-76.589l63.824,-0l-0,-110.998l93.239,-0l-0,110.998l66.043,-0l0,76.589l-64.378,-0l-0,256.406l-96.569,-0Z" style="fill-rule:nonzero;stroke:#fff;stroke-width:6.25px;"/><path d="M5245.4,1057.79l-0,-532.792l96.568,-0l0,224.771c11.84,-11.839 25.437,-20.812 40.792,-26.917c15.355,-6.105 31.727,-9.157 49.117,-9.157c23.679,0 45.787,5.642 66.321,16.927c20.535,11.285 37.185,27.75 49.949,49.394c12.765,21.645 19.148,47.822 19.148,78.532l-0,199.242l-96.569,-0l0,-186.477c0,-18.5 -5.55,-34.965 -16.65,-49.395c-11.099,-14.429 -27.009,-21.644 -47.729,-21.644c-16.65,-0 -31.542,5.642 -44.677,16.927c-13.134,11.285 -19.702,28.952 -19.702,53.002l0,187.587l-96.568,-0Z" style="fill-rule:nonzero;stroke:#fff;stroke-width:6.25px;"/><path d="M1049.84,1069.91c-36.503,-0 -70.748,-7.256 -102.734,-21.767c-31.625,-14.511 -59.843,-34.272 -83.923,-59.671c-24.089,-25.399 -43.28,-54.828 -56.834,-88.702c-13.544,-33.866 -20.7,-69.746 -20.7,-108.048c-0,-38.302 6.776,-74.589 20.7,-108.048c13.554,-33.874 32.745,-63.303 56.834,-88.702c24.08,-25.399 52.298,-45.151 83.923,-59.671c31.624,-14.511 65.869,-21.767 102.734,-21.767c36.866,0 71.11,7.256 102.735,21.767c31.986,14.52 59.906,34.272 83.941,59.671c24.125,25.399 42.919,54.828 56.834,88.702c13.553,33.866 20.33,69.746 20.33,108.048c-0,38.302 -6.777,74.589 -20.33,108.048c-13.554,33.874 -32.709,63.303 -56.834,88.702c-24.035,25.399 -52.316,45.16 -83.941,59.671c-31.625,14.511 -65.869,21.767 -102.735,21.767Zm0,-103.611c29.727,-0 56.834,-7.663 80.959,-23.385c24.035,-15.721 43.281,-36.693 57.557,-63.303c14.276,-26.61 21.414,-56.039 21.414,-87.889c0,-32.257 -7.138,-61.686 -21.414,-88.296c-14.276,-26.203 -33.522,-47.175 -57.557,-62.897c-24.125,-15.722 -51.232,-23.384 -80.959,-23.384c-30.088,0 -57.195,7.662 -81.32,23.384c-24.035,15.722 -43.28,36.694 -57.195,62.897c-13.915,26.203 -21.044,55.641 -21.044,88.296c-0,32.257 7.129,61.279 21.044,87.889c13.915,26.61 33.16,47.582 57.195,63.303c24.125,15.722 51.232,23.385 81.32,23.385Z" style="fill-rule:nonzero;stroke:#fff;stroke-width:6.25px;"/><path d="M1359.94,1420.12l205.289,-301.373c8.764,-14.258 14.818,-24.965 17.8,-33.874c2.982,-8.918 4.698,-17.837 4.698,-24.966c0,-19.616 -7.138,-37.452 -21.685,-51.719c-14.547,-14.268 -32.167,-21.397 -53.22,-21.397c-21.143,0 -38.762,7.129 -52.948,21.397c-13.554,13.553 -20.692,30.314 -21.415,48.792l0,2.927l-86.199,-1.789c-0,0 -0,-2.141 0.09,-3.189c0.452,-27.215 7.59,-51.178 21.324,-73.487c14.276,-23.185 33.522,-42.801 57.918,-57.069c24.396,-14.267 51.593,-21.396 81.772,-21.396c29.637,0 56.744,7.129 81.501,21.396c24.668,14.268 44.365,32.104 59.184,57.069c14.818,23.177 22.227,49.931 22.227,78.465c0,17.828 -2.982,33.875 -9.307,49.931c-6.324,16.047 -16.444,33.875 -30.178,53.491l-122.071,172.977l168.965,0l0,82.034l-323.745,0l-0,1.78Z" style="fill-rule:nonzero;stroke:#fff;stroke-width:6.25px;"/><path d="M1699.77,619.2l-0,-96.355l347.418,-0l0,96.355l-121.98,0l-0,438.66l-103.096,0l-0,-438.66l-122.342,0Z" style="fill-rule:nonzero;stroke:#fff;stroke-width:6.25px;"/><path d="M2114.14,1057.86l0,-535.015l152.431,-0c36.142,-0 67.405,7.662 92.976,22.977c25.571,15.325 45.539,35.881 59.093,61.686c13.553,25.399 20.691,53.626 20.691,84.266c0,27.821 -5.602,52.813 -16.896,75.393c-11.295,22.58 -27.107,41.121 -47.799,56.039l102.374,181.923l-79.423,52.731l-111.048,-203.201l-75.266,-0l-0,203.201l-97.133,0Zm96.771,-292.708l53.852,0c17.981,0 32.709,-3.632 44.365,-10.888c11.295,-7.255 19.969,-16.526 25.571,-27.82c5.692,-11.286 8.313,-22.978 8.313,-34.67c-0,-20.962 -7.138,-38.302 -21.505,-52.009c-14.276,-13.707 -33.07,-20.565 -56.382,-20.565l-53.852,0l-0,145.952l-0.362,0Z" style="fill-rule:nonzero;stroke:#fff;stroke-width:6.25px;"/><path d="M2697.12,1069.95c-34.968,-0 -66.231,-7.662 -93.7,-23.384c-27.468,-15.316 -48.882,-37.489 -64.694,-66.123c-15.813,-28.624 -23.764,-63.294 -23.764,-103.204l0,-354.801l103.548,0l-0,349.154c-0,29.031 7.499,52.008 22.589,68.941c14.999,16.933 34.245,25.399 57.918,25.399c23.312,0 42.558,-8.06 57.647,-24.595c14.999,-16.526 22.499,-38.699 22.499,-66.122l-0,-352.777l99.753,0l-0,352.777c-0,40.317 -7.861,74.995 -23.312,104.424c-15.451,29.032 -36.865,51.205 -63.972,66.927c-27.107,15.722 -58.731,23.384 -94.512,23.384Z" style="fill-rule:nonzero;stroke:#fff;stroke-width:6.25px;"/><path d="M3101.73,1070.7c-30.45,-0 -59.093,-6.045 -86.11,-18.144c-24.577,-10.951 -44.816,-23.899 -60.448,-38.826c-1.626,-1.545 -4.698,-4.716 -4.698,-4.716l55.84,-80.055c-0,-0 2.981,2.927 4.517,4.355c6.596,6.18 13.915,11.936 21.686,17.24c23.673,16.128 47.798,24.197 72.646,24.197c20.33,-0 36.504,-6.054 47.798,-17.746c11.656,-11.692 17.258,-26.203 17.258,-43.543c0,-13.707 -2.981,-25.399 -9.035,-34.272c-5.964,-9.27 -13.102,-16.526 -21.415,-22.57c-8.312,-6.054 -15.812,-10.491 -21.866,-13.707l-58.641,-31.453c-16.987,-9.271 -33.16,-19.752 -48.973,-32.257c-15.451,-12.497 -28.191,-28.219 -37.949,-46.769c-9.849,-18.541 -14.728,-41.527 -14.728,-68.941c-0,-30.233 6.415,-56.446 19.246,-79.017c12.74,-22.579 30.811,-40.325 54.123,-52.822c23.402,-12.496 50.87,-18.947 82.043,-18.947c29.727,-0 56.111,5.24 79.061,15.324c19.698,8.656 36.414,17.909 49.967,27.504c2.259,1.573 6.506,4.744 6.506,4.744l-58.37,80.444c-0,0 -13.192,-10.02 -20.33,-14.321c-20.692,-12.497 -41.022,-18.541 -61.352,-18.541c-18.071,-0 -31.986,4.834 -41.744,14.917c-9.759,10.075 -14.638,22.174 -14.638,36.685c0,9.27 1.807,17.339 5.602,24.188c3.795,7.256 9.397,13.31 16.897,18.948c7.59,5.647 16.264,11.294 26.022,16.535l59.454,31.444c10.12,5.24 21.053,11.692 32.709,19.761c11.656,8.059 23.402,18.143 34.245,30.639c10.933,12.099 20.33,27.017 27.107,44.347c7.138,17.339 10.572,37.904 10.572,61.288c-0,31.038 -6.777,58.858 -19.969,83.453c-13.192,24.595 -31.986,44.347 -56.472,58.867c-24.035,14.511 -53.039,21.767 -86.561,21.767Z" style="fill-rule:nonzero;stroke:#fff;stroke-width:6.25px;"/><path d="M3291.75,619.2l0,-96.355l347.419,-0l-0,96.355l-121.981,0l0,438.66l-103.096,0l0,-438.66l-122.342,0Z" style="fill-rule:nonzero;stroke:#fff;stroke-width:6.25px;"/></g><rect x="-1093.75" y="11.159" width="2262.85" height="2262.85" style="fill-opacity:0;"/><rect x="843.203" y="724.043" width="4945.25" height="1267.78" style="fill-opacity:0;"/></svg>