<?xml version="1.0" encoding="UTF-8" standalone="no"?><!DOCTYPE svg PUBLIC "-//W3C//DTD SVG 1.1//EN" "http://www.w3.org/Graphics/SVG/1.1/DTD/svg11.dtd"><svg width="100%" height="100%" viewBox="0 0 3829 1563" version="1.1" xmlns="http://www.w3.org/2000/svg" xmlns:xlink="http://www.w3.org/1999/xlink" xml:space="preserve" xmlns:serif="http://www.serif.com/" style="fill-rule:evenodd;clip-rule:evenodd;stroke-linejoin:round;stroke-miterlimit:2;"><g><path d="M496.321,1071.68c-36.503,-0 -70.757,-7.256 -102.743,-21.767c-31.616,-14.511 -59.843,-34.272 -83.932,-59.671c-24.08,-25.399 -43.281,-54.828 -56.825,-88.703c-13.553,-33.865 -20.7,-69.745 -20.7,-108.047c-0,-38.302 6.776,-74.589 20.7,-108.048c13.544,-33.874 32.745,-63.303 56.825,-88.702c24.089,-25.399 52.316,-45.151 83.932,-59.671c31.615,-14.512 65.86,-21.767 102.743,-21.767c32.745,-0 63.981,5.638 93.338,17.33c27.315,10.509 51.693,25.553 73.45,44.473c1.627,1.419 4.834,4.31 4.834,4.31l-64.866,78.33c-0,-0 -2.042,-1.843 -3.081,-2.747c-5.268,-4.581 -10.843,-8.945 -16.734,-13.084c-24.089,-16.932 -51.937,-25.399 -83.173,-25.399c-30.115,0 -57.213,7.654 -81.293,23.385c-24.089,15.721 -43.281,36.684 -57.584,62.887c-13.924,26.213 -21.08,55.641 -21.08,88.296c0,32.257 7.156,61.289 21.08,87.898c13.924,26.61 33.116,47.573 57.584,63.295c24.08,15.722 51.178,23.384 81.293,23.384c31.236,-0 58.704,-8.467 82.793,-25.399c6.524,-4.581 12.686,-9.433 18.478,-14.566c1.229,-1.084 3.623,-3.289 3.623,-3.289l62.96,80.345c0,-0 -3.036,2.647 -4.563,3.93c-22.146,18.704 -46.641,33.523 -74.1,44.456c-28.978,12.496 -60.214,18.541 -92.959,18.541Z" style="fill:#fff;fill-rule:nonzero;stroke:#000;stroke-width:3.54px;"/><path d="M995.357,1071.68c-36.504,-0 -70.749,-7.256 -102.735,-21.767c-31.624,-14.511 -59.842,-34.272 -83.922,-59.671c-24.089,-25.399 -43.281,-54.828 -56.834,-88.703c-13.544,-33.865 -20.701,-69.745 -20.701,-108.047c0,-38.302 6.777,-74.589 20.701,-108.048c13.553,-33.874 32.745,-63.303 56.834,-88.702c24.08,-25.399 52.298,-45.151 83.922,-59.671c31.625,-14.512 65.87,-21.767 102.735,-21.767c36.865,-0 71.11,7.255 102.735,21.767c31.986,14.52 59.906,34.272 83.941,59.671c24.125,25.399 42.919,54.828 56.833,88.702c13.554,33.865 20.331,69.746 20.331,108.048c-0,38.302 -6.777,74.589 -20.331,108.047c-13.553,33.875 -32.708,63.304 -56.833,88.703c-24.035,25.399 -52.317,45.16 -83.941,59.671c-31.625,14.511 -65.87,21.767 -102.735,21.767Zm0,-103.612c29.727,0 56.834,-7.662 80.959,-23.384c24.035,-15.722 43.281,-36.693 57.557,-63.303c14.276,-26.61 21.414,-56.039 21.414,-87.889c0,-32.257 -7.138,-61.686 -21.414,-88.296c-14.276,-26.203 -33.522,-47.175 -57.557,-62.897c-24.125,-15.722 -51.232,-23.384 -80.959,-23.384c-30.088,0 -57.195,7.662 -81.32,23.384c-24.035,15.722 -43.281,36.694 -57.195,62.897c-13.915,26.203 -21.044,55.641 -21.044,88.296c-0,32.257 7.129,61.279 21.044,87.889c13.914,26.61 33.16,47.581 57.195,63.303c24.125,15.722 51.232,23.384 81.32,23.384Z" style="fill:#fff;fill-rule:nonzero;stroke:#000;stroke-width:3.54px;"/><path d="M1305.46,1421.89l205.289,-301.373c8.764,-14.258 14.818,-24.965 17.8,-33.874c2.981,-8.919 4.698,-17.837 4.698,-24.966c0,-19.616 -7.138,-37.452 -21.685,-51.72c-14.548,-14.267 -32.167,-21.396 -53.22,-21.396c-21.143,0 -38.763,7.129 -52.949,21.396c-13.553,13.554 -20.691,30.315 -21.414,48.793l0,2.927l-86.199,-1.789c-0,0 -0,-2.141 0.09,-3.189c0.452,-27.216 7.59,-51.178 21.324,-73.487c14.276,-23.185 33.522,-42.802 57.918,-57.069c24.396,-14.267 51.593,-21.396 81.772,-21.396c29.637,0 56.744,7.129 81.501,21.396c24.667,14.267 44.365,32.104 59.183,57.069c14.819,23.176 22.228,49.931 22.228,78.465c-0,17.827 -2.982,33.875 -9.307,49.931c-6.325,16.047 -16.444,33.874 -30.179,53.491l-122.07,172.977l168.965,0l0,82.034l-323.745,0l-0,1.78Z" style="fill:#fff;fill-rule:nonzero;stroke:#000;stroke-width:3.54px;"/><path d="M1645.29,620.971l-0,-96.355l347.418,-0l0,96.355l-121.98,0l-0,438.66l-103.097,0l0,-438.66l-122.341,0Z" style="fill:#fff;fill-rule:nonzero;stroke:#000;stroke-width:3.54px;"/><path d="M2059.66,1059.63l-0,-535.015l152.43,-0c36.143,-0 67.406,7.662 92.977,22.977c25.57,15.324 45.539,35.88 59.092,61.686c13.554,25.399 20.692,53.626 20.692,84.266c-0,27.821 -5.602,52.813 -16.897,75.393c-11.294,22.58 -27.106,41.121 -47.798,56.039l102.373,181.922l-79.423,52.732l-111.047,-203.201l-75.266,-0l-0,203.201l-97.133,0Zm96.771,-292.708l53.852,0c17.981,0 32.709,-3.632 44.365,-10.888c11.294,-7.255 19.969,-16.526 25.571,-27.82c5.692,-11.286 8.312,-22.978 8.312,-34.67c0,-20.963 -7.138,-38.302 -21.504,-52.009c-14.276,-13.707 -33.071,-20.565 -56.382,-20.565l-53.852,0l-0,145.952l-0.362,0Z" style="fill:#fff;fill-rule:nonzero;stroke:#000;stroke-width:3.54px;"/><path d="M2642.64,1071.72c-34.967,-0 -66.23,-7.662 -93.699,-23.384c-27.468,-15.316 -48.882,-37.489 -64.695,-66.123c-15.812,-28.625 -23.763,-63.294 -23.763,-103.204l-0,-354.801l103.548,-0l-0,349.153c-0,29.032 7.499,52.009 22.589,68.942c14.999,16.933 34.245,25.399 57.918,25.399c23.312,-0 42.558,-8.06 57.647,-24.595c14.999,-16.526 22.499,-38.699 22.499,-66.122l-0,-352.777l99.753,-0l-0,352.777c-0,40.316 -7.861,74.995 -23.312,104.424c-15.451,29.031 -36.865,51.205 -63.972,66.927c-27.107,15.722 -58.732,23.384 -94.513,23.384Z" style="fill:#fff;fill-rule:nonzero;stroke:#000;stroke-width:3.54px;"/><path d="M3047.25,1072.47c-30.45,-0 -59.092,-6.045 -86.109,-18.144c-24.577,-10.951 -44.816,-23.899 -60.448,-38.826c-1.626,-1.545 -4.699,-4.716 -4.699,-4.716l55.84,-80.056c0,0 2.982,2.928 4.518,4.355c6.596,6.181 13.915,11.937 21.686,17.24c23.673,16.129 47.798,24.198 72.646,24.198c20.33,-0 36.504,-6.054 47.798,-17.746c11.656,-11.692 17.258,-26.203 17.258,-43.543c0,-13.707 -2.982,-25.399 -9.035,-34.272c-5.964,-9.27 -13.102,-16.526 -21.415,-22.571c-8.313,-6.053 -15.812,-10.49 -21.866,-13.707l-58.641,-31.453c-16.987,-9.27 -33.161,-19.751 -48.973,-32.257c-15.451,-12.496 -28.191,-28.218 -37.949,-46.768c-9.849,-18.541 -14.728,-41.527 -14.728,-68.941c-0,-30.234 6.415,-56.446 19.245,-79.017c12.741,-22.58 30.812,-40.326 54.124,-52.822c23.402,-12.496 50.87,-18.947 82.043,-18.947c29.727,-0 56.111,5.24 79.061,15.324c19.698,8.656 36.414,17.908 49.967,27.504c2.259,1.572 6.506,4.744 6.506,4.744l-58.37,80.444c-0,-0 -13.192,-10.021 -20.33,-14.322c-20.692,-12.496 -41.022,-18.541 -61.352,-18.541c-18.071,0 -31.986,4.834 -41.744,14.918c-9.759,10.075 -14.638,22.174 -14.638,36.685c-0,9.27 1.807,17.339 5.602,24.188c3.795,7.256 9.397,13.309 16.897,18.948c7.589,5.647 16.264,11.294 26.022,16.535l59.454,31.444c10.12,5.24 21.053,11.692 32.709,19.76c11.656,8.06 23.402,18.144 34.245,30.64c10.933,12.099 20.33,27.017 27.107,44.347c7.138,17.339 10.571,37.904 10.571,61.288c0,31.038 -6.776,58.858 -19.968,83.453c-13.192,24.595 -31.986,44.347 -56.473,58.867c-24.034,14.511 -53.039,21.767 -86.561,21.767Z" style="fill:#fff;fill-rule:nonzero;stroke:#000;stroke-width:3.54px;"/><path d="M3237.27,620.971l-0,-96.355l347.419,-0l-0,96.355l-121.981,0l-0,438.66l-103.096,0l-0,-438.66l-122.342,0Z" style="fill:#fff;fill-rule:nonzero;stroke:#000;stroke-width:3.54px;"/></g></svg>