<?xml version="1.0" encoding="UTF-8" standalone="no"?><!DOCTYPE svg PUBLIC "-//W3C//DTD SVG 1.1//EN" "http://www.w3.org/Graphics/SVG/1.1/DTD/svg11.dtd"><svg width="100%" height="100%" viewBox="0 0 3829 1563" version="1.1" xmlns="http://www.w3.org/2000/svg" xmlns:xlink="http://www.w3.org/1999/xlink" xml:space="preserve" xmlns:serif="http://www.serif.com/" style="fill-rule:evenodd;clip-rule:evenodd;stroke-linejoin:round;stroke-miterlimit:2;"><path d="M499.967,1069.91c-36.504,-0 -70.758,-7.256 -102.744,-21.767c-31.615,-14.511 -59.842,-34.272 -83.931,-59.671c-24.08,-25.399 -43.281,-54.828 -56.825,-88.702c-13.553,-33.866 -20.701,-69.746 -20.701,-108.048c0,-38.302 6.777,-74.589 20.701,-108.048c13.544,-33.874 32.745,-63.303 56.825,-88.702c24.089,-25.399 52.316,-45.151 83.931,-59.671c31.616,-14.511 65.861,-21.767 102.744,-21.767c32.745,0 63.981,5.638 93.338,17.33c27.314,10.509 51.692,25.553 73.45,44.473c1.627,1.419 4.834,4.31 4.834,4.31l-64.866,78.33c-0,0 -2.042,-1.843 -3.081,-2.747c-5.268,-4.581 -10.843,-8.945 -16.734,-13.083c-24.089,-16.933 -51.937,-25.399 -83.173,-25.399c-30.116,-0 -57.213,7.653 -81.293,23.384c-24.089,15.722 -43.281,36.684 -57.584,62.887c-13.924,26.213 -21.08,55.642 -21.08,88.296c-0,32.257 7.156,61.289 21.08,87.899c13.924,26.609 33.115,47.572 57.584,63.294c24.08,15.722 51.177,23.384 81.293,23.384c31.236,0 58.704,-8.466 82.793,-25.399c6.524,-4.581 12.686,-9.433 18.478,-14.565c1.229,-1.085 3.623,-3.289 3.623,-3.289l62.96,80.344c0,0 -3.036,2.648 -4.563,3.931c-22.146,18.703 -46.641,33.522 -74.101,44.455c-28.977,12.496 -60.213,18.541 -92.958,18.541Z" style="fill-rule:nonzero;stroke:#fff;stroke-width:6.25px;"/><path d="M999.003,1069.91c-36.504,-0 -70.749,-7.256 -102.735,-21.767c-31.624,-14.511 -59.842,-34.272 -83.922,-59.671c-24.089,-25.399 -43.281,-54.828 -56.834,-88.702c-13.545,-33.866 -20.701,-69.746 -20.701,-108.048c0,-38.302 6.777,-74.589 20.701,-108.048c13.553,-33.874 32.745,-63.303 56.834,-88.702c24.08,-25.399 52.298,-45.151 83.922,-59.671c31.625,-14.511 65.87,-21.767 102.735,-21.767c36.865,0 71.11,7.256 102.735,21.767c31.986,14.52 59.906,34.272 83.94,59.671c24.125,25.399 42.919,54.828 56.834,88.702c13.554,33.866 20.33,69.746 20.33,108.048c0,38.302 -6.776,74.589 -20.33,108.048c-13.553,33.874 -32.709,63.303 -56.834,88.702c-24.034,25.399 -52.316,45.16 -83.94,59.671c-31.625,14.511 -65.87,21.767 -102.735,21.767Zm0,-103.611c29.727,-0 56.834,-7.663 80.959,-23.385c24.035,-15.721 43.28,-36.693 57.557,-63.303c14.276,-26.61 21.414,-56.039 21.414,-87.889c0,-32.257 -7.138,-61.686 -21.414,-88.296c-14.277,-26.203 -33.522,-47.175 -57.557,-62.897c-24.125,-15.722 -51.232,-23.384 -80.959,-23.384c-30.089,0 -57.195,7.662 -81.32,23.384c-24.035,15.722 -43.281,36.694 -57.196,62.897c-13.914,26.203 -21.044,55.641 -21.044,88.296c0,32.257 7.13,61.279 21.044,87.889c13.915,26.61 33.161,47.582 57.196,63.303c24.125,15.722 51.231,23.385 81.32,23.385Z" style="fill-rule:nonzero;stroke:#fff;stroke-width:6.25px;"/><path d="M1309.11,1420.12l205.288,-301.373c8.765,-14.258 14.819,-24.965 17.8,-33.874c2.982,-8.918 4.699,-17.837 4.699,-24.966c-0,-19.616 -7.138,-37.452 -21.685,-51.719c-14.548,-14.268 -32.167,-21.397 -53.22,-21.397c-21.143,0 -38.763,7.129 -52.949,21.397c-13.553,13.553 -20.691,30.314 -21.414,48.792l-0,2.927l-86.2,-1.789c0,0 0,-2.141 0.091,-3.189c0.452,-27.215 7.59,-51.178 21.324,-73.487c14.276,-23.185 33.522,-42.801 57.918,-57.069c24.396,-14.267 51.593,-21.396 81.772,-21.396c29.637,0 56.744,7.129 81.501,21.396c24.667,14.268 44.365,32.104 59.183,57.069c14.819,23.177 22.228,49.931 22.228,78.465c-0,17.828 -2.982,33.875 -9.307,49.931c-6.325,16.047 -16.445,33.875 -30.179,53.491l-122.071,172.977l168.966,0l-0,82.034l-323.745,0l-0,1.78Z" style="fill-rule:nonzero;stroke:#fff;stroke-width:6.25px;"/><path d="M1648.93,619.2l0,-96.355l347.419,-0l-0,96.355l-121.981,0l0,438.66l-103.096,0l0,-438.66l-122.342,0Z" style="fill-rule:nonzero;stroke:#fff;stroke-width:6.25px;"/><path d="M2063.31,1057.86l-0,-535.015l152.43,-0c36.143,-0 67.406,7.662 92.976,22.977c25.571,15.325 45.54,35.881 59.093,61.686c13.554,25.399 20.692,53.626 20.692,84.266c-0,27.821 -5.602,52.813 -16.897,75.393c-11.294,22.58 -27.107,41.121 -47.798,56.039l102.373,181.923l-79.423,52.731l-111.047,-203.201l-75.267,-0l0,203.201l-97.132,0Zm96.771,-292.708l53.852,0c17.981,0 32.709,-3.632 44.365,-10.888c11.294,-7.255 19.968,-16.526 25.571,-27.82c5.692,-11.286 8.312,-22.978 8.312,-34.67c0,-20.962 -7.138,-38.302 -21.504,-52.009c-14.277,-13.707 -33.071,-20.565 -56.383,-20.565l-53.852,0l0,145.952l-0.361,0Z" style="fill-rule:nonzero;stroke:#fff;stroke-width:6.25px;"/><path d="M2646.28,1069.95c-34.967,-0 -66.231,-7.662 -93.699,-23.384c-27.468,-15.316 -48.882,-37.489 -64.695,-66.123c-15.812,-28.624 -23.763,-63.294 -23.763,-103.204l-0,-354.801l103.548,0l-0,349.154c-0,29.031 7.499,52.008 22.589,68.941c14.999,16.933 34.244,25.399 57.918,25.399c23.312,0 42.557,-8.06 57.647,-24.595c14.999,-16.526 22.498,-38.699 22.498,-66.122l0,-352.777l99.753,0l0,352.777c0,40.317 -7.861,74.995 -23.311,104.424c-15.451,29.032 -36.866,51.205 -63.972,66.927c-27.107,15.722 -58.732,23.384 -94.513,23.384Z" style="fill-rule:nonzero;stroke:#fff;stroke-width:6.25px;"/><path d="M3050.9,1070.7c-30.45,-0 -59.093,-6.045 -86.109,-18.144c-24.577,-10.951 -44.817,-23.899 -60.448,-38.826c-1.627,-1.545 -4.699,-4.716 -4.699,-4.716l55.84,-80.055c0,-0 2.982,2.927 4.518,4.355c6.596,6.18 13.915,11.936 21.686,17.24c23.673,16.128 47.798,24.197 72.646,24.197c20.33,-0 36.504,-6.054 47.798,-17.746c11.656,-11.692 17.258,-26.203 17.258,-43.543c-0,-13.707 -2.982,-25.399 -9.036,-34.272c-5.963,-9.27 -13.101,-16.526 -21.414,-22.57c-8.313,-6.054 -15.812,-10.491 -21.866,-13.707l-58.641,-31.453c-16.987,-9.271 -33.161,-19.752 -48.973,-32.257c-15.451,-12.497 -28.191,-28.219 -37.95,-46.769c-9.848,-18.541 -14.728,-41.527 -14.728,-68.941c0,-30.233 6.416,-56.446 19.246,-79.017c12.74,-22.579 30.812,-40.325 54.123,-52.822c23.403,-12.496 50.871,-18.947 82.044,-18.947c29.727,-0 56.111,5.24 79.061,15.324c19.698,8.656 36.414,17.909 49.967,27.504c2.259,1.573 6.506,4.744 6.506,4.744l-58.37,80.444c-0,0 -13.192,-10.02 -20.33,-14.321c-20.692,-12.497 -41.022,-18.541 -61.352,-18.541c-18.071,-0 -31.986,4.834 -41.745,14.917c-9.758,10.075 -14.637,22.174 -14.637,36.685c-0,9.27 1.807,17.339 5.602,24.188c3.795,7.256 9.397,13.31 16.896,18.948c7.59,5.647 16.264,11.294 26.023,16.535l59.454,31.444c10.12,5.24 21.053,11.692 32.709,19.761c11.656,8.059 23.402,18.143 34.245,30.639c10.933,12.099 20.33,27.017 27.107,44.347c7.138,17.339 10.571,37.904 10.571,61.288c0,31.038 -6.776,58.858 -19.968,83.453c-13.192,24.595 -31.986,44.347 -56.473,58.867c-24.035,14.511 -53.039,21.767 -86.561,21.767Z" style="fill-rule:nonzero;stroke:#fff;stroke-width:6.25px;"/><path d="M3240.91,619.2l-0,-96.355l347.418,-0l0,96.355l-121.98,0l-0,438.66l-103.096,0l-0,-438.66l-122.342,0Z" style="fill-rule:nonzero;stroke:#fff;stroke-width:6.25px;"/></svg>