<?xml version="1.0" encoding="UTF-8" standalone="no"?>
<!DOCTYPE svg PUBLIC "-//W3C//DTD SVG 1.1//EN" "http://www.w3.org/Graphics/SVG/1.1/DTD/svg11.dtd">
<svg width="100%" height="100%" viewBox="0 0 758 905" version="1.1" xmlns="http://www.w3.org/2000/svg" xmlns:xlink="http://www.w3.org/1999/xlink" xml:space="preserve" xmlns:serif="http://www.serif.com/" style="fill-rule:evenodd;clip-rule:evenodd;stroke-linecap:round;stroke-linejoin:round;stroke-miterlimit:1.5;">
    <g transform="matrix(4.16667,0,0,4.16667,0,0)">
        <g transform="matrix(0.958428,0,0,0.960933,-75.0596,-23.408)">
            <path d="M78.816,137.85L78.862,72.06L171,24.859L267.379,72.413L267.498,137.85C255.586,195.482 227.012,220.624 171,249.785C109.083,216.013 83.783,179.208 78.816,137.85Z" style="stroke:white;stroke-width:1px;"/>
        </g>
        <g transform="matrix(1,0,0,1,-82.2581,-28.7727)">
            <path d="M91.32,136.978L91.36,80.261L170.344,39.568L252.963,80.564L253.065,136.978C242.854,186.664 218.36,208.339 170.344,233.479C117.267,204.364 95.579,172.634 91.32,136.978Z" style="fill:white;stroke:white;stroke-width:2.5px;"/>
        </g>
        <g transform="matrix(1.00444,0,0,1.00423,-83.0229,-29.3508)">
            <path d="M170.344,233.479L170.344,132.11L252.963,80.564L253.065,136.978C242.854,186.664 218.36,208.339 170.344,233.479Z" style="fill:rgb(191,180,138);"/>
        </g>
        <g transform="matrix(1.00444,0,0,1.00423,-83.0229,-29.3508)">
            <path d="M91.32,136.978L91.36,80.261L170.344,132.11L170.344,233.479C117.267,204.364 95.579,172.634 91.32,136.978Z" style="fill:rgb(162,216,205);"/>
        </g>
        <g transform="matrix(1.09604,-0.487155,0.487256,1.09581,-292.882,-26.5198)">
            <path d="M277.715,157.14L203.386,161.447L246.239,227.955L327.025,216.758L277.715,157.14Z" style="fill:rgb(218,239,235);"/>
        </g>
        <g transform="matrix(0.689079,0,0,0.661706,-86.1581,-7.03456)">
            <g transform="matrix(1.45604,0,0,1.60471,5.45702,-52.6557)">
                <path d="M174.83,154.852L169.947,155.411L169.947,233.523L174.83,231.218L174.83,154.852Z"/>
            </g>
            <g transform="matrix(1.35361,0,0,1.44314,22.0891,-26.5705)">
                <ellipse cx="172.928" cy="134.882" rx="20.316" ry="19.854"/>
            </g>
            <g transform="matrix(1.42542,0,0,1.48302,8.15224,-32.6209)">
                <ellipse cx="131.536" cy="162.584" rx="10.874" ry="10.884"/>
            </g>
            <g transform="matrix(1.42542,0,0,1.48302,10.688,-30.4672)">
                <ellipse cx="214.336" cy="108.584" rx="10.874" ry="10.884"/>
            </g>
            <g transform="matrix(1.45604,0,0,1.44314,4.45702,-26.5705)">
                <path d="M157.126,145.412L156.394,144.296L138.005,156.363L138.737,157.478L157.126,145.412Z"/>
            </g>
            <g transform="matrix(1.45604,0,0,1.44314,4.45702,-26.5705)">
                <path d="M159.043,147.882L157.8,145.989L139.412,158.055L140.654,159.948L159.043,147.882Z"/>
            </g>
            <g transform="matrix(1.45604,0,0,1.44314,4.45702,-26.5705)">
                <path d="M206.148,111.997L205.416,110.881L187.028,122.948L187.76,124.064L206.148,111.997Z"/>
            </g>
            <g transform="matrix(1.45604,0,0,1.44314,4.45702,-26.5705)">
                <path d="M208.065,114.467L206.818,112.566L188.429,124.632L189.677,126.534L208.065,114.467Z"/>
            </g>
        </g>
    </g>
</svg>
