<?xml version="1.0" encoding="UTF-8" standalone="no"?>
<!DOCTYPE svg PUBLIC "-//W3C//DTD SVG 1.1//EN" "http://www.w3.org/Graphics/SVG/1.1/DTD/svg11.dtd">
<svg width="100%" height="100%" viewBox="0 0 2134 2134" version="1.1" xmlns="http://www.w3.org/2000/svg" xmlns:xlink="http://www.w3.org/1999/xlink" xml:space="preserve" xmlns:serif="http://www.serif.com/" style="fill-rule:evenodd;clip-rule:evenodd;stroke-linejoin:round;stroke-miterlimit:2;">
    <g transform="matrix(4.16667,0,0,4.16667,0,0)">
        <g transform="matrix(2.53766,0,0,2.53766,256,405)">
            <g transform="matrix(1,0,0,1,-77.5684,-19.9876)">
                <clipPath id="_clip1">
                    <rect x="0" y="0" width="155.137" height="39.975"/>
                </clipPath>
                <g clip-path="url(#_clip1)">
                    <g transform="matrix(1,0,0,1,1.00475e-14,-0.580294)">
                        <g transform="matrix(0.159877,0,0,0.171271,-11.7968,-179.015)">
                            <path d="M151.964,1200.5C141.414,1200.5 131.556,1198.55 122.39,1194.66C113.225,1190.77 105.152,1185.42 98.172,1178.6C91.192,1171.78 85.73,1163.84 81.787,1154.78C77.843,1145.72 75.872,1136.02 75.872,1125.68C75.872,1115.35 77.843,1105.65 81.787,1096.59C85.73,1087.53 91.192,1079.59 98.172,1072.77C105.152,1065.95 113.225,1060.59 122.39,1056.7C131.556,1052.81 141.414,1050.87 151.964,1050.87C161.449,1050.87 170.401,1052.41 178.82,1055.51C187.239,1058.6 194.753,1062.96 201.36,1068.61L193.207,1102.18C189.264,1095.58 183.829,1090.01 176.902,1085.48C169.975,1080.95 161.982,1078.68 152.923,1078.68C144.291,1078.68 136.485,1080.79 129.504,1085C122.524,1089.21 117.009,1094.86 112.959,1101.94C108.909,1109.03 106.884,1116.94 106.884,1125.68C106.884,1134.32 108.909,1142.2 112.959,1149.34C117.009,1156.48 122.524,1162.16 129.504,1166.37C136.485,1170.58 144.291,1172.68 152.923,1172.68C161.875,1172.68 169.842,1170.42 176.822,1165.89C183.802,1161.36 189.264,1155.79 193.207,1149.18L201.36,1182.75C194.646,1188.29 187.106,1192.64 178.74,1195.78C170.374,1198.92 161.449,1200.5 151.964,1200.5Z" style="fill-rule:nonzero;stroke:white;stroke-width:4.02px;"/>
                        </g>
                        <g transform="matrix(0.159877,0,0,0.171271,-11.7968,-179.015)">
                            <path d="M295.836,1200.5C285.286,1200.5 275.428,1198.55 266.262,1194.66C257.097,1190.77 249.027,1185.42 242.05,1178.6C235.074,1171.78 229.612,1163.84 225.665,1154.78C221.718,1145.72 219.744,1136.02 219.744,1125.68C219.744,1115.35 221.718,1105.65 225.665,1096.59C229.612,1087.53 235.074,1079.59 242.05,1072.77C249.027,1065.95 257.097,1060.59 266.262,1056.7C275.428,1052.81 285.286,1050.87 295.836,1050.87C306.413,1050.87 316.289,1052.81 325.464,1056.7C334.638,1060.59 342.706,1065.95 349.667,1072.77C356.628,1079.59 362.079,1087.53 366.019,1096.59C369.959,1105.65 371.929,1115.35 371.929,1125.68C371.929,1136.02 369.959,1145.72 366.019,1154.78C362.079,1163.84 356.628,1171.78 349.667,1178.6C342.706,1185.42 334.638,1190.77 325.464,1194.66C316.289,1198.55 306.413,1200.5 295.836,1200.5ZM295.836,1172.68C304.432,1172.68 312.202,1170.58 319.148,1166.37C326.093,1162.16 331.618,1156.48 335.721,1149.33C339.824,1142.18 341.875,1134.29 341.875,1125.65C341.875,1116.93 339.824,1109.03 335.721,1101.94C331.618,1094.86 326.093,1089.21 319.148,1085C312.202,1080.79 304.432,1078.68 295.836,1078.68C287.167,1078.68 279.352,1080.79 272.39,1085C265.427,1089.21 259.921,1094.86 255.872,1101.97C251.822,1109.07 249.797,1116.98 249.797,1125.69C249.797,1134.32 251.822,1142.2 255.872,1149.34C259.921,1156.48 265.427,1162.16 272.39,1166.37C279.352,1170.58 287.167,1172.68 295.836,1172.68Z" style="fill-rule:nonzero;stroke:white;stroke-width:4.02px;"/>
                        </g>
                        <g id="_2" serif:id="2" transform="matrix(0.116552,0,0,0.757536,34.7151,12.0702)">
                            <path d="M126.681,37.163L207.817,18.784C211.302,17.969 213.665,17.288 214.907,16.744C216.149,16.199 216.77,15.696 216.77,15.234C216.77,13.99 213.915,12.936 208.206,12.072C202.497,11.208 195.471,10.776 187.13,10.776C178.788,10.776 171.8,11.208 166.165,12.072C160.529,12.936 157.712,13.99 157.712,15.234C157.712,16.808 162.124,18.163 170.947,19.298L130.63,19.298C125.996,17.991 123.678,16.628 123.678,15.208C123.678,13.491 126.487,11.92 132.103,10.494C137.72,9.068 145.348,7.92 154.987,7.05C164.626,6.18 175.414,5.745 187.352,5.745C199.067,5.745 209.819,6.171 219.606,7.024C229.393,7.877 237.207,9.016 243.046,10.442C248.885,11.868 251.804,13.465 251.804,15.234C251.804,16.3 250.572,17.324 248.106,18.305C245.641,19.286 241.646,20.373 236.122,21.565L187.797,32.132L254.585,32.132L254.585,37.163L126.681,37.163Z" style="fill-rule:nonzero;stroke:white;stroke-width:1.23px;"/>
                        </g>
                    </g>
                    <g transform="matrix(1,0,0,1,1.00475e-14,-0.580294)">
                        <g transform="matrix(0.159877,0,0,0.171271,-11.7968,-179.015)">
                            <path d="M483.19,1079.64L483.19,1053.75L583.261,1053.75L583.261,1079.64L548.092,1079.64L548.092,1197.62L518.358,1197.62L518.358,1079.64L483.19,1079.64Z" style="fill-rule:nonzero;stroke:white;stroke-width:4.02px;"/>
                        </g>
                        <g transform="matrix(0.159877,0,0,0.171271,-11.7968,-179.015)">
                            <path d="M602.603,1197.62L602.603,1053.75L646.564,1053.75C657.008,1053.75 665.934,1055.83 673.34,1059.98C680.747,1064.14 686.422,1069.65 690.365,1076.53C694.308,1083.4 696.28,1090.94 696.28,1099.15C696.28,1106.61 694.655,1113.37 691.404,1119.45C688.154,1125.52 683.545,1130.53 677.577,1134.48L715.623,1197.62L684.131,1197.62L652.159,1142.95L630.419,1142.95L630.419,1197.62L602.603,1197.62ZM630.419,1118.97L645.925,1118.97C651.147,1118.97 655.41,1117.98 658.713,1116.01C662.017,1114.04 664.468,1111.54 666.067,1108.5C667.665,1105.46 668.465,1102.34 668.465,1099.15C668.465,1093.5 666.387,1088.84 662.23,1085.16C658.074,1081.48 652.639,1079.64 645.925,1079.64L630.419,1079.64L630.419,1118.97Z" style="fill-rule:nonzero;stroke:white;stroke-width:4.02px;"/>
                        </g>
                        <g transform="matrix(0.159877,0,0,0.171271,-11.7968,-179.015)">
                            <path d="M770.614,1200.98C760.49,1200.98 751.484,1198.9 743.598,1194.74C735.712,1190.59 729.504,1184.64 724.974,1176.92C720.445,1169.19 718.181,1159.94 718.181,1149.18L718.181,1053.75L747.914,1053.75L747.914,1147.74C747.914,1155.52 750.072,1161.7 754.388,1166.29C758.704,1170.87 764.273,1173.16 771.093,1173.16C777.808,1173.16 783.349,1170.95 787.719,1166.53C792.088,1162.1 794.273,1156.16 794.273,1148.7L794.273,1053.75L823.047,1053.75L823.047,1148.7C823.047,1159.57 820.809,1168.92 816.333,1176.76C811.857,1184.59 805.703,1190.59 797.87,1194.74C790.037,1198.9 780.951,1200.98 770.614,1200.98Z" style="fill-rule:nonzero;stroke:white;stroke-width:4.02px;"/>
                        </g>
                        <g transform="matrix(0.159877,0,0,0.171271,-11.7968,-179.015)">
                            <path d="M886.831,1200.82C878.092,1200.82 869.806,1199.19 861.973,1195.94C854.14,1192.69 847.879,1188.77 843.189,1184.19L851.022,1152.22C854.752,1158.72 860.028,1164.13 866.848,1168.44C873.669,1172.76 880.649,1174.92 887.79,1174.92C893.651,1174.92 898.26,1173.32 901.617,1170.12C904.974,1166.93 906.653,1163.04 906.653,1158.45C906.653,1154.72 905.774,1151.63 904.015,1149.18C902.257,1146.73 900.179,1144.7 897.781,1143.11C895.383,1141.51 893.278,1140.28 891.466,1139.43L874.521,1130.96C869.619,1128.51 864.93,1125.6 860.454,1122.25C855.978,1118.89 852.328,1114.71 849.504,1109.7C846.68,1104.69 845.268,1098.51 845.268,1091.15C845.268,1083.05 847.106,1075.97 850.783,1069.89C854.459,1063.82 859.655,1059.08 866.369,1055.66C873.083,1052.25 880.969,1050.55 890.028,1050.55C898.553,1050.55 906.147,1051.91 912.807,1054.63C919.468,1057.34 924.877,1060.25 929.033,1063.34L921.68,1094.51C917.417,1088.97 912.328,1084.52 906.413,1081.16C900.498,1077.81 894.61,1076.13 888.749,1076.13C883.527,1076.13 879.504,1077.46 876.68,1080.12C873.855,1082.79 872.443,1086.09 872.443,1090.03C872.443,1092.49 873.003,1094.67 874.122,1096.59C875.241,1098.51 876.866,1100.21 878.998,1101.7C881.129,1103.2 883.633,1104.69 886.511,1106.18L903.616,1114.65C906.493,1116.04 909.637,1117.82 913.047,1120.01C916.458,1122.19 919.761,1124.94 922.958,1128.24C926.156,1131.54 928.767,1135.51 930.791,1140.15C932.816,1144.79 933.829,1150.3 933.829,1156.69C933.829,1165.01 931.91,1172.49 928.074,1179.15C924.237,1185.82 918.829,1191.09 911.848,1194.98C904.868,1198.87 896.529,1200.82 886.831,1200.82Z" style="fill-rule:nonzero;stroke:white;stroke-width:4.02px;"/>
                        </g>
                        <g transform="matrix(0.159877,0,0,0.171271,-11.7968,-179.015)">
                            <path d="M941.981,1079.64L941.981,1053.75L1042.05,1053.75L1042.05,1079.64L1006.88,1079.64L1006.88,1197.62L977.15,1197.62L977.15,1079.64L941.981,1079.64Z" style="fill-rule:nonzero;stroke:white;stroke-width:4.02px;"/>
                        </g>
                    </g>
                </g>
            </g>
        </g>
        <g transform="matrix(1.45475,0,0,1.45475,256,177)">
            <g transform="matrix(1,0,0,1,-90.8989,-108.549)">
                <g transform="matrix(0.958428,0,0,0.960933,-75.0596,-23.408)">
                    <path d="M78.816,137.85L78.862,72.06L171,24.859L267.379,72.413L267.498,137.85C255.586,195.482 227.012,220.624 171,249.785C109.083,216.013 83.783,179.208 78.816,137.85Z" style="stroke:white;stroke-width:1px;stroke-linecap:round;stroke-miterlimit:1.5;"/>
                </g>
                <g transform="matrix(1,0,0,1,-82.2581,-28.7727)">
                    <path d="M170.344,233.479C170.337,233.483 170.344,132.11 170.344,132.11L252.963,80.564L253.065,136.978C242.854,186.664 218.36,208.339 170.344,233.479Z" style="fill:rgb(191,180,138);"/>
                </g>
                <g transform="matrix(1,0,0,1,-82.2581,-28.7727)">
                    <path d="M91.32,136.978L91.36,80.261L170.344,132.11C170.344,132.11 170.81,233.735 170.344,233.479C117.267,204.364 95.579,172.634 91.32,136.978Z" style="fill:rgb(162,216,205);"/>
                </g>
                <g transform="matrix(1.09119,-0.485101,0.485101,1.09119,-291.189,-25.9536)">
                    <path d="M277.715,157.14L203.386,161.447L246.239,227.955L327.025,216.758L277.715,157.14Z" style="fill:rgb(218,239,235);"/>
                </g>
            </g>
        </g>
    </g>
</svg>
