<?xml version="1.0" encoding="UTF-8" standalone="no"?><!DOCTYPE svg PUBLIC "-//W3C//DTD SVG 1.1//EN" "http://www.w3.org/Graphics/SVG/1.1/DTD/svg11.dtd"><svg width="100%" height="100%" viewBox="0 0 539 615" version="1.1" xmlns="http://www.w3.org/2000/svg" xmlns:xlink="http://www.w3.org/1999/xlink" xml:space="preserve" xmlns:serif="http://www.serif.com/" style="fill-rule:evenodd;clip-rule:evenodd;stroke-linejoin:round;stroke-miterlimit:2;"><g><path d="M24.246,146.228l244.418,125.458l-0.383,322.009c-0,0 -14.535,-9.507 -19.473,-12.592c-3.324,-2.077 -6.786,-3.922 -10.158,-5.92c-4.228,-2.503 -10.198,-5.972 -15.208,-9.103c-5.585,-3.489 -12.247,-7.815 -18.299,-11.831c-7.236,-4.803 -18.68,-12.553 -25.12,-16.988c-4.555,-3.137 -9.034,-6.384 -13.519,-9.62c-4.644,-3.352 -9.657,-6.862 -14.338,-10.487c-4.962,-3.843 -10.649,-8.499 -15.435,-12.572c-4.524,-3.846 -9.12,-7.808 -13.289,-11.861c-4.091,-3.976 -7.954,-8.183 -11.73,-12.458c-4.099,-4.642 -9.09,-10.695 -12.863,-15.392c-3.362,-4.184 -6.612,-8.457 -9.78,-12.787c-3.284,-4.487 -6.767,-9.316 -9.918,-14.131c-4.276,-6.536 -10.949,-16.567 -15.74,-25.087c-4.755,-8.454 -8.983,-17.334 -13.007,-26.032c-3.982,-8.601 -7.953,-17.233 -11.143,-26.157c-3.427,-9.588 -7.031,-21.663 -9.421,-31.369c-2.177,-8.839 -4.668,-17.763 -4.92,-26.863c-0.933,-33.638 -0.674,-156.217 -0.674,-156.217Z" style="fill:#bfb389;"/><path d="M512.181,146.363c0,0 1.071,123.145 0.405,156.082c-0.156,7.735 -2.841,15.677 -4.403,22.787c-1.465,6.666 -3.136,13.757 -4.969,19.866c-1.71,5.694 -3.951,11.217 -6.036,16.785c-2.236,5.973 -4.854,13.22 -7.384,19.056c-2.355,5.431 -5.083,10.695 -7.795,15.957c-3.013,5.849 -6.667,12.863 -10.288,19.135c-3.67,6.358 -7.642,12.787 -11.73,19.01c-4.098,6.24 -8.844,12.942 -12.855,18.423c-3.602,4.923 -7.39,9.71 -11.211,14.466c-3.926,4.887 -8.087,10.177 -12.346,14.857c-4.194,4.607 -8.623,9.006 -13.212,13.22c-5.002,4.595 -11.404,9.957 -16.802,14.351c-5.087,4.14 -10.327,8.089 -15.586,12.01c-5.402,4.028 -11.622,8.475 -16.825,12.157c-4.76,3.367 -9.666,6.698 -14.395,9.932c-4.647,3.178 -9.391,6.447 -13.982,9.473c-4.481,2.955 -9.022,5.82 -13.562,8.683c-4.575,2.887 -9.209,5.833 -13.886,8.631c-5.216,3.121 -11.511,6.893 -17.408,10.089c-6.101,3.305 -19.2,9.751 -19.2,9.751l-0.047,-319.215l243.517,-125.506Z" style="fill:#9cc3a4;"/><path d="M268.82,21.85l243.361,124.513l-242.821,125.593l-245.114,-125.728l244.574,-124.378Z" style="fill:url(#_Linear1);"/><g><path d="M448.351,97.051c-0.033,-0.017 -0.066,-0.035 -0.1,-0.052l-151.349,-77.428c-17.598,-9.054 -38.565,-9.054 -56.163,-0.001c-1.601,0.82 -199.374,101.981 -199.374,101.981c-0.009,0.004 -0.02,0.009 -0.029,0.014c-19.112,9.829 -31.12,29.49 -31.12,50.969c-0,-0.014 -0.135,129.897 -0.135,129.897c-0,0.384 0.014,0.769 0.043,1.152c0.15,1.938 0.862,7.758 2.501,16.555c0.009,0.045 0.017,0.09 0.027,0.136c1.42,7.244 3.548,16.607 6.94,27.528c0.745,2.657 1.634,5.464 2.663,8.274c0.819,2.462 1.656,4.957 2.623,7.585c3.932,10.809 8.288,21.477 13.342,32.146c0.008,0.017 0.016,0.034 0.024,0.05c4.608,9.636 9.636,19.274 15.083,28.771c0.015,0.026 0.031,0.053 0.047,0.08c14.402,24.749 31.875,48.524 52.01,70.757c0.005,0.007 0.012,0.014 0.019,0.02c15.339,16.875 45.495,40.58 87.889,68.75c0.062,0.042 0.125,0.082 0.189,0.122c3.74,2.406 7.483,4.946 11.358,7.485c0.008,0.005 0.018,0.012 0.026,0.017c9.45,6.163 21.226,13.288 31.499,19.45c0.005,0.004 0.011,0.007 0.016,0.011c19.785,11.835 44.69,11.835 64.475,0c0.031,-0.019 0.062,-0.038 0.091,-0.055c10.121,-6.154 21.74,-13.132 31.315,-19.423c48.511,-31.417 82.884,-57.871 99.454,-76.241c20.552,-22.649 38.304,-46.98 52.844,-72.147c0.002,-0.004 0.005,-0.01 0.007,-0.014c11.672,-20.247 21.228,-41.061 28.54,-62.011c-0,-0.002 0.001,-0.005 0.002,-0.008c11.01,-31.598 13.392,-53.343 13.821,-57.203c0.061,-0.549 0.09,-1.101 0.09,-1.653l-0.135,-129.91c0,-21.471 -11.999,-40.961 -30.934,-50.793c0.021,0.011 -47.599,-24.811 -47.599,-24.811Zm-6.859,13.158l-151.358,-77.432c-13.355,-6.88 -29.273,-6.88 -42.628,-0l-199.383,101.984c-14.165,7.285 -23.068,21.854 -23.068,37.773l-0.135,129.91c0.135,1.754 0.809,7.015 2.293,14.974c1.349,6.88 3.373,15.783 6.61,26.171c0.675,2.428 1.484,4.991 2.428,7.554c0.81,2.428 1.619,4.857 2.563,7.42c3.778,10.387 7.96,20.639 12.816,30.892c4.452,9.308 9.308,18.616 14.569,27.789c13.895,23.878 30.758,46.811 50.183,68.26c14.839,16.323 44.113,39.121 85.122,66.371c3.778,2.428 7.555,4.991 11.467,7.555c9.308,6.07 20.91,13.085 31.027,19.155c15.109,9.039 34.13,9.039 49.239,0c9.982,-6.07 21.449,-12.95 30.892,-19.155c47.08,-30.488 80.536,-55.984 96.589,-73.791c19.83,-21.854 36.963,-45.327 50.992,-69.609c11.197,-19.425 20.37,-39.391 27.385,-59.491c10.387,-29.813 12.681,-50.318 13.085,-53.96l-0.135,-129.911c0,-15.918 -8.903,-30.352 -22.933,-37.637l-47.62,-24.822Z" style="fill:#090a0b;"/></g><g><path d="M456.518,88.024c-0.035,-0.018 -0.07,-0.037 -0.105,-0.053c-0,-0 -156.222,-80.148 -157.634,-80.872c-18.346,-9.465 -40.202,-9.465 -58.548,0l-207.651,106.514c-0.011,0.005 -0.021,0.011 -0.031,0.015c-19.898,10.262 -32.408,30.784 -32.408,53.207c-0,-0.014 -0.141,136.507 -0.141,136.507c-0.001,0.4 0.014,0.799 0.045,1.198c0.155,2.023 0.896,8.1 2.604,17.285c0.008,0.046 0.018,0.094 0.026,0.141c1.48,7.566 3.695,17.343 7.229,28.746c0.774,2.776 1.7,5.706 2.772,8.641c0.854,2.57 1.724,5.175 2.733,7.92c4.094,11.289 8.63,22.43 13.893,33.573c0.008,0.017 0.015,0.034 0.024,0.052c4.801,10.063 10.037,20.128 15.709,30.046c0.016,0.028 0.033,0.056 0.048,0.084c15,25.849 33.198,50.68 54.168,73.9c0.007,0.007 0.013,0.015 0.02,0.022c15.978,17.625 47.386,42.384 91.541,71.806c0.065,0.044 0.131,0.086 0.196,0.129c3.897,2.512 7.795,5.165 11.83,7.817c0.01,0.007 0.018,0.012 0.028,0.018c9.842,6.438 22.108,13.878 32.807,20.316c0.006,0.004 0.012,0.007 0.017,0.011c20.623,12.371 46.585,12.371 67.208,0c0.032,-0.019 0.063,-0.039 0.096,-0.059c10.54,-6.426 22.643,-13.715 32.615,-20.285c50.528,-32.815 86.327,-60.445 103.586,-79.631c21.405,-23.657 39.892,-49.068 55.037,-75.353c0.002,-0.005 0.004,-0.01 0.007,-0.014c12.155,-21.146 22.106,-42.882 29.72,-64.762c0.002,-0.002 0.003,-0.005 0.003,-0.007c11.465,-32.997 13.946,-55.703 14.392,-59.734c0.063,-0.571 0.095,-1.144 0.094,-1.719l-0.141,-136.521c0,-22.415 -12.5,-42.76 -32.214,-53.024c0.022,0.011 -49.575,-25.914 -49.575,-25.914Zm-7.17,13.717l-157.644,-80.876c-13.909,-7.186 -30.489,-7.186 -44.398,-0l-207.663,106.519c-14.753,7.608 -24.026,22.825 -24.026,39.451l-0.141,136.521c0.141,1.832 0.843,7.327 2.389,15.64c1.405,7.186 3.513,16.485 6.885,27.334c0.702,2.536 1.545,5.213 2.529,7.89c0.843,2.536 1.686,5.073 2.669,7.75c3.934,10.849 8.29,21.557 13.348,32.265c4.637,9.722 9.695,19.444 15.174,29.025c14.472,24.939 32.035,48.892 52.267,71.295c15.455,17.049 45.944,40.86 88.657,69.322c3.934,2.536 7.868,5.213 11.943,7.89c9.695,6.341 21.778,13.667 32.315,20.008c15.737,9.44 35.548,9.44 51.284,-0c10.397,-6.341 22.34,-13.527 32.175,-20.008c49.035,-31.843 83.88,-58.473 100.6,-77.071c20.654,-22.826 38.497,-47.342 53.11,-72.704c11.661,-20.289 21.216,-41.142 28.522,-62.136c10.818,-31.138 13.207,-52.555 13.628,-56.359l-0.14,-136.521c-0,-16.626 -9.273,-31.702 -23.886,-39.31l-49.597,-25.925Z" style="fill:#fff;"/></g><g><rect x="262.152" y="334.373" width="22.545" height="252.667"/></g><g><g><path d="M337.2,246.916l-9.111,-19.572l60.311,-33.206l10.212,21.342l-61.412,31.436Z" style="fill-rule:nonzero;"/></g><path d="M148.804,341.468l-8.237,-19.057c0,-0 63.216,-34.757 63.288,-34.544c-0.072,-0.213 11.051,19.382 11.051,19.382l-66.102,34.219Z" style="fill-rule:nonzero;"/><circle cx="111.37" cy="346.15" r="37.637"/><g><circle cx="270.147" cy="266.154" r="69.744" style="fill:url(#_Radial2);"/></g><path d="M268.664,271.685l-0.027,64.197c-0,-0 0.501,0.011 -0,-0c-37.797,-0.806 -68.233,-31.74 -68.233,-69.728c-0,-9.439 1.879,-18.443 5.284,-26.657c1.7,-4.103 0.004,-0.01 0.004,-0.01l62.972,32.198Z"/><g><circle cx="425.688" cy="188.991" r="37.637" style="fill:url(#_Radial3);"/></g></g></g><defs><linearGradient id="_Linear1" x1="0" y1="0" x2="1" y2="0" gradientUnits="userSpaceOnUse" gradientTransform="matrix(-0.59599,-252.5,252.5,-0.59599,269.416,274.35)"><stop offset="0" style="stop-color:#fefffe;stop-opacity:1"/><stop offset="0.85" style="stop-color:#d4ffff;stop-opacity:1"/><stop offset="1" style="stop-color:#d4ffff;stop-opacity:1"/></linearGradient><radialGradient id="_Radial2" cx="0" cy="0" r="1" gradientUnits="userSpaceOnUse" gradientTransform="matrix(-91.562,8.51037,8.51037,91.562,288.631,240.65)"><stop offset="0" style="stop-color:#666d6f;stop-opacity:1"/><stop offset="0" style="stop-color:#666d6f;stop-opacity:1"/><stop offset="0.15" style="stop-color:#4e5455;stop-opacity:1"/><stop offset="0.4" style="stop-color:#2d3031;stop-opacity:1"/><stop offset="0.63" style="stop-color:#141516;stop-opacity:1"/><stop offset="0.84" style="stop-color:#050606;stop-opacity:1"/><stop offset="1" style="stop-color:#000;stop-opacity:1"/></radialGradient><radialGradient id="_Radial3" cx="0" cy="0" r="1" gradientUnits="userSpaceOnUse" gradientTransform="matrix(-47.2628,4.39291,4.39291,47.2628,439.197,171.607)"><stop offset="0" style="stop-color:#555b5c;stop-opacity:1"/><stop offset="0" style="stop-color:#666d6f;stop-opacity:1"/><stop offset="0.15" style="stop-color:#4e5455;stop-opacity:1"/><stop offset="0.4" style="stop-color:#2d3031;stop-opacity:1"/><stop offset="0.63" style="stop-color:#141516;stop-opacity:1"/><stop offset="0.84" style="stop-color:#050606;stop-opacity:1"/><stop offset="1" style="stop-color:#000;stop-opacity:1"/></radialGradient></defs></svg>