<?xml version="1.0" encoding="UTF-8" standalone="no"?><!DOCTYPE svg PUBLIC "-//W3C//DTD SVG 1.1//EN" "http://www.w3.org/Graphics/SVG/1.1/DTD/svg11.dtd"><svg width="100%" height="100%" viewBox="0 0 86 149" version="1.1" xmlns="http://www.w3.org/2000/svg" xmlns:xlink="http://www.w3.org/1999/xlink" xml:space="preserve" xmlns:serif="http://www.serif.com/" style="fill-rule:evenodd;clip-rule:evenodd;stroke-linejoin:round;stroke-miterlimit:2;"><path d="M2.263,21.249c-2.34,2.28 -2.993,6.358 -1.356,10.128c2.015,4.641 6.731,7.063 10.532,5.413c3.801,-1.65 5.252,-6.747 3.238,-11.387c-2.015,-4.64 -6.731,-7.063 -10.532,-5.413c-0.713,0.31 -1.342,0.732 -1.881,1.258l-0.001,0.001Zm17.729,-11.497c-2.144,2.145 -3.269,5.623 -2.719,9.315c0.838,5.627 5.251,9.63 9.86,8.944c4.609,-0.686 7.662,-5.803 6.824,-11.429c-0.838,-5.627 -5.251,-9.63 -9.86,-8.944c-1.584,0.235 -2.983,0.99 -4.105,2.114l-0,-0Zm20.483,-5.81c-2.046,1.995 -3.378,5.044 -3.433,8.479c-0.099,6.107 3.874,11.118 8.876,11.198c5.002,0.081 9.138,-4.804 9.237,-10.91c0.098,-6.107 -3.874,-11.118 -8.876,-11.198c-2.19,-0.036 -4.213,0.879 -5.804,2.431l-0,-0Zm-24.314,36.849c-4.455,4.346 -7.328,10.023 -7.722,17.105c-1.257,22.607 2.466,49.576 23.196,78.092c24.216,33.309 54.449,-7.316 35.579,-19.171c-24.106,-15.143 -20.913,-34.257 -3.158,-45.383c7.893,-4.946 12.049,-13.966 8.907,-24.717c-3.779,-12.929 -22.334,-19.429 -39.586,-15.004c-6.725,1.724 -12.761,4.732 -17.216,9.078l0,0Zm48.353,-36.587c-2.052,2.061 -3.682,4.785 -4.588,7.96c-2.415,8.468 1.244,16.941 8.18,18.92c6.937,1.979 14.519,-3.286 16.934,-11.754c2.416,-8.468 -1.249,-16.934 -8.186,-18.913c-4.335,-1.237 -8.919,0.353 -12.34,3.787l-0,0Z" style="fill-rule:nonzero;"/></svg>