<?xml version="1.0" encoding="UTF-8" standalone="no"?><!DOCTYPE svg PUBLIC "-//W3C//DTD SVG 1.1//EN" "http://www.w3.org/Graphics/SVG/1.1/DTD/svg11.dtd"><svg width="100%" height="100%" viewBox="0 0 86 149" version="1.1" xmlns="http://www.w3.org/2000/svg" xmlns:xlink="http://www.w3.org/1999/xlink" xml:space="preserve" xmlns:serif="http://www.serif.com/" style="fill-rule:evenodd;clip-rule:evenodd;stroke-linejoin:round;stroke-miterlimit:2;"><path d="M83.52,21.249c2.34,2.28 2.993,6.358 1.357,10.128c-2.015,4.641 -6.731,7.063 -10.532,5.413c-3.801,-1.65 -5.253,-6.747 -3.238,-11.387c2.014,-4.64 6.731,-7.063 10.532,-5.413c0.713,0.31 1.342,0.732 1.881,1.258l0,0.001Zm-17.728,-11.497c2.143,2.145 3.268,5.623 2.719,9.315c-0.838,5.627 -5.251,9.63 -9.86,8.944c-4.609,-0.686 -7.662,-5.803 -6.824,-11.429c0.837,-5.627 5.251,-9.63 9.86,-8.944c1.584,0.235 2.982,0.99 4.105,2.114l0,-0Zm-20.483,-5.81c2.045,1.995 3.378,5.044 3.433,8.479c0.098,6.107 -3.874,11.118 -8.876,11.198c-5.002,0.081 -9.139,-4.804 -9.237,-10.91c-0.098,-6.107 3.874,-11.118 8.876,-11.198c2.189,-0.036 4.213,0.879 5.804,2.431l-0,-0Zm24.314,36.849c4.455,4.346 7.328,10.023 7.721,17.105c1.257,22.607 -2.465,49.576 -23.196,78.092c-24.215,33.309 -54.449,-7.316 -35.578,-19.171c24.105,-15.143 20.913,-34.257 3.158,-45.383c-7.893,-4.946 -12.05,-13.966 -8.907,-24.717c3.779,-12.929 22.333,-19.429 39.586,-15.004c6.725,1.724 12.76,4.732 17.216,9.078l-0,0Zm-48.353,-36.587c2.052,2.061 3.682,4.785 4.587,7.96c2.416,8.468 -1.243,16.941 -8.179,18.92c-6.937,1.979 -14.519,-3.286 -16.935,-11.754c-2.415,-8.468 1.25,-16.934 8.186,-18.913c4.336,-1.237 8.92,0.353 12.341,3.787l-0,0Z" style="fill-rule:nonzero;"/></svg>