<?xml version="1.0" encoding="UTF-8" standalone="no"?>
<!DOCTYPE svg PUBLIC "-//W3C//DTD SVG 1.1//EN" "http://www.w3.org/Graphics/SVG/1.1/DTD/svg11.dtd">
<svg width="100%" height="100%" viewBox="0 0 428 473" version="1.1" xmlns="http://www.w3.org/2000/svg" xmlns:xlink="http://www.w3.org/1999/xlink" xml:space="preserve" xmlns:serif="http://www.serif.com/" style="fill-rule:evenodd;clip-rule:evenodd;stroke-linejoin:round;stroke-miterlimit:2;">
    <g transform="matrix(0.671605,0,0,0.807747,-368.936,239.992)">
        <rect x="625.272" y="214.186" width="74.449" height="61.901"/>
    </g>
    <g transform="matrix(0.695548,0,0,0.827054,-390.47,243.917)">
        <rect x="706.345" y="204.44" width="71.886" height="60.456" style="fill:rgb(16,17,17);"/>
    </g>
    <g transform="matrix(0.556426,0,0,1.08782,-206.918,81.6262)">
        <rect x="642.934" y="304.623" width="89.859" height="45.964" style="fill:rgb(53,57,58);"/>
    </g>
    <g transform="matrix(0.549642,0,0,1.08995,-215.105,88.4643)">
        <rect x="756.732" y="297.753" width="90.968" height="45.874" style="fill:rgb(99,106,107);"/>
    </g>
    <g transform="matrix(0.549642,0,0,1.08995,-165.105,88.4643)">
        <rect x="756.732" y="297.753" width="90.968" height="45.874" style="fill:rgb(167,169,173);"/>
    </g>
    <g transform="matrix(0.549642,0,0,1.08995,-115.105,88.4643)">
        <rect x="756.732" y="297.753" width="90.968" height="45.874" style="fill:rgb(213,214,216);"/>
    </g>
    <g transform="matrix(0.549642,0,0,1.08995,-64.932,88.4643)">
        <rect x="756.732" y="297.753" width="90.968" height="45.874" style="fill:white;"/>
    </g>
    <g transform="matrix(0.671605,0,0,0.807747,-269.936,90.9922)">
        <rect x="625.272" y="214.186" width="74.449" height="61.901" style="fill:rgb(184,239,244);"/>
    </g>
    <g transform="matrix(0.671605,0,0,0.807747,-319.936,90.9922)">
        <rect x="625.272" y="214.186" width="74.449" height="61.901" style="fill:rgb(134,228,236);"/>
    </g>
    <g transform="matrix(0.695548,0,0,0.827054,-291.47,94.9166)">
        <rect x="706.345" y="204.44" width="71.886" height="60.456" style="fill:rgb(205,244,249);"/>
    </g>
    <g transform="matrix(0.556426,0,0,1.08782,-107.918,-67.3738)">
        <rect x="642.934" y="304.623" width="89.859" height="45.964" style="fill:rgb(229,249,250);"/>
    </g>
    <g transform="matrix(0.549642,0,0,1.08995,-116.105,-60.5357)">
        <rect x="756.732" y="297.753" width="90.968" height="45.874" style="fill:rgb(238,250,248);"/>
    </g>
    <g transform="matrix(0.671605,0,0,0.807747,-269.936,140.567)">
        <rect x="625.272" y="214.186" width="74.449" height="61.901" style="fill:rgb(161,215,205);"/>
    </g>
    <g transform="matrix(0.671605,0,0,0.807747,-319.936,140.567)">
        <rect x="625.272" y="214.186" width="74.449" height="61.901" style="fill:rgb(116,196,181);"/>
    </g>
    <g transform="matrix(0.695548,0,0,0.827054,-291.47,144.491)">
        <rect x="706.345" y="204.44" width="71.886" height="60.456" style="fill:rgb(181,231,222);"/>
    </g>
    <g transform="matrix(0.556426,0,0,1.08782,-107.918,-17.799)">
        <rect x="642.934" y="304.623" width="89.859" height="45.964" style="fill:rgb(200,250,241);"/>
    </g>
    <g transform="matrix(0.549642,0,0,1.08995,-116.105,-10.9609)">
        <rect x="756.732" y="297.753" width="90.968" height="45.874" style="fill:rgb(230,249,245);"/>
    </g>
    <g transform="matrix(0.671605,0,0,0.807747,-269.936,190.161)">
        <rect x="625.272" y="214.186" width="74.449" height="61.901" style="fill:rgb(191,179,137);"/>
    </g>
    <g transform="matrix(0.671605,0,0,0.807747,-319.936,190.161)">
        <rect x="625.272" y="214.186" width="74.449" height="61.901" style="fill:rgb(164,148,89);"/>
    </g>
    <g transform="matrix(0.695548,0,0,0.827054,-291.47,194.085)">
        <rect x="706.345" y="204.44" width="71.886" height="60.456" style="fill:rgb(205,195,157);"/>
    </g>
    <g transform="matrix(0.556426,0,0,1.08782,-107.918,31.7949)">
        <rect x="642.934" y="304.623" width="89.859" height="45.964" style="fill:rgb(219,210,175);"/>
    </g>
    <g transform="matrix(0.549642,0,0,1.08995,-116.105,38.633)">
        <rect x="756.732" y="297.753" width="90.968" height="45.874" style="fill:rgb(238,235,226);"/>
    </g>
    <g transform="matrix(0.549642,0,0,1.08995,-65.932,-60.5357)">
        <rect x="756.732" y="297.753" width="90.968" height="45.874" style="fill:rgb(250,254,253);"/>
    </g>
    <g transform="matrix(0.549642,0,0,1.08995,-65.932,-10.9609)">
        <rect x="756.732" y="297.753" width="90.968" height="45.874" style="fill:rgb(246,253,251);"/>
    </g>
    <g transform="matrix(0.549642,0,0,1.08995,-65.932,38.633)">
        <rect x="756.732" y="297.753" width="90.968" height="45.874" style="fill:rgb(249,248,245);"/>
    </g>
    <g transform="matrix(1,0,0,1,0,17)">
        <text x="10px" y="222.453px" style="font-family:'Arial-Black', 'Arial Black', sans-serif;font-weight:900;font-size:16px;">#000000</text>
    </g>
    <g transform="matrix(1,0,0,1,-1,65)">
        <text x="10px" y="222.453px" style="font-family:'Arial-Black', 'Arial Black', sans-serif;font-weight:900;font-size:16px;fill:rgb(134,228,236);stroke:rgb(105,106,105);stroke-width:1px;">#86E4EC</text>
    </g>
    <g transform="matrix(1,0,0,1,0,113)">
        <text x="10px" y="222.453px" style="font-family:'Arial-Black', 'Arial Black', sans-serif;font-weight:900;font-size:16px;fill:rgb(116,196,181);stroke:rgb(104,104,104);stroke-width:1px;">#74C4B5</text>
    </g>
    <g transform="matrix(1,0,0,1,0,165)">
        <text x="10px" y="222.453px" style="font-family:'Arial-Black', 'Arial Black', sans-serif;font-weight:900;font-size:16px;fill:rgb(164,148,89);">#A49459</text>
    </g>
    <g transform="matrix(0.272143,0,0,0.272143,24.4269,22.3337)">
        <path d="M68.438,125.428L255.57,221.481L255.277,468.019C255.277,468.019 244.149,460.74 240.368,458.378C237.823,456.788 235.173,455.375 232.591,453.846C229.354,451.929 224.783,449.273 220.947,446.876C216.671,444.205 211.571,440.893 206.937,437.818C201.397,434.141 192.635,428.207 187.705,424.812C184.217,422.41 180.788,419.924 177.354,417.446C173.799,414.88 169.961,412.193 166.377,409.417C162.578,406.475 158.224,402.91 154.559,399.792C151.096,396.847 147.577,393.814 144.385,390.711C141.253,387.667 138.295,384.446 135.404,381.173C132.266,377.619 128.445,372.984 125.556,369.388C122.982,366.185 120.494,362.913 118.068,359.598C115.554,356.163 112.887,352.466 110.475,348.779C107.201,343.775 102.092,336.095 98.424,329.572C94.783,323.099 91.546,316.301 88.465,309.641C85.417,303.056 82.376,296.447 79.934,289.615C77.31,282.274 74.551,273.029 72.721,265.598C71.054,258.831 69.147,251.998 68.954,245.031C68.24,219.277 68.438,125.428 68.438,125.428Z" style="fill:rgb(205,195,157);"/>
        <g transform="matrix(0.953844,0,0,0.783935,-62.0512,502.283)">
            <g>
                <g>
                    <path d="M136.769,60.339C135.665,59.146 134.439,57.989 133.09,56.87C129.105,53.737 124.506,52.171 119.295,52.171C114.328,52.171 109.837,53.644 105.821,56.591C101.806,59.537 98.633,63.491 96.303,68.452C93.973,73.413 92.808,78.952 92.808,85.069C92.808,91.112 93.973,96.632 96.303,101.631C98.633,106.629 101.806,110.601 105.821,113.548C109.837,116.495 114.328,117.968 119.295,117.968C124.445,117.968 129.043,116.402 133.09,113.268C134.5,112.075 135.788,110.844 136.953,109.576C136.953,109.576 140.355,114.723 147.161,125.018C143.298,128.897 138.96,131.937 134.147,134.138C129.335,136.339 124.2,137.439 118.743,137.439C112.673,137.439 107.002,136.077 101.729,133.355C96.456,130.632 91.812,126.883 87.796,122.109C83.78,117.334 80.638,111.776 78.369,105.435C76.101,99.094 74.966,92.306 74.966,85.069C74.966,77.833 76.101,71.044 78.369,64.703C80.638,58.362 83.78,52.805 87.796,48.03C91.812,43.256 96.456,39.507 101.729,36.784C107.002,34.061 112.673,32.7 118.743,32.7C124.2,32.7 129.35,33.782 134.193,35.945C139.037,38.108 143.36,41.167 147.161,45.121L136.769,60.339Z" style="fill-rule:nonzero;"/>
                    <path d="M194.782,137.439C188.712,137.439 183.041,136.077 177.768,133.355C172.495,130.632 167.851,126.883 163.835,122.109C159.819,117.334 156.677,111.776 154.408,105.435C152.139,99.094 151.005,92.306 151.005,85.069C151.005,77.833 152.139,71.044 154.408,64.703C156.677,58.362 159.819,52.805 163.835,48.03C167.851,43.256 172.495,39.507 177.768,36.784C183.041,34.061 188.712,32.7 194.782,32.7C200.852,32.7 206.523,34.061 211.796,36.784C217.069,39.507 221.713,43.256 225.729,48.03C229.745,52.805 232.887,58.362 235.156,64.703C237.424,71.044 238.558,77.833 238.558,85.069C238.558,92.306 237.424,99.094 235.156,105.435C232.887,111.776 229.745,117.334 225.729,122.109C221.713,126.883 217.069,130.632 211.796,133.355C206.523,136.077 200.852,137.439 194.782,137.439ZM194.782,117.968C199.748,117.968 204.224,116.495 208.209,113.548C212.194,110.601 215.367,106.629 217.728,101.631C220.088,96.632 221.269,91.112 221.269,85.069C221.269,78.952 220.088,73.413 217.728,68.452C215.367,63.491 212.194,59.537 208.209,56.591C204.224,53.644 199.748,52.171 194.782,52.171C189.816,52.171 185.324,53.644 181.309,56.591C177.293,59.537 174.12,63.491 171.79,68.452C169.46,73.413 168.295,78.952 168.295,85.069C168.295,91.112 169.46,96.632 171.79,101.631C174.12,106.629 177.293,110.601 181.309,113.548C185.324,116.495 189.816,117.968 194.782,117.968Z" style="fill-rule:nonzero;"/>
                </g>
                <path d="M238.411,124.57C238.411,118.901 239.592,113.679 241.952,108.904C244.313,104.13 247.531,100.269 251.609,97.323C255.686,94.376 260.269,92.902 265.358,92.902C270.324,92.902 274.892,94.338 279.061,97.211C283.23,100.083 286.556,103.906 289.04,108.68C291.523,113.455 292.764,118.789 292.764,124.682C292.764,128.263 292.228,131.676 291.155,134.921C290.082,138.166 288.38,141.766 286.051,145.72L267.381,177.723L293.776,177.723L293.776,195.851L239.515,195.851L273.175,135.76C274.585,133.149 275.536,131.005 276.026,129.326C276.517,127.648 276.762,126.1 276.762,124.682C276.762,120.878 275.658,117.651 273.451,115.003C271.244,112.355 268.515,111.03 265.266,111.03C262.016,111.03 259.303,112.355 257.127,115.003C254.95,117.651 253.862,120.878 253.862,124.682C253.862,124.682 248.712,124.645 238.411,124.57Z" style="fill-rule:nonzero;"/>
            </g>
            <g>
                <path d="M295.174,52.842L295.174,34.714L352.746,34.714L352.746,52.842L332.513,52.842L332.513,135.425L315.407,135.425L315.407,52.842L295.174,52.842Z" style="fill-rule:nonzero;"/>
                <path d="M404.671,135.425L386.277,97.155L373.769,97.155L373.769,135.425L357.767,135.425L357.767,34.714L383.058,34.714C389.067,34.714 394.202,36.169 398.463,39.078C402.724,41.988 405.989,45.848 408.257,50.66C410.526,55.472 411.66,60.75 411.66,66.494C411.66,71.716 410.725,76.453 408.855,80.705C406.985,84.957 404.333,88.464 400.9,91.224L418.006,125.801C418.006,125.801 413.561,129.009 404.671,135.425ZM373.769,80.37L382.69,80.37C385.695,80.37 388.147,79.679 390.048,78.299C391.948,76.919 393.359,75.166 394.278,73.04C395.198,70.914 395.658,68.732 395.658,66.494C395.658,62.54 394.462,59.276 392.071,56.703C389.68,54.129 386.553,52.842 382.69,52.842L373.769,52.842L373.769,80.37Z" style="fill-rule:nonzero;"/>
                <path d="M449.753,137.775C443.928,137.775 438.748,136.32 434.211,133.41C429.673,130.501 426.102,126.342 423.496,120.934C420.891,115.525 419.588,109.053 419.588,101.519L419.588,34.714L436.694,34.714L436.694,100.512C436.694,105.958 437.935,110.284 440.418,113.492C442.902,116.7 446.105,118.304 450.029,118.304C453.892,118.304 457.08,116.756 459.594,113.66C462.107,110.564 463.364,106.405 463.364,101.183L463.364,34.714L479.919,34.714L479.919,101.183C479.919,108.792 478.631,115.339 476.056,120.822C473.481,126.305 469.94,130.501 465.434,133.41C460.927,136.32 455.7,137.775 449.753,137.775Z" style="fill-rule:nonzero;"/>
                <path d="M526.583,57.206C525.357,56.012 524.039,54.931 522.628,53.961C519.195,51.574 515.792,50.38 512.42,50.38C509.416,50.38 507.101,51.313 505.476,53.178C503.852,55.043 503.039,57.355 503.039,60.116C503.039,61.831 503.361,63.361 504.005,64.703C504.649,66.046 505.584,67.24 506.81,68.284C508.036,69.329 509.477,70.373 511.132,71.417L520.973,77.348C522.628,78.318 524.437,79.568 526.399,81.097C528.361,82.626 530.262,84.547 532.101,86.86C533.94,89.172 535.443,91.951 536.607,95.196C537.772,98.442 538.355,102.302 538.355,106.778C538.355,112.597 537.251,117.838 535.044,122.5C532.837,127.163 529.725,130.855 525.709,133.578C521.693,136.301 516.896,137.663 511.316,137.663C506.289,137.663 501.522,136.525 497.015,134.25C492.509,131.974 488.907,129.233 486.209,126.025L496.51,112.037C497.552,113.082 498.655,114.089 499.82,115.059C503.744,118.043 507.76,119.535 511.868,119.535C515.24,119.535 517.892,118.416 519.823,116.178C521.755,113.94 522.72,111.217 522.72,108.009C522.72,105.398 522.214,103.235 521.203,101.519C520.191,99.803 518.996,98.386 517.616,97.267C516.237,96.148 515.026,95.29 513.983,94.693L504.235,88.762C501.414,87.046 498.717,85.013 496.142,82.664C493.567,80.314 491.467,77.386 489.842,73.879C488.217,70.373 487.405,66.046 487.405,60.899C487.405,55.229 488.462,50.268 490.578,46.016C492.693,41.764 495.682,38.444 499.544,36.057C503.407,33.67 507.944,32.476 513.156,32.476C518.061,32.476 522.429,33.427 526.261,35.329C530.093,37.232 533.205,39.265 535.596,41.428L526.583,57.206Z" style="fill-rule:nonzero;"/>
                <path d="M539.183,52.842L539.183,34.714L596.754,34.714L596.754,52.842L576.521,52.842L576.521,135.425L559.415,135.425L559.415,52.842L539.183,52.842Z" style="fill-rule:nonzero;"/>
            </g>
            <path d="M611.763,137.663C608.943,137.663 606.583,136.506 604.682,134.194C602.781,131.881 601.831,129.009 601.831,125.577C601.831,122.146 602.781,119.274 604.682,116.961C606.583,114.648 608.943,113.492 611.763,113.492C614.645,113.492 617.021,114.648 618.891,116.961C620.761,119.274 621.696,122.146 621.696,125.577C621.696,129.009 620.761,131.881 618.891,134.194C617.021,136.506 614.645,137.663 611.763,137.663Z" style="fill-rule:nonzero;"/>
            <g>
                <path d="M679.047,130.053C676.288,132.59 673.176,134.492 669.712,135.76C666.248,137.029 662.646,137.663 658.906,137.663C652.714,137.663 647.257,136.096 642.536,132.963C637.815,129.83 634.136,125.521 631.5,120.038C628.863,114.555 627.545,108.27 627.545,101.183C627.545,94.394 628.833,88.37 631.408,83.111C633.983,77.852 637.462,73.693 641.846,70.634C646.23,67.576 651.089,66.046 656.423,66.046C661.88,66.046 666.754,67.557 671.046,70.578C675.338,73.6 678.725,77.721 681.208,82.943C683.691,88.165 684.933,94.096 684.933,100.735L684.933,107.561L642.812,107.45C643.67,111.478 645.448,114.76 648.146,117.297C651.028,120.132 654.737,121.549 659.274,121.549C662.769,121.549 665.926,120.691 668.747,118.975C669.605,118.453 670.402,117.894 671.138,117.297C671.138,117.297 673.774,121.549 679.047,130.053ZM670.218,94.469C669.298,90.441 667.628,87.27 665.206,84.957C662.784,82.645 659.795,81.489 656.239,81.489C652.867,81.489 649.939,82.664 647.456,85.013C644.973,87.363 643.241,90.59 642.26,94.693C642.26,94.693 651.579,94.618 670.218,94.469Z" style="fill-rule:nonzero;"/>
                <path d="M721.242,137.215C716.153,137.215 711.524,135.611 707.355,132.403C703.186,129.196 699.859,124.925 697.376,119.591C694.893,114.257 693.652,108.345 693.652,101.854C693.652,95.364 694.893,89.434 697.376,84.062C699.859,78.691 703.186,74.42 707.355,71.25C711.524,68.079 716.153,66.494 721.242,66.494C724.798,66.494 728.047,67.259 730.99,68.788C733.933,70.317 736.447,72.425 738.532,75.11L738.532,68.284L752.327,68.284L752.327,135.425L738.532,135.425L738.532,128.599C736.447,131.284 733.933,133.392 730.99,134.921C728.047,136.45 724.798,137.215 721.242,137.215ZM723.173,120.094C725.871,120.094 728.323,119.274 730.531,117.632C732.738,115.991 734.501,113.791 735.819,111.03C737.137,108.27 737.796,105.212 737.796,101.854C737.796,98.497 737.137,95.439 735.819,92.679C734.501,89.918 732.738,87.718 730.531,86.076C728.323,84.435 725.871,83.615 723.173,83.615C720.475,83.615 718.023,84.435 715.816,86.076C713.609,87.718 711.846,89.918 710.528,92.679C709.209,95.439 708.55,98.497 708.55,101.854C708.55,105.212 709.209,108.27 710.528,111.03C711.846,113.791 713.609,115.991 715.816,117.632C718.023,119.274 720.475,120.094 723.173,120.094Z" style="fill-rule:nonzero;"/>
                <path d="M796.545,90.664C796.116,89.695 795.625,88.762 795.074,87.867C793.234,84.957 790.598,83.503 787.164,83.503C784.405,83.503 781.937,84.64 779.761,86.916C777.584,89.191 776.496,92.753 776.496,97.602L776.496,135.425L760.494,135.425L760.494,68.284L774.841,68.284L774.841,75.67C776.803,72.536 779.224,70.149 782.106,68.508C784.988,66.867 788.084,66.046 791.395,66.046C795.319,66.046 798.982,67.184 802.385,69.459C805.788,71.735 808.562,75.073 810.708,79.474C810.708,79.474 805.987,83.204 796.545,90.664Z" style="fill-rule:nonzero;"/>
                <path d="M826.49,135.425L826.49,83.727L816.189,83.727L816.189,68.284L826.766,68.284L826.766,45.904L842.216,45.904L842.216,68.284L853.16,68.284L853.16,83.727L842.492,83.727L842.492,135.425L826.49,135.425Z" style="fill-rule:nonzero;"/>
                <path d="M861.437,135.425L861.437,28L877.44,28L877.44,73.32C879.402,70.933 881.655,69.124 884.199,67.893C886.744,66.662 889.457,66.046 892.339,66.046C896.263,66.046 899.926,67.184 903.329,69.459C906.732,71.735 909.491,75.054 911.606,79.418C913.721,83.783 914.779,89.061 914.779,95.252L914.779,135.425L898.776,135.425L898.776,97.826C898.776,94.096 897.857,90.776 896.017,87.867C894.178,84.957 891.542,83.503 888.108,83.503C885.349,83.503 882.881,84.64 880.705,86.916C878.528,89.191 877.44,92.753 877.44,97.602L877.44,135.425L861.437,135.425Z" style="fill-rule:nonzero;"/>
            </g>
        </g>
        <path d="M442.013,125.531C442.013,125.531 442.833,219.814 442.323,245.031C442.203,250.953 440.148,257.034 438.952,262.477C437.83,267.581 436.551,273.01 435.147,277.687C433.838,282.047 432.122,286.275 430.526,290.538C428.814,295.111 426.81,300.66 424.873,305.128C423.07,309.286 420.981,313.316 418.905,317.345C416.598,321.823 413.8,327.193 411.028,331.995C408.218,336.863 405.177,341.785 402.047,346.55C398.91,351.327 395.276,356.458 392.205,360.655C389.447,364.424 386.547,368.089 383.622,371.73C380.616,375.472 377.43,379.522 374.169,383.105C370.958,386.632 367.567,390 364.054,393.227C360.224,396.745 355.323,400.85 351.19,404.214C347.295,407.384 343.283,410.407 339.257,413.409C335.121,416.493 330.359,419.898 326.375,422.717C322.731,425.295 318.975,427.845 315.354,430.321C311.796,432.754 308.164,435.257 304.649,437.574C301.218,439.836 297.742,442.03 294.266,444.222C290.763,446.432 287.215,448.688 283.634,450.83C279.641,453.219 274.821,456.107 270.306,458.554C265.635,461.085 255.606,466.02 255.606,466.02L255.57,221.621L442.013,125.531Z" style="fill:rgb(181,231,222);"/>
        <path d="M255.69,30.201L442.013,125.531L256.103,221.688L68.438,125.428L255.69,30.201Z" style="fill:url(#_Linear1);"/>
        <g transform="matrix(1.03283,0,0,1.03283,-50.1313,-65.5427)">
            <path d="M429.184,148.446C429.16,148.433 429.135,148.42 429.11,148.407L316.917,91.011C303.872,84.299 288.329,84.299 275.284,91.01C274.097,91.618 127.491,166.607 127.491,166.607C127.484,166.61 127.476,166.614 127.469,166.618C113.302,173.904 104.4,188.478 104.4,204.4C104.4,204.39 104.3,300.691 104.3,300.691C104.3,300.976 104.311,301.261 104.332,301.545C104.443,302.982 104.971,307.296 106.186,313.817C106.193,313.851 106.199,313.884 106.206,313.918C107.259,319.288 108.836,326.229 111.351,334.324C111.903,336.294 112.562,338.375 113.325,340.458C113.932,342.283 114.552,344.132 115.269,346.08C118.184,354.093 121.413,362.001 125.159,369.91C125.165,369.922 125.171,369.935 125.177,369.947C128.593,377.09 132.32,384.234 136.358,391.274C136.369,391.294 136.381,391.314 136.393,391.334C147.069,409.68 160.021,427.304 174.947,443.785C174.951,443.79 174.956,443.795 174.961,443.8C186.332,456.309 208.686,473.881 240.112,494.763C240.158,494.794 240.205,494.824 240.252,494.854C243.025,496.637 245.799,498.52 248.672,500.402C248.678,500.406 248.685,500.411 248.691,500.415C255.696,504.983 264.426,510.265 272.041,514.833C272.045,514.836 272.049,514.838 272.053,514.841C286.719,523.614 305.181,523.614 319.847,514.841C319.87,514.827 319.893,514.813 319.915,514.8C327.417,510.238 336.03,505.066 343.128,500.402C379.089,477.113 404.569,457.503 416.852,443.886C432.087,427.096 445.246,409.06 456.025,390.404C456.026,390.401 456.028,390.397 456.03,390.394C464.682,375.385 471.766,359.956 477.186,344.426C477.186,344.424 477.187,344.422 477.188,344.42C485.349,320.997 487.115,304.877 487.433,302.016C487.478,301.609 487.5,301.2 487.5,300.791L487.4,204.49C487.4,188.574 478.505,174.126 464.469,166.838C464.484,166.846 429.184,148.446 429.184,148.446ZM424.1,158.2L311.9,100.8C302,95.7 290.2,95.7 280.3,100.8L132.5,176.4C122,181.8 115.4,192.6 115.4,204.4L115.3,300.701C115.4,302.001 115.9,305.901 117,311.801C118,316.901 119.5,323.501 121.9,331.201C122.4,333.001 123,334.901 123.7,336.801C124.3,338.601 124.9,340.401 125.6,342.301C128.4,350.001 131.5,357.601 135.1,365.201C138.4,372.101 142,379.001 145.9,385.801C156.2,403.501 168.7,420.501 183.1,436.401C194.1,448.501 215.8,465.401 246.2,485.601C249,487.401 251.8,489.301 254.7,491.201C261.6,495.701 270.2,500.901 277.7,505.401C288.9,512.101 303,512.101 314.2,505.401C321.6,500.901 330.1,495.801 337.1,491.201C372,468.601 396.8,449.701 408.7,436.501C423.4,420.301 436.1,402.901 446.5,384.901C454.8,370.501 461.6,355.701 466.8,340.801C474.5,318.701 476.2,303.501 476.5,300.801L476.4,204.5C476.4,192.7 469.8,182 459.4,176.6L424.1,158.2Z" style="fill:rgb(9,10,11);"/>
        </g>
        <g transform="matrix(1.07572,0,0,1.07875,-62.3065,-79.2913)">
            <path d="M429.203,148.465C429.178,148.452 429.153,148.439 429.128,148.427C429.128,148.427 317.94,91.544 316.935,91.03C303.878,84.312 288.322,84.312 275.265,91.03L127.473,166.626C127.465,166.63 127.458,166.634 127.451,166.637C113.289,173.92 104.385,188.485 104.385,204.4C104.385,204.39 104.285,301.283 104.285,301.283C104.284,301.567 104.295,301.85 104.317,302.133C104.427,303.569 104.955,307.882 106.17,314.401C106.176,314.434 106.183,314.468 106.189,314.501C107.242,319.871 108.819,326.81 111.334,334.903C111.885,336.873 112.544,338.953 113.307,341.036C113.915,342.86 114.534,344.709 115.252,346.657C118.166,354.669 121.394,362.576 125.14,370.485C125.146,370.497 125.151,370.509 125.157,370.522C128.574,377.664 132.301,384.807 136.338,391.846C136.349,391.866 136.361,391.886 136.372,391.906C147.048,410.252 160,427.875 174.925,444.355C174.93,444.36 174.934,444.366 174.939,444.371C186.311,456.88 208.665,474.452 240.092,495.334C240.138,495.365 240.185,495.395 240.231,495.425C243.005,497.208 245.779,499.091 248.651,500.973C248.658,500.978 248.664,500.982 248.671,500.986C255.676,505.555 264.406,510.836 272.021,515.405C272.025,515.408 272.029,515.41 272.033,515.413C286.711,524.193 305.189,524.193 319.867,515.413C319.89,515.399 319.912,515.385 319.935,515.371C327.437,510.81 336.051,505.637 343.148,500.974C379.111,477.684 404.59,458.074 416.874,444.457C432.108,427.667 445.266,409.632 456.045,390.977C456.047,390.973 456.048,390.97 456.05,390.967C464.701,375.959 471.784,360.532 477.203,345.003C477.204,345.002 477.205,345 477.205,344.998C485.365,321.579 487.131,305.464 487.448,302.603C487.493,302.198 487.516,301.791 487.515,301.383L487.415,204.49C487.415,188.581 478.518,174.142 464.487,166.857C464.503,166.865 429.203,148.465 429.203,148.465ZM424.1,158.2L311.9,100.8C302,95.7 290.2,95.7 280.3,100.8L132.5,176.4C122,181.8 115.4,192.6 115.4,204.4L115.3,301.293C115.4,302.593 115.9,306.493 117,312.393C118,317.493 119.5,324.093 121.9,331.793C122.4,333.593 123,335.493 123.7,337.393C124.3,339.193 124.9,340.993 125.6,342.893C128.4,350.593 131.5,358.193 135.1,365.793C138.4,372.693 142,379.593 145.9,386.393C156.2,404.093 168.7,421.093 183.1,436.993C194.1,449.093 215.8,465.993 246.2,486.193C249,487.993 251.8,489.893 254.7,491.793C261.6,496.293 270.2,501.493 277.7,505.993C288.9,512.693 303,512.693 314.2,505.993C321.6,501.493 330.1,496.393 337.1,491.793C372,469.193 396.8,450.293 408.7,437.093C423.4,420.893 436.1,403.493 446.5,385.493C454.8,371.093 461.6,356.293 466.8,341.393C474.5,319.293 476.2,304.093 476.5,301.393L476.4,204.5C476.4,192.7 469.8,182 459.4,176.6L424.1,158.2Z" style="fill:white;"/>
        </g>
        <g transform="matrix(1,0,0,11.5851,0,-2861.93)">
            <rect x="250.585" y="270.296" width="17.261" height="16.698"/>
        </g>
        <g transform="matrix(1.03283,0,0,1.03283,-50.6641,-65.646)">
            <g transform="matrix(1,0,0,1,1,2)">
                <path d="M346.305,257.639L339.551,243.13L384.259,218.515L391.829,234.336L346.305,257.639Z" style="fill-rule:nonzero;"/>
            </g>
            <path d="M207.65,329.729L201.544,315.602C201.544,315.602 248.405,289.837 248.458,289.995C248.405,289.837 256.65,304.363 256.65,304.363L207.65,329.729Z" style="fill-rule:nonzero;"/>
            <circle cx="179.9" cy="333.2" r="27.9"/>
            <g transform="matrix(-1,0,0,1,595.2,0)">
                <circle cx="297.6" cy="273.9" r="51.7" style="fill:url(#_Radial2);"/>
            </g>
            <path d="M296.5,278L296.48,325.588C296.48,325.588 296.852,325.596 296.48,325.588C268.462,324.991 245.9,302.06 245.9,273.9C245.9,266.903 247.293,260.228 249.817,254.139C251.077,251.098 249.82,254.132 249.82,254.132L296.5,278Z"/>
            <g transform="matrix(-1,0,0,1,825.8,0)">
                <circle cx="412.9" cy="216.7" r="27.9" style="fill:url(#_Radial3);"/>
            </g>
        </g>
    </g>
    <g transform="matrix(1.41836,0,0,1.41836,149.114,-198.612)">
        <g transform="matrix(0.159877,0,0,0.171271,-11.7968,-179.015)">
            <path d="M284.6,2251.4C274.9,2251.4 265.8,2249.6 257.3,2246C248.9,2242.4 241.4,2237.5 235,2231.2C228.6,2224.9 223.5,2217.6 219.9,2209.2C216.3,2200.8 214.4,2191.9 214.4,2182.4C214.4,2172.9 216.2,2163.9 219.9,2155.6C223.5,2147.2 228.6,2139.9 235,2133.6C241.4,2127.3 248.9,2122.4 257.3,2118.8C265.7,2115.2 274.8,2113.4 284.6,2113.4C293.3,2113.4 301.6,2114.8 309.4,2117.7C316.658,2120.3 323.136,2124.04 328.916,2128.73C329.348,2129.08 330.2,2129.8 330.2,2129.8L312.965,2149.23C312.965,2149.23 312.422,2148.77 312.147,2148.55C310.748,2147.41 309.266,2146.33 307.7,2145.3C301.3,2141.1 293.9,2139 285.6,2139C277.6,2139 270.4,2140.9 264,2144.8C257.6,2148.7 252.5,2153.9 248.7,2160.4C245,2166.9 243.1,2174.2 243.1,2182.3C243.1,2190.3 245,2197.5 248.7,2204.1C252.4,2210.7 257.5,2215.9 264,2219.8C270.4,2223.7 277.6,2225.6 285.6,2225.6C293.9,2225.6 301.2,2223.5 307.6,2219.3C309.333,2218.16 310.971,2216.96 312.51,2215.69C312.835,2215.42 313.473,2214.87 313.473,2214.87L330.2,2234.8C330.2,2234.8 329.395,2235.45 328.989,2235.78C323.104,2240.41 316.596,2244.09 309.3,2246.8C301.6,2249.9 293.3,2251.4 284.6,2251.4Z" style="fill-rule:nonzero;"/>
            <path d="M317.088,2219.18L322.948,2207.94L339.675,2227.87C342.516,2231.25 343.039,2235.85 341.023,2239.72C340.296,2241.11 339.285,2242.32 338.07,2243.3L338.084,2243.29C338.084,2243.29 337.163,2244.04 336.753,2244.36C329.923,2249.74 322.373,2254.02 313.983,2257.15C304.819,2260.83 294.95,2262.64 284.6,2262.64C273.131,2262.64 262.376,2260.49 252.326,2256.23C252.31,2256.23 252.294,2256.22 252.277,2256.21C242.476,2252.01 233.733,2246.28 226.265,2238.93C218.83,2231.61 212.906,2223.13 208.724,2213.37C204.563,2203.66 202.363,2193.38 202.363,2182.4C202.363,2171.39 204.479,2160.97 208.728,2151.42C212.91,2141.66 218.833,2133.18 226.265,2125.87C233.733,2118.52 242.476,2112.79 252.277,2108.59C262.225,2104.32 272.995,2102.16 284.6,2102.16C294.844,2102.16 304.612,2103.83 313.799,2107.24C322.354,2110.32 330,2114.72 336.818,2120.26C337.256,2120.61 338.076,2121.3 338.236,2121.43C349.076,2130.56 330.2,2141.04 330.2,2141.04L339.471,2136.97L322.235,2156.39C320.091,2158.81 316.97,2160.27 313.634,2160.45L312.965,2160.46C309.73,2160.46 306.698,2159.25 304.483,2157.2L304.241,2157.02C303.152,2156.13 301.997,2155.29 300.777,2154.49C296.388,2151.61 291.292,2150.24 285.6,2150.24C280.043,2150.24 275.025,2151.5 270.58,2154.21C265.858,2157.09 262.111,2160.94 259.269,2165.78C256.503,2170.68 255.137,2176.2 255.137,2182.3C255.137,2188.39 256.551,2193.87 259.365,2198.89C262.063,2203.7 265.769,2207.5 270.509,2210.35C270.533,2210.36 270.556,2210.38 270.58,2210.39C275.025,2213.1 280.043,2214.36 285.6,2214.36C291.281,2214.36 296.296,2212.98 300.677,2210.11C302.037,2209.22 303.323,2208.27 304.531,2207.27C304.773,2207.07 305.313,2206.61 305.313,2206.61L309.944,2217.68C309.184,2218.23 308.402,2218.77 307.6,2219.3C301.2,2223.5 293.9,2225.6 285.6,2225.6C277.6,2225.6 270.4,2223.7 264,2219.8C257.5,2215.9 252.4,2210.7 248.7,2204.1C245,2197.5 243.1,2190.3 243.1,2182.3C243.1,2174.2 245,2166.9 248.7,2160.4C252.5,2153.9 257.6,2148.7 264,2144.8C270.4,2140.9 277.6,2139 285.6,2139C293.9,2139 301.3,2141.1 307.7,2145.3C309.266,2146.33 310.748,2147.41 312.147,2148.55C312.422,2148.77 312.965,2149.23 312.965,2149.23L330.2,2129.8C330.2,2129.8 329.348,2129.08 328.916,2128.73C323.136,2124.04 316.658,2120.3 309.4,2117.7C301.6,2114.8 293.3,2113.4 284.6,2113.4C274.8,2113.4 265.7,2115.2 257.3,2118.8C248.9,2122.4 241.4,2127.3 235,2133.6C228.6,2139.9 223.5,2147.2 219.9,2155.6C216.2,2163.9 214.4,2172.9 214.4,2182.4C214.4,2191.9 216.3,2200.8 219.9,2209.2C223.5,2217.6 228.6,2224.9 235,2231.2C241.4,2237.5 248.9,2242.4 257.3,2246C265.8,2249.6 274.9,2251.4 284.6,2251.4C293.3,2251.4 301.6,2249.9 309.3,2246.8C316.596,2244.09 323.104,2240.41 328.989,2235.78C329.395,2235.45 330.2,2234.8 330.2,2234.8L317.088,2219.18Z" style="fill:white;"/>
            <path d="M284.6,2251.4C274.9,2251.4 265.8,2249.6 257.3,2246C248.9,2242.4 241.4,2237.5 235,2231.2C228.6,2224.9 223.5,2217.6 219.9,2209.2C216.3,2200.8 214.4,2191.9 214.4,2182.4C214.4,2172.9 216.2,2163.9 219.9,2155.6C223.5,2147.2 228.6,2139.9 235,2133.6C241.4,2127.3 248.9,2122.4 257.3,2118.8C265.7,2115.2 274.8,2113.4 284.6,2113.4C293.3,2113.4 301.6,2114.8 309.4,2117.7C316.658,2120.3 323.136,2124.04 328.916,2128.73C329.348,2129.08 330.2,2129.8 330.2,2129.8L312.965,2149.23C312.965,2149.23 312.422,2148.77 312.147,2148.55C310.748,2147.41 309.266,2146.33 307.7,2145.3C301.3,2141.1 293.9,2139 285.6,2139C277.6,2139 270.4,2140.9 264,2144.8C257.6,2148.7 252.5,2153.9 248.7,2160.4C245,2166.9 243.1,2174.2 243.1,2182.3C243.1,2190.3 245,2197.5 248.7,2204.1C252.4,2210.7 257.5,2215.9 264,2219.8C270.4,2223.7 277.6,2225.6 285.6,2225.6C293.9,2225.6 301.2,2223.5 307.6,2219.3C309.333,2218.16 310.971,2216.96 312.51,2215.69C312.835,2215.42 313.473,2214.87 313.473,2214.87L330.2,2234.8C330.2,2234.8 329.395,2235.45 328.989,2235.78C323.104,2240.41 316.596,2244.09 309.3,2246.8C301.6,2249.9 293.3,2251.4 284.6,2251.4Z" style="fill-rule:nonzero;stroke:white;stroke-width:0.9px;"/>
        </g>
        <g transform="matrix(0.159877,0,0,0.171271,-11.7968,-179.015)">
            <path d="M417.2,2251.4C407.5,2251.4 398.4,2249.6 389.9,2246C381.5,2242.4 374,2237.5 367.6,2231.2C361.2,2224.9 356.1,2217.6 352.5,2209.2C348.9,2200.8 347,2191.9 347,2182.4C347,2172.9 348.8,2163.9 352.5,2155.6C356.1,2147.2 361.2,2139.9 367.6,2133.6C374,2127.3 381.5,2122.4 389.9,2118.8C398.3,2115.2 407.4,2113.4 417.2,2113.4C427,2113.4 436.1,2115.2 444.5,2118.8C453,2122.4 460.4,2127.3 466.8,2133.6C473.2,2139.9 478.2,2147.2 481.9,2155.6C485.5,2164 487.3,2172.9 487.3,2182.4C487.3,2191.9 485.5,2200.9 481.9,2209.2C478.3,2217.6 473.2,2224.9 466.8,2231.2C460.4,2237.5 452.9,2242.4 444.5,2246C436.1,2249.6 427,2251.4 417.2,2251.4ZM417.2,2225.7C425.1,2225.7 432.3,2223.8 438.7,2219.9C445.1,2216 450.2,2210.8 454,2204.2C457.8,2197.6 459.7,2190.3 459.7,2182.4C459.7,2174.4 457.8,2167.1 454,2160.5C450.2,2154 445.1,2148.8 438.7,2144.9C432.3,2141 425.1,2139.1 417.2,2139.1C409.2,2139.1 402,2141 395.6,2144.9C389.2,2148.8 384.1,2154 380.4,2160.5C376.7,2167 374.8,2174.3 374.8,2182.4C374.8,2190.4 376.7,2197.6 380.4,2204.2C384.1,2210.8 389.2,2216 395.6,2219.9C402,2223.8 409.2,2225.7 417.2,2225.7Z" style="fill-rule:nonzero;"/>
            <path d="M417.2,2262.64C428.805,2262.64 439.575,2260.47 449.523,2256.21C459.324,2252.01 468.067,2246.28 475.535,2238.93C482.965,2231.62 488.886,2223.14 493.068,2213.39C497.228,2203.79 499.337,2193.39 499.337,2182.4C499.337,2171.42 497.237,2161.14 493.076,2151.43C493.062,2151.39 493.048,2151.36 493.033,2151.33C488.75,2141.6 482.944,2133.16 475.535,2125.87C468.059,2118.51 459.419,2112.78 449.493,2108.58C439.554,2104.32 428.794,2102.16 417.2,2102.16C405.595,2102.16 394.825,2104.32 384.877,2108.59C375.076,2112.79 366.333,2118.52 358.865,2125.87C351.433,2133.18 345.51,2141.66 341.328,2151.42C337.079,2160.97 334.963,2171.39 334.963,2182.4C334.963,2193.38 337.163,2203.66 341.324,2213.37C345.506,2223.13 351.43,2231.61 358.865,2238.93C366.333,2246.28 375.076,2252.01 384.877,2256.21C384.894,2256.22 384.91,2256.23 384.926,2256.23C394.976,2260.49 405.731,2262.64 417.2,2262.64ZM417.2,2251.4C407.5,2251.4 398.4,2249.6 389.9,2246C381.5,2242.4 374,2237.5 367.6,2231.2C361.2,2224.9 356.1,2217.6 352.5,2209.2C348.9,2200.8 347,2191.9 347,2182.4C347,2172.9 348.8,2163.9 352.5,2155.6C356.1,2147.2 361.2,2139.9 367.6,2133.6C374,2127.3 381.5,2122.4 389.9,2118.8C398.3,2115.2 407.4,2113.4 417.2,2113.4C427,2113.4 436.1,2115.2 444.5,2118.8C453,2122.4 460.4,2127.3 466.8,2133.6C473.2,2139.9 478.2,2147.2 481.9,2155.6C485.5,2164 487.3,2172.9 487.3,2182.4C487.3,2191.9 485.5,2200.9 481.9,2209.2C478.3,2217.6 473.2,2224.9 466.8,2231.2C460.4,2237.5 452.9,2242.4 444.5,2246C436.1,2249.6 427,2251.4 417.2,2251.4ZM417.2,2225.7C425.1,2225.7 432.3,2223.8 438.7,2219.9C445.1,2216 450.2,2210.8 454,2204.2C457.8,2197.6 459.7,2190.3 459.7,2182.4C459.7,2174.4 457.8,2167.1 454,2160.5C450.2,2154 445.1,2148.8 438.7,2144.9C432.3,2141 425.1,2139.1 417.2,2139.1C409.2,2139.1 402,2141 395.6,2144.9C389.2,2148.8 384.1,2154 380.4,2160.5C376.7,2167 374.8,2174.3 374.8,2182.4C374.8,2190.4 376.7,2197.6 380.4,2204.2C384.1,2210.8 389.2,2216 395.6,2219.9C402,2223.8 409.2,2225.7 417.2,2225.7ZM417.2,2214.46C411.643,2214.46 406.625,2213.2 402.18,2210.49C397.496,2207.64 393.774,2203.82 391.065,2198.99C388.251,2193.97 386.837,2188.49 386.837,2182.4C386.837,2176.26 388.223,2170.7 391.03,2165.77C393.747,2161 397.481,2157.17 402.18,2154.31C406.625,2151.6 411.643,2150.34 417.2,2150.34C422.677,2150.34 427.683,2151.61 432.12,2154.31C436.85,2157.19 440.602,2161.05 443.414,2165.85C446.278,2170.84 447.663,2176.36 447.663,2182.4C447.663,2188.37 446.268,2193.89 443.397,2198.88C440.591,2203.75 436.846,2207.61 432.12,2210.49C427.683,2213.19 422.677,2214.46 417.2,2214.46Z" style="fill:white;"/>
            <path d="M417.2,2251.4C407.5,2251.4 398.4,2249.6 389.9,2246C381.5,2242.4 374,2237.5 367.6,2231.2C361.2,2224.9 356.1,2217.6 352.5,2209.2C348.9,2200.8 347,2191.9 347,2182.4C347,2172.9 348.8,2163.9 352.5,2155.6C356.1,2147.2 361.2,2139.9 367.6,2133.6C374,2127.3 381.5,2122.4 389.9,2118.8C398.3,2115.2 407.4,2113.4 417.2,2113.4C427,2113.4 436.1,2115.2 444.5,2118.8C453,2122.4 460.4,2127.3 466.8,2133.6C473.2,2139.9 478.2,2147.2 481.9,2155.6C485.5,2164 487.3,2172.9 487.3,2182.4C487.3,2191.9 485.5,2200.9 481.9,2209.2C478.3,2217.6 473.2,2224.9 466.8,2231.2C460.4,2237.5 452.9,2242.4 444.5,2246C436.1,2249.6 427,2251.4 417.2,2251.4ZM417.2,2225.7C425.1,2225.7 432.3,2223.8 438.7,2219.9C445.1,2216 450.2,2210.8 454,2204.2C457.8,2197.6 459.7,2190.3 459.7,2182.4C459.7,2174.4 457.8,2167.1 454,2160.5C450.2,2154 445.1,2148.8 438.7,2144.9C432.3,2141 425.1,2139.1 417.2,2139.1C409.2,2139.1 402,2141 395.6,2144.9C389.2,2148.8 384.1,2154 380.4,2160.5C376.7,2167 374.8,2174.3 374.8,2182.4C374.8,2190.4 376.7,2197.6 380.4,2204.2C384.1,2210.8 389.2,2216 395.6,2219.9C402,2223.8 409.2,2225.7 417.2,2225.7Z" style="fill-rule:nonzero;stroke:white;stroke-width:0.9px;"/>
        </g>
        <g id="_2_1_" transform="matrix(0.116552,0,0,0.757536,34.7151,12.0702)">
            <path d="M283.8,273.4L358.6,256.5C361.8,255.7 364,255.1 365.1,254.6C366.2,254.1 366.8,253.6 366.8,253.2C366.8,252.1 364.2,251.1 358.9,250.3C353.6,249.5 347.2,249.1 339.5,249.1C331.8,249.1 325.4,249.5 320.2,250.3C315.26,251.06 312.667,252 312.42,253.036C312.407,253.09 312.4,253.2 312.4,253.2L281,253.1C281,253.1 281.004,252.98 281.011,252.921C281.199,251.395 283.795,250.051 288.8,248.8C294,247.5 301,246.4 309.9,245.6C318.8,244.8 328.7,244.4 339.7,244.4C350.5,244.4 360.4,244.8 369.4,245.6C378.4,246.4 385.6,247.4 391,248.8C396.4,250.1 399.1,251.6 399.1,253.2C399.1,254.2 398,255.1 395.7,256C393.4,256.9 389.7,257.9 384.7,259L340.2,268.7L401.8,268.7L401.8,273.3L283.8,273.3L283.8,273.4Z" style="fill-rule:nonzero;"/>
            <path d="M312.058,255.74L312.4,255.74L313.098,255.678C316.209,255.393 328.668,254.187 328.92,253.129C329.014,252.738 330.009,252.384 331.875,252.096C333.919,251.782 336.474,251.64 339.5,251.64C342.6,251.64 345.203,251.791 347.336,252.113C349.321,252.413 350.288,252.788 350.288,253.2C350.288,253.368 349.922,253.575 349.46,253.785C348.677,254.141 346.996,254.554 344.755,255.114C344.74,255.118 270.152,271.97 270.152,271.97L283.071,275.728L267.288,273.303C267.288,273.303 267.288,273.384 267.288,273.398C267.288,275.718 283.8,275.94 283.8,275.94C285.363,275.94 286.897,275.906 288.361,275.84L401.8,275.84C410.919,275.84 418.312,274.703 418.312,273.3L418.312,268.7C418.312,267.297 410.919,266.16 401.8,266.16L372.066,266.16L398.231,260.456C404.098,259.165 408.368,257.986 411.067,256.93C414.131,255.731 415.612,254.532 415.612,253.2C415.612,251.116 412.045,249.164 405.058,247.467C398.217,245.702 389.117,244.419 377.66,243.4C366.154,242.377 353.508,241.86 339.7,241.86C325.619,241.86 312.964,242.382 301.571,243.406C290.263,244.423 281.345,245.817 274.738,247.468C268.173,249.11 264.748,250.871 264.502,252.873C264.494,252.937 264.488,253.084 264.488,253.084C264.488,253.084 281,255.64 281,255.64C280.886,255.64 280.772,255.64 280.658,255.64L312.058,255.74ZM284.243,273.3L283.8,273.4L283.8,273.3L284.243,273.3L358.6,256.5C361.8,255.7 364,255.1 365.1,254.6C366.2,254.1 366.8,253.6 366.8,253.2C366.8,252.1 364.2,251.1 358.9,250.3C353.6,249.5 347.2,249.1 339.5,249.1C331.8,249.1 325.4,249.5 320.2,250.3C315.26,251.06 312.667,252 312.42,253.036C312.407,253.09 312.4,253.2 312.4,253.2L281,253.1C281,253.1 281.004,252.98 281.011,252.921C281.199,251.395 283.795,250.051 288.8,248.8C294,247.5 301,246.4 309.9,245.6C318.8,244.8 328.7,244.4 339.7,244.4C350.5,244.4 360.4,244.8 369.4,245.6C378.4,246.4 385.6,247.4 391,248.8C396.4,250.1 399.1,251.6 399.1,253.2C399.1,254.2 398,255.1 395.7,256C393.4,256.9 389.7,257.9 384.7,259L340.2,268.7L401.8,268.7L401.8,273.3L284.243,273.3ZM297.004,253.345C294.224,254.47 281,255.64 281,255.64C289.439,255.64 296.411,254.666 297.391,253.405L297.004,253.345Z" style="fill:white;"/>
            <path d="M283.8,273.4L358.6,256.5C361.8,255.7 364,255.1 365.1,254.6C366.2,254.1 366.8,253.6 366.8,253.2C366.8,252.1 364.2,251.1 358.9,250.3C353.6,249.5 347.2,249.1 339.5,249.1C331.8,249.1 325.4,249.5 320.2,250.3C315.26,251.06 312.667,252 312.42,253.036C312.407,253.09 312.4,253.2 312.4,253.2L281,253.1C281,253.1 281.004,252.98 281.011,252.921C281.199,251.395 283.795,250.051 288.8,248.8C294,247.5 301,246.4 309.9,245.6C318.8,244.8 328.7,244.4 339.7,244.4C350.5,244.4 360.4,244.8 369.4,245.6C378.4,246.4 385.6,247.4 391,248.8C396.4,250.1 399.1,251.6 399.1,253.2C399.1,254.2 398,255.1 395.7,256C393.4,256.9 389.7,257.9 384.7,259L340.2,268.7L401.8,268.7L401.8,273.3L283.8,273.3L283.8,273.4Z" style="fill-rule:nonzero;stroke:white;stroke-width:0.28px;"/>
        </g>
    </g>
    <g transform="matrix(1.41836,0,0,1.41836,149.114,-198.612)">
        <g transform="matrix(0.159877,0,0,0.171271,-11.7968,-179.015)">
            <path d="M589.9,2140L589.9,2116.1L682.2,2116.1L682.2,2140L649.8,2140L649.8,2248.8L622.4,2248.8L622.4,2140L589.9,2140Z" style="fill-rule:nonzero;"/>
            <path d="M577.863,2140C577.863,2146.21 583.252,2151.24 589.9,2151.24L610.363,2151.24C610.363,2151.24 610.363,2248.8 610.363,2248.8C610.363,2255.01 615.752,2260.04 622.4,2260.04L649.8,2260.04C656.448,2260.04 661.837,2255.01 661.837,2248.8L661.837,2151.24C661.837,2151.24 682.2,2151.24 682.2,2151.24C688.848,2151.24 694.237,2146.21 694.237,2140L694.237,2116.1C694.237,2109.89 688.848,2104.86 682.2,2104.86L589.9,2104.86C583.252,2104.86 577.863,2109.89 577.863,2116.1L577.863,2140ZM589.9,2140L589.9,2116.1L682.2,2116.1L682.2,2140L649.8,2140L649.8,2248.8L622.4,2248.8L622.4,2140L589.9,2140Z" style="fill:white;"/>
            <path d="M589.9,2140L589.9,2116.1L682.2,2116.1L682.2,2140L649.8,2140L649.8,2248.8L622.4,2248.8L622.4,2140L589.9,2140Z" style="fill-rule:nonzero;stroke:white;stroke-width:0.9px;"/>
        </g>
        <g transform="matrix(0.159877,0,0,0.171271,-11.7968,-179.015)">
            <path d="M700,2248.8L700,2116.1L740.5,2116.1C750.1,2116.1 758.4,2118 765.2,2121.8C772,2125.6 777.3,2130.7 780.9,2137.1C784.5,2143.4 786.4,2150.4 786.4,2158C786.4,2164.9 784.9,2171.1 781.9,2176.7C778.9,2182.3 774.7,2186.9 769.2,2190.6L796.412,2235.72L775.3,2248.8L745.8,2198.4L725.8,2198.4L725.8,2248.8L700,2248.8ZM725.7,2176.2L740,2176.2C744.8,2176.2 748.7,2175.3 751.8,2173.5C754.8,2171.7 757.1,2169.4 758.6,2166.6C760.1,2163.8 760.8,2160.9 760.8,2158C760.8,2152.8 758.9,2148.5 755.1,2145.1C751.3,2141.7 746.3,2140 740.1,2140L725.8,2140L725.8,2176.2L725.7,2176.2Z" style="fill-rule:nonzero;"/>
            <path d="M687.963,2248.7L700,2260.04L725.8,2260.04C732.448,2260.04 737.837,2255.01 737.837,2248.8L737.837,2209.64C737.837,2209.64 738.66,2209.64 738.66,2209.64C738.66,2209.64 764.737,2254.19 764.737,2254.19C766.353,2256.95 769.137,2258.95 772.41,2259.71C775.684,2260.46 779.147,2259.9 781.956,2258.16L803.068,2245.08C808.323,2241.83 809.996,2235.34 806.902,2230.21L784.43,2192.95C787.702,2189.62 790.439,2185.88 792.666,2181.73C796.475,2174.62 798.437,2166.76 798.437,2158C798.437,2148.49 796.039,2139.73 791.537,2131.84C786.905,2123.62 780.121,2117.04 771.383,2112.16C762.869,2107.4 752.52,2104.86 740.5,2104.86L700,2104.86C693.352,2104.86 687.963,2109.89 687.963,2116.1L687.963,2248.7L700,2259.94C700,2259.94 687.963,2248.7 687.963,2248.7ZM700,2248.8L700,2116.1L740.5,2116.1C750.1,2116.1 758.4,2118 765.2,2121.8C772,2125.6 777.3,2130.7 780.9,2137.1C784.5,2143.4 786.4,2150.4 786.4,2158C786.4,2164.9 784.9,2171.1 781.9,2176.7C778.9,2182.3 774.7,2186.9 769.2,2190.6L796.412,2235.72L775.3,2248.8L745.8,2198.4L725.8,2198.4L725.8,2248.8L700,2248.8ZM741.248,2140.02L740.1,2140L725.8,2140L725.8,2176.2L740,2176.2C744.8,2176.2 748.7,2175.3 751.8,2173.5C754.8,2171.7 757.1,2169.4 758.6,2166.6C760.1,2163.8 760.8,2160.9 760.8,2158C760.8,2152.8 758.9,2148.5 755.1,2145.1C751.537,2141.91 746.92,2140.22 741.248,2140.02ZM737.837,2164.96L740,2164.96C742.155,2164.96 743.966,2164.79 745.405,2163.98C746.45,2163.33 747.304,2162.56 747.834,2161.57C748.458,2160.41 748.763,2159.21 748.763,2158C748.763,2156.09 748.169,2154.46 746.77,2153.21C745.105,2151.72 742.818,2151.24 740.1,2151.24C740.1,2151.24 737.837,2151.24 737.837,2151.24L737.837,2164.96Z" style="fill:white;"/>
            <path d="M700,2248.8L700,2116.1L740.5,2116.1C750.1,2116.1 758.4,2118 765.2,2121.8C772,2125.6 777.3,2130.7 780.9,2137.1C784.5,2143.4 786.4,2150.4 786.4,2158C786.4,2164.9 784.9,2171.1 781.9,2176.7C778.9,2182.3 774.7,2186.9 769.2,2190.6L796.412,2235.72L775.3,2248.8L745.8,2198.4L725.8,2198.4L725.8,2248.8L700,2248.8ZM725.7,2176.2L740,2176.2C744.8,2176.2 748.7,2175.3 751.8,2173.5C754.8,2171.7 757.1,2169.4 758.6,2166.6C760.1,2163.8 760.8,2160.9 760.8,2158C760.8,2152.8 758.9,2148.5 755.1,2145.1C751.3,2141.7 746.3,2140 740.1,2140L725.8,2140L725.8,2176.2L725.7,2176.2Z" style="fill-rule:nonzero;stroke:white;stroke-width:0.9px;"/>
        </g>
        <g transform="matrix(0.159877,0,0,0.171271,-11.7968,-179.015)">
            <path d="M854.9,2251.8C845.6,2251.8 837.3,2249.9 830,2246C822.7,2242.2 817,2236.7 812.8,2229.6C808.6,2222.5 806.5,2213.9 806.5,2204L806.5,2116L834,2116L834,2202.6C834,2209.8 836,2215.5 840,2219.7C844,2223.9 849.1,2226 855.4,2226C861.6,2226 866.7,2224 870.7,2219.9C874.7,2215.8 876.7,2210.3 876.7,2203.5L876.7,2116L903.2,2116L903.2,2203.5C903.2,2213.5 901.1,2222.1 897,2229.4C892.9,2236.6 887.2,2242.1 880,2246C872.8,2249.9 864.4,2251.8 854.9,2251.8Z" style="fill-rule:nonzero;"/>
            <path d="M854.9,2263.04C866.698,2263.04 877.1,2260.56 886.041,2255.72C895.177,2250.77 902.427,2243.81 907.629,2234.67C907.64,2234.66 907.65,2234.64 907.661,2234.62C912.591,2225.84 915.237,2215.52 915.237,2203.5L915.237,2116C915.237,2109.79 909.848,2104.76 903.2,2104.76L876.7,2104.76C870.052,2104.76 864.663,2109.79 864.663,2116L864.663,2203.5C864.663,2207.12 863.93,2210.15 861.8,2212.33C860.139,2214.04 857.975,2214.76 855.4,2214.76C852.795,2214.76 850.65,2213.97 848.996,2212.23C846.768,2209.89 846.037,2206.61 846.037,2202.6C846.037,2202.6 846.037,2116 846.037,2116C846.037,2109.79 840.648,2104.76 834,2104.76L806.5,2104.76C799.852,2104.76 794.463,2109.79 794.463,2116L794.463,2204C794.463,2216.01 797.166,2226.42 802.262,2235.03C807.583,2244.03 814.839,2250.96 824.078,2255.78C833.124,2260.6 843.383,2263.04 854.9,2263.04ZM854.9,2251.8C845.6,2251.8 837.3,2249.9 830,2246C822.7,2242.2 817,2236.7 812.8,2229.6C808.6,2222.5 806.5,2213.9 806.5,2204L806.5,2116L834,2116L834,2202.6C834,2209.8 836,2215.5 840,2219.7C844,2223.9 849.1,2226 855.4,2226C861.6,2226 866.7,2224 870.7,2219.9C874.7,2215.8 876.7,2210.3 876.7,2203.5L876.7,2116L903.2,2116L903.2,2203.5C903.2,2213.5 901.1,2222.1 897,2229.4C892.9,2236.6 887.2,2242.1 880,2246C872.8,2249.9 864.4,2251.8 854.9,2251.8Z" style="fill:white;"/>
            <path d="M854.9,2251.8C845.6,2251.8 837.3,2249.9 830,2246C822.7,2242.2 817,2236.7 812.8,2229.6C808.6,2222.5 806.5,2213.9 806.5,2204L806.5,2116L834,2116L834,2202.6C834,2209.8 836,2215.5 840,2219.7C844,2223.9 849.1,2226 855.4,2226C861.6,2226 866.7,2224 870.7,2219.9C874.7,2215.8 876.7,2210.3 876.7,2203.5L876.7,2116L903.2,2116L903.2,2203.5C903.2,2213.5 901.1,2222.1 897,2229.4C892.9,2236.6 887.2,2242.1 880,2246C872.8,2249.9 864.4,2251.8 854.9,2251.8Z" style="fill-rule:nonzero;stroke:white;stroke-width:0.9px;"/>
        </g>
        <g transform="matrix(0.159877,0,0,0.171271,-11.7475,-178.966)">
            <path d="M962.1,2251.7C954,2251.7 946.4,2250.2 939.2,2247.2C932.677,2244.48 927.304,2241.27 923.153,2237.57C922.722,2237.18 921.9,2236.4 921.9,2236.4L936.737,2216.54C936.737,2216.54 937.528,2217.27 937.935,2217.62C939.703,2219.16 941.626,2220.58 943.7,2221.9C950,2225.9 956.4,2227.9 963,2227.9C968.4,2227.9 972.7,2226.4 975.7,2223.5C978.8,2220.6 980.3,2217 980.3,2212.7C980.3,2209.3 979.5,2206.4 977.9,2204.2C976.3,2201.9 974.4,2200.1 972.2,2198.6C970,2197.1 968,2196 966.4,2195.2L950.8,2187.4C946.3,2185.1 942,2182.5 937.8,2179.4C933.7,2176.3 930.3,2172.4 927.7,2167.8C925.1,2163.2 923.8,2157.5 923.8,2150.7C923.8,2143.2 925.5,2136.7 928.9,2131.1C932.3,2125.5 937.1,2121.1 943.3,2118C949.5,2114.9 956.8,2113.3 965.1,2113.3C973,2113.3 980,2114.6 986.1,2117.1C991.341,2119.25 995.769,2121.54 999.386,2123.92C999.979,2124.31 1001.1,2125.1 1001.1,2125.1L985.59,2145.05C985.59,2145.05 982.091,2142.57 980.2,2141.5C974.7,2138.4 969.3,2136.9 963.9,2136.9C959.1,2136.9 955.4,2138.1 952.8,2140.6C950.2,2143.1 948.9,2146.1 948.9,2149.7C948.9,2152 949.4,2154 950.4,2155.7C951.4,2157.5 952.9,2159 954.9,2160.4C956.9,2161.8 959.2,2163.2 961.8,2164.5L977.6,2172.3C980.3,2173.6 983.2,2175.2 986.3,2177.2C989.4,2179.2 992.5,2181.7 995.4,2184.8C998.3,2187.8 1000.8,2191.5 1002.6,2195.8C1004.5,2200.1 1005.4,2205.2 1005.4,2211C1005.4,2218.7 1003.6,2225.6 1000.1,2231.7C996.6,2237.8 991.6,2242.7 985.1,2246.3C978.7,2249.9 971,2251.7 962.1,2251.7Z" style="fill-rule:nonzero;"/>
            <path d="M936.865,2216.66C937.481,2209.82 939.452,2203.29 945.189,2208.54C945.295,2208.64 945.838,2209.14 946.132,2209.39C947.462,2210.55 948.91,2211.62 950.47,2212.61C954.577,2215.22 958.697,2216.66 963,2216.66C964.663,2216.66 966.117,2216.59 967.041,2215.69C967.087,2215.65 967.133,2215.61 967.179,2215.56C967.989,2214.8 968.263,2213.82 968.263,2212.7C968.263,2211.85 968.343,2211.06 967.941,2210.51C967.895,2210.45 967.849,2210.38 967.804,2210.32C967.047,2209.23 966.141,2208.38 965.1,2207.67C963.437,2206.54 961.925,2205.71 960.716,2205.11L945.019,2197.26C939.935,2194.66 935.079,2191.72 930.334,2188.21C930.297,2188.19 930.26,2188.16 930.223,2188.13C924.885,2184.1 920.439,2179.03 917.054,2173.04C913.651,2167.02 911.763,2159.6 911.763,2150.7C911.763,2141.07 914.062,2132.75 918.428,2125.56C922.959,2118.1 929.353,2112.23 937.616,2108.1C945.44,2104.18 954.626,2102.06 965.1,2102.06C974.826,2102.06 983.429,2103.73 990.939,2106.81C997.011,2109.3 1002.13,2111.98 1006.32,2114.74C1006.95,2115.15 1008.08,2115.94 1008.3,2116.09C1020.16,2124.41 1001.1,2136.34 1001.1,2136.34L1010.84,2131.7L995.333,2151.65C993.43,2154.1 990.549,2155.73 987.343,2156.17C984.137,2156.61 980.876,2155.82 978.298,2153.99C978.298,2153.99 975.498,2151.98 973.978,2151.12C970.563,2149.19 967.253,2148.14 963.9,2148.14C962.889,2148.14 961.985,2147.9 961.437,2148.43C961.077,2148.77 960.937,2149.2 960.937,2149.7C960.937,2149.92 960.855,2150.13 960.951,2150.29C960.997,2150.37 961.042,2150.45 961.086,2150.53C961.294,2150.9 961.706,2151.12 962.122,2151.41C963.671,2152.49 965.452,2153.58 967.465,2154.59C967.465,2154.59 983.186,2162.35 983.186,2162.35C986.278,2163.84 989.598,2165.67 993.144,2167.96C996.979,2170.43 1000.82,2173.52 1004.41,2177.35C1008.17,2181.25 1011.43,2186.05 1013.77,2191.62C1016.18,2197.11 1017.44,2203.6 1017.44,2211C1017.44,2220.68 1015.11,2229.34 1010.71,2237.01C1006.17,2244.91 999.697,2251.27 991.274,2255.95C983.142,2260.51 973.401,2262.94 962.1,2262.94C952.264,2262.94 943.037,2261.1 934.294,2257.46C926.367,2254.16 919.881,2250.19 914.837,2245.69C914.36,2245.27 913.325,2244.29 913.325,2244.29L913.339,2244.29C912.504,2243.51 911.791,2242.61 911.228,2241.6C909.153,2237.89 909.461,2233.41 912.027,2229.97L926.864,2210.12C924.298,2213.55 923.99,2218.03 926.065,2221.74C926.666,2222.82 927.438,2223.78 928.345,2224.59L930.197,2225.3L921.9,2236.4C921.9,2236.4 922.722,2237.18 923.153,2237.57C927.304,2241.27 932.677,2244.48 939.2,2247.2C946.4,2250.2 954,2251.7 962.1,2251.7C971,2251.7 978.7,2249.9 985.1,2246.3C991.6,2242.7 996.6,2237.8 1000.1,2231.7C1003.6,2225.6 1005.4,2218.7 1005.4,2211C1005.4,2205.2 1004.5,2200.1 1002.6,2195.8C1000.8,2191.5 998.3,2187.8 995.4,2184.8C992.5,2181.7 989.4,2179.2 986.3,2177.2C983.2,2175.2 980.3,2173.6 977.6,2172.3L961.8,2164.5C959.2,2163.2 956.9,2161.8 954.9,2160.4C952.9,2159 951.4,2157.5 950.4,2155.7C949.4,2154 948.9,2152 948.9,2149.7C948.9,2146.1 950.2,2143.1 952.8,2140.6C955.4,2138.1 959.1,2136.9 963.9,2136.9C969.3,2136.9 974.7,2138.4 980.2,2141.5C982.091,2142.57 985.59,2145.05 985.59,2145.05L1001.1,2125.1C1001.1,2125.1 999.979,2124.31 999.386,2123.92C995.769,2121.54 991.341,2119.25 986.1,2117.1C980,2114.6 973,2113.3 965.1,2113.3C956.8,2113.3 949.5,2114.9 943.3,2118C937.1,2121.1 932.3,2125.5 928.9,2131.1C925.5,2136.7 923.8,2143.2 923.8,2150.7C923.8,2157.5 925.1,2163.2 927.7,2167.8C930.3,2172.4 933.7,2176.3 937.8,2179.4C942,2182.5 946.3,2185.1 950.8,2187.4L966.4,2195.2C968,2196 970,2197.1 972.2,2198.6C974.4,2200.1 976.3,2201.9 977.9,2204.2C979.5,2206.4 980.3,2209.3 980.3,2212.7C980.3,2217 978.8,2220.6 975.7,2223.5C972.7,2226.4 968.4,2227.9 963,2227.9C956.4,2227.9 950,2225.9 943.7,2221.9C941.626,2220.58 939.703,2219.16 937.935,2217.62L936.865,2216.66Z" style="fill:white;"/>
            <path d="M962.1,2251.7C954,2251.7 946.4,2250.2 939.2,2247.2C932.677,2244.48 927.304,2241.27 923.153,2237.57C922.722,2237.18 921.9,2236.4 921.9,2236.4L936.737,2216.54C936.737,2216.54 937.528,2217.27 937.935,2217.62C939.703,2219.16 941.626,2220.58 943.7,2221.9C950,2225.9 956.4,2227.9 963,2227.9C968.4,2227.9 972.7,2226.4 975.7,2223.5C978.8,2220.6 980.3,2217 980.3,2212.7C980.3,2209.3 979.5,2206.4 977.9,2204.2C976.3,2201.9 974.4,2200.1 972.2,2198.6C970,2197.1 968,2196 966.4,2195.2L950.8,2187.4C946.3,2185.1 942,2182.5 937.8,2179.4C933.7,2176.3 930.3,2172.4 927.7,2167.8C925.1,2163.2 923.8,2157.5 923.8,2150.7C923.8,2143.2 925.5,2136.7 928.9,2131.1C932.3,2125.5 937.1,2121.1 943.3,2118C949.5,2114.9 956.8,2113.3 965.1,2113.3C973,2113.3 980,2114.6 986.1,2117.1C991.341,2119.25 995.769,2121.54 999.386,2123.92C999.979,2124.31 1001.1,2125.1 1001.1,2125.1L985.59,2145.05C985.59,2145.05 982.091,2142.57 980.2,2141.5C974.7,2138.4 969.3,2136.9 963.9,2136.9C959.1,2136.9 955.4,2138.1 952.8,2140.6C950.2,2143.1 948.9,2146.1 948.9,2149.7C948.9,2152 949.4,2154 950.4,2155.7C951.4,2157.5 952.9,2159 954.9,2160.4C956.9,2161.8 959.2,2163.2 961.8,2164.5L977.6,2172.3C980.3,2173.6 983.2,2175.2 986.3,2177.2C989.4,2179.2 992.5,2181.7 995.4,2184.8C998.3,2187.8 1000.8,2191.5 1002.6,2195.8C1004.5,2200.1 1005.4,2205.2 1005.4,2211C1005.4,2218.7 1003.6,2225.6 1000.1,2231.7C996.6,2237.8 991.6,2242.7 985.1,2246.3C978.7,2249.9 971,2251.7 962.1,2251.7Z" style="fill-rule:nonzero;stroke:white;stroke-width:0.9px;"/>
        </g>
        <g transform="matrix(0.159877,0,0,0.171271,-11.7968,-179.015)">
            <path d="M1012.9,2140L1012.9,2116.1L1105.2,2116.1L1105.2,2140L1072.8,2140L1072.8,2248.8L1045.4,2248.8L1045.4,2140L1012.9,2140Z" style="fill-rule:nonzero;"/>
            <path d="M1000.86,2140C1000.86,2146.21 1006.25,2151.24 1012.9,2151.24L1033.36,2151.24C1033.36,2151.24 1033.36,2248.8 1033.36,2248.8C1033.36,2255.01 1038.75,2260.04 1045.4,2260.04L1072.8,2260.04C1079.45,2260.04 1084.84,2255.01 1084.84,2248.8L1084.84,2151.24C1084.84,2151.24 1105.2,2151.24 1105.2,2151.24C1111.85,2151.24 1117.24,2146.21 1117.24,2140L1117.24,2116.1C1117.24,2109.89 1111.85,2104.86 1105.2,2104.86L1012.9,2104.86C1006.25,2104.86 1000.86,2109.89 1000.86,2116.1L1000.86,2140ZM1012.9,2140L1012.9,2116.1L1105.2,2116.1L1105.2,2140L1072.8,2140L1072.8,2248.8L1045.4,2248.8L1045.4,2140L1012.9,2140Z" style="fill:white;"/>
            <path d="M1012.9,2140L1012.9,2116.1L1105.2,2116.1L1105.2,2140L1072.8,2140L1072.8,2248.8L1045.4,2248.8L1045.4,2140L1012.9,2140Z" style="fill-rule:nonzero;stroke:white;stroke-width:0.9px;"/>
        </g>
    </g>
    <defs>
        <linearGradient id="_Linear1" x1="0" y1="0" x2="1" y2="0" gradientUnits="userSpaceOnUse" gradientTransform="matrix(-0.456304,-193.32,193.32,-0.456304,256.146,223.521)"><stop offset="0" style="stop-color:rgb(238,250,248);stop-opacity:1"/><stop offset="0.85" style="stop-color:rgb(205,244,249);stop-opacity:1"/><stop offset="1" style="stop-color:rgb(184,239,244);stop-opacity:1"/></linearGradient>
        <radialGradient id="_Radial2" cx="0" cy="0" r="1" gradientUnits="userSpaceOnUse" gradientTransform="matrix(67.8737,6.30863,-6.30863,67.8737,283.898,254.994)"><stop offset="0" style="stop-color:rgb(102,109,111);stop-opacity:1"/><stop offset="0" style="stop-color:rgb(102,109,111);stop-opacity:1"/><stop offset="0.15" style="stop-color:rgb(78,84,85);stop-opacity:1"/><stop offset="0.4" style="stop-color:rgb(45,48,49);stop-opacity:1"/><stop offset="0.63" style="stop-color:rgb(20,21,22);stop-opacity:1"/><stop offset="0.84" style="stop-color:rgb(5,6,6);stop-opacity:1"/><stop offset="1" style="stop-color:black;stop-opacity:1"/></radialGradient>
        <radialGradient id="_Radial3" cx="0" cy="0" r="1" gradientUnits="userSpaceOnUse" gradientTransform="matrix(35.0353,3.25641,-3.25641,35.0353,402.886,203.813)"><stop offset="0" style="stop-color:rgb(85,91,92);stop-opacity:1"/><stop offset="0" style="stop-color:rgb(102,109,111);stop-opacity:1"/><stop offset="0.15" style="stop-color:rgb(78,84,85);stop-opacity:1"/><stop offset="0.4" style="stop-color:rgb(45,48,49);stop-opacity:1"/><stop offset="0.63" style="stop-color:rgb(20,21,22);stop-opacity:1"/><stop offset="0.84" style="stop-color:rgb(5,6,6);stop-opacity:1"/><stop offset="1" style="stop-color:black;stop-opacity:1"/></radialGradient>
    </defs>
</svg>
