<?xml version="1.0" encoding="UTF-8" standalone="no"?><!DOCTYPE svg PUBLIC "-//W3C//DTD SVG 1.1//EN" "http://www.w3.org/Graphics/SVG/1.1/DTD/svg11.dtd"><svg width="100%" height="100%" viewBox="0 0 9375 9375" version="1.1" xmlns="http://www.w3.org/2000/svg" xmlns:xlink="http://www.w3.org/1999/xlink" xml:space="preserve" xmlns:serif="http://www.serif.com/" style="fill-rule:evenodd;clip-rule:evenodd;stroke-linejoin:round;stroke-miterlimit:2;"><g><path d="M3046.49,2667.03l1637.26,840.387l-2.563,2157.01c-0,0 -97.361,-63.685 -130.442,-84.351c-22.267,-13.911 -45.452,-26.274 -68.043,-39.651c-28.321,-16.772 -68.313,-40.01 -101.875,-60.982c-37.412,-23.369 -82.033,-52.347 -122.577,-79.251c-48.47,-32.17 -125.131,-84.088 -168.265,-113.792c-30.517,-21.015 -60.518,-42.766 -90.563,-64.446c-31.103,-22.451 -64.682,-45.96 -96.04,-70.248c-33.238,-25.74 -71.332,-56.931 -103.398,-84.211c-30.298,-25.766 -61.087,-52.303 -89.014,-79.451c-27.403,-26.633 -53.283,-54.814 -78.577,-83.45c-27.455,-31.095 -60.886,-71.648 -86.162,-103.11c-22.52,-28.023 -44.288,-56.651 -65.514,-85.654c-21.996,-30.054 -45.33,-62.4 -66.433,-94.658c-28.645,-43.781 -73.344,-110.975 -105.436,-168.046c-31.856,-56.634 -60.178,-116.111 -87.134,-174.381c-26.667,-57.613 -53.274,-115.437 -74.639,-175.211c-22.958,-64.228 -47.097,-145.115 -63.108,-210.13c-14.585,-59.206 -31.27,-118.989 -32.959,-179.945c-6.247,-225.327 -4.514,-1046.43 -4.514,-1046.43Z" style="fill:#cdc39d;"/><path d="M6314.98,2667.93c-0,0 7.174,824.901 2.712,1045.53c-1.05,51.813 -19.03,105.017 -29.494,152.639c-9.816,44.656 -21.007,92.155 -33.29,133.075c-11.453,38.147 -26.467,75.138 -40.431,112.436c-14.978,40.01 -32.512,88.56 -49.459,127.651c-15.775,36.379 -34.052,71.639 -52.215,106.889c-20.184,39.179 -44.665,86.163 -68.918,128.176c-24.585,42.591 -51.191,85.655 -78.576,127.345c-27.446,41.795 -59.241,86.687 -86.11,123.407c-24.13,32.976 -49.503,65.042 -75.094,96.898c-26.3,32.739 -54.175,68.174 -82.707,99.522c-28.093,30.859 -57.762,60.326 -88.498,88.56c-33.509,30.779 -76.389,66.695 -112.55,96.127c-34.078,27.735 -69.18,54.184 -104.404,80.449c-36.187,26.983 -77.85,56.774 -112.707,81.438c-31.882,22.555 -64.744,44.866 -96.425,66.529c-31.13,21.286 -62.907,43.186 -93.66,63.458c-30.019,19.79 -60.431,38.986 -90.843,58.164c-30.649,19.336 -61.691,39.074 -93.022,57.815c-34.936,20.902 -77.107,46.17 -116.609,67.579c-40.868,22.144 -128.614,65.322 -128.614,65.322l-0.315,-2138.3l1631.23,-840.711Z" style="fill:#b5e7de;"/><path d="M4684.8,1833.87l1630.18,834.062l-1626.57,841.297l-1641.92,-842.198l1638.31,-833.161Z" style="fill:url(#_Linear1);"/><g><path d="M5887.4,2337.61c-0.217,-0.118 -0.443,-0.235 -0.668,-0.353l-1013.83,-518.655c-117.88,-60.653 -258.334,-60.653 -376.214,-0.01c-10.727,5.495 -1335.52,683.128 -1335.52,683.128c-0.064,0.028 -0.136,0.064 -0.199,0.1c-128.019,65.839 -208.462,197.536 -208.462,341.415c0,-0.091 -0.903,870.128 -0.903,870.128c-0,2.575 0.099,5.151 0.289,7.717c1.003,12.985 5.774,51.969 16.753,110.895c0.064,0.307 0.118,0.606 0.181,0.913c9.515,48.526 23.766,111.248 46.492,184.398c4.989,17.801 10.944,36.606 17.838,55.429c5.486,16.492 11.088,33.2 17.567,50.803c26.342,72.409 55.52,143.869 89.371,215.338c0.054,0.109 0.108,0.226 0.162,0.335c30.869,64.547 64.548,129.103 101.037,192.72c0.099,0.181 0.208,0.361 0.316,0.542c96.473,165.783 213.513,325.041 348.391,473.971c0.036,0.045 0.081,0.09 0.127,0.135c102.753,113.037 304.754,271.825 588.733,460.524c0.416,0.281 0.84,0.552 1.265,0.823c25.058,16.112 50.125,33.127 76.087,50.134c0.054,0.036 0.117,0.081 0.172,0.117c63.3,41.279 142.188,89.009 211,130.288c0.037,0.027 0.073,0.045 0.109,0.072c132.528,79.277 299.359,79.277 431.888,0c0.208,-0.126 0.415,-0.253 0.614,-0.37c67.792,-41.225 145.622,-87.961 209.763,-130.107c324.96,-210.45 555.208,-387.654 666.203,-510.704c137.67,-151.722 256.581,-314.703 353.984,-483.287c0.009,-0.027 0.028,-0.063 0.046,-0.09c78.183,-135.628 142.197,-275.051 191.175,-415.387c-0,-0.018 0.009,-0.036 0.018,-0.055c73.746,-211.66 89.704,-357.328 92.578,-383.181c0.407,-3.678 0.605,-7.374 0.605,-11.07l-0.903,-870.218c-0,-143.824 -80.379,-274.383 -207.215,-340.24c0.136,0.072 -318.851,-166.198 -318.851,-166.198Zm-45.941,88.141l-1013.89,-518.692c-89.461,-46.086 -196.091,-46.086 -285.552,0l-1335.59,683.155c-94.882,48.797 -154.523,146.391 -154.523,253.021l-0.904,870.218c0.904,11.748 5.422,46.99 15.362,100.305c9.037,46.086 22.591,105.726 44.279,175.307c4.518,16.265 9.94,33.435 16.266,50.604c5.421,16.265 10.843,32.531 17.169,49.7c25.302,69.581 53.315,138.258 85.846,206.935c29.82,62.351 62.351,124.703 97.594,186.15c93.075,159.946 206.03,313.565 336.155,457.245c99.401,109.34 295.492,262.056 570.2,444.592c25.302,16.266 50.604,33.435 76.81,50.605c62.351,40.664 140.064,87.653 207.838,128.317c101.208,60.544 228.622,60.544 329.83,0c66.87,-40.664 143.679,-86.75 206.934,-128.317c315.372,-204.224 539.476,-375.013 647.01,-494.294c132.835,-146.39 247.598,-303.624 341.577,-466.28c75.003,-130.125 136.451,-263.864 183.44,-398.507c69.581,-199.706 84.943,-337.06 87.654,-361.458l-0.904,-870.219c-0,-106.63 -59.641,-203.32 -153.62,-252.116l-318.986,-166.271Z" style="fill:#090a0b;"/></g><g><path d="M5942.11,2277.14c-0.235,-0.123 -0.47,-0.246 -0.705,-0.359c-0,0 -1046.47,-536.873 -1055.93,-541.725c-122.888,-63.405 -269.297,-63.405 -392.185,0l-1390.97,713.491c-0.075,0.038 -0.141,0.076 -0.207,0.104c-133.288,68.738 -217.09,206.206 -217.09,356.415c0,-0.095 -0.941,914.402 -0.941,914.402c-0.009,2.68 0.094,5.351 0.301,8.022c1.035,13.553 6.005,54.26 17.44,115.788c0.056,0.311 0.122,0.632 0.179,0.944c9.91,50.683 24.753,116.175 48.423,192.558c5.186,18.593 11.388,38.225 18.569,57.885c5.723,17.215 11.548,34.666 18.306,53.052c27.426,75.619 57.807,150.247 93.063,224.893c0.056,0.114 0.103,0.227 0.16,0.35c32.16,67.407 67.237,134.824 105.232,201.26c0.104,0.189 0.217,0.377 0.32,0.566c100.479,173.154 222.38,339.483 362.849,495.025c0.047,0.047 0.085,0.103 0.132,0.151c107.03,118.062 317.419,283.91 613.2,480.999c0.433,0.293 0.875,0.576 1.308,0.859c26.108,16.828 52.217,34.6 79.247,52.363c0.066,0.047 0.122,0.085 0.188,0.123c65.929,43.123 148.093,92.966 219.763,136.089c0.038,0.029 0.076,0.047 0.113,0.076c138.145,82.867 312.054,82.867 450.199,-0c0.217,-0.132 0.424,-0.265 0.64,-0.397c70.607,-43.047 151.679,-91.871 218.474,-135.882c338.473,-219.815 578.273,-404.899 693.887,-533.419c143.377,-158.467 267.217,-328.685 368.665,-504.755c0.019,-0.038 0.028,-0.066 0.047,-0.094c81.421,-141.649 148.084,-287.252 199.086,-433.818c0.009,-0.009 0.019,-0.028 0.019,-0.047c76.799,-221.034 93.42,-373.13 96.404,-400.133c0.423,-3.822 0.64,-7.664 0.63,-11.515l-0.941,-914.496c0,-150.152 -83.736,-286.43 -215.791,-355.188c0.15,0.076 -332.083,-173.587 -332.083,-173.587Zm-48.027,91.881l-1055.99,-541.753c-93.176,-48.135 -204.234,-48.135 -297.409,-0l-1391.05,713.528c-98.823,50.966 -160.94,152.899 -160.94,264.27l-0.941,914.496c0.941,12.27 5.647,49.079 16,104.764c9.411,48.135 23.529,110.427 46.117,183.101c4.706,16.989 10.353,34.922 16.941,52.854c5.647,16.989 11.294,33.978 17.882,51.91c26.353,72.675 55.529,144.405 89.411,216.135c31.059,65.124 64.941,130.248 101.647,194.427c96.94,167.057 214.586,327.506 350.115,477.574c103.528,114.202 307.762,273.708 593.878,464.359c26.353,16.989 52.705,34.922 79.999,52.854c64.941,42.472 145.882,91.551 216.469,134.023c105.411,63.236 238.116,63.236 343.527,-0c69.647,-42.472 149.646,-90.607 215.528,-134.023c328.468,-213.303 561.878,-391.685 673.877,-516.27c138.352,-152.899 257.881,-317.123 355.763,-487.011c78.117,-135.91 142.116,-275.596 191.057,-416.225c72.47,-208.584 88.47,-352.045 91.294,-377.528l-0.942,-914.496c0,-111.371 -62.117,-212.36 -159.999,-263.326l-332.232,-173.663Z" style="fill:#fff;"/></g><g><rect x="4640.13" y="3927.33" width="151.02" height="1692.52"/></g><g><g><path d="M5142.84,3341.49l-61.032,-131.11l404.001,-222.432l68.406,142.966l-411.375,210.576Z" style="fill-rule:nonzero;"/></g><path d="M3880.86,3974.86l-55.176,-127.658c-0,0 423.457,-232.823 423.935,-231.396c-0.478,-1.427 74.027,129.836 74.027,129.836l-442.786,229.218Z" style="fill-rule:nonzero;"/><circle cx="3630.1" cy="4006.22" r="252.117"/><g><circle cx="4693.69" cy="3470.36" r="467.184" style="fill:url(#_Radial2);"/></g><path d="M4683.75,3507.41l-0.18,430.026c-0,0 3.361,0.073 -0,0c-253.184,-5.394 -457.064,-212.609 -457.064,-467.075c0,-63.228 12.588,-123.547 35.396,-178.569c11.386,-27.48 0.027,-0.064 0.027,-0.064l421.821,215.682Z"/><g><circle cx="5735.59" cy="2953.48" r="252.117" style="fill:url(#_Radial3);"/></g></g></g><text x="1687.5px" y="7956.25px" style="font-family:'co2trust-Bold', 'co2trust';font-weight:700;font-size:1387.5px;">C<tspan x="2511.91px 3519.39px 3794.57px 4069.76px 4344.95px 5015.19px 5772.15px 6529.1px 7151.17px " y="7956.25px 7956.25px 7956.25px 7956.25px 7956.25px 7956.25px 7956.25px 7956.25px 7956.25px ">O   TRUST</tspan></text><text x="3610.69px" y="8562.5px" style="font-family:'co2trust-Bold', 'co2trust';font-weight:700;font-size:1387.5px;"><tspan x="3610.69px " y="8562.5px ">2</tspan></text><defs><linearGradient id="_Linear1" x1="0" y1="0" x2="1" y2="0" gradientUnits="userSpaceOnUse" gradientTransform="matrix(-3.9923,-1691.4,1691.4,-3.9923,4688.79,3525.26)"><stop offset="0" style="stop-color:#eefaf8;stop-opacity:1"/><stop offset="0.85" style="stop-color:#cdf4f9;stop-opacity:1"/><stop offset="1" style="stop-color:#b8eff4;stop-opacity:1"/></linearGradient><radialGradient id="_Radial2" cx="0" cy="0" r="1" gradientUnits="userSpaceOnUse" gradientTransform="matrix(-613.337,57.0076,57.0076,613.337,4817.5,3299.52)"><stop offset="0" style="stop-color:#666d6f;stop-opacity:1"/><stop offset="0" style="stop-color:#666d6f;stop-opacity:1"/><stop offset="0.15" style="stop-color:#4e5455;stop-opacity:1"/><stop offset="0.4" style="stop-color:#2d3031;stop-opacity:1"/><stop offset="0.63" style="stop-color:#141516;stop-opacity:1"/><stop offset="0.84" style="stop-color:#050606;stop-opacity:1"/><stop offset="1" style="stop-color:#000;stop-opacity:1"/></radialGradient><radialGradient id="_Radial3" cx="0" cy="0" r="1" gradientUnits="userSpaceOnUse" gradientTransform="matrix(-316.594,29.4264,29.4264,316.594,5826.08,2837.02)"><stop offset="0" style="stop-color:#555b5c;stop-opacity:1"/><stop offset="0" style="stop-color:#666d6f;stop-opacity:1"/><stop offset="0.15" style="stop-color:#4e5455;stop-opacity:1"/><stop offset="0.4" style="stop-color:#2d3031;stop-opacity:1"/><stop offset="0.63" style="stop-color:#141516;stop-opacity:1"/><stop offset="0.84" style="stop-color:#050606;stop-opacity:1"/><stop offset="1" style="stop-color:#000;stop-opacity:1"/></radialGradient></defs></svg>