<?xml version="1.0" encoding="UTF-8" standalone="no"?><!DOCTYPE svg PUBLIC "-//W3C//DTD SVG 1.1//EN" "http://www.w3.org/Graphics/SVG/1.1/DTD/svg11.dtd"><svg width="100%" height="100%" viewBox="0 0 6250 6250" version="1.1" xmlns="http://www.w3.org/2000/svg" xmlns:xlink="http://www.w3.org/1999/xlink" xml:space="preserve" xmlns:serif="http://www.serif.com/" style="fill-rule:evenodd;clip-rule:evenodd;stroke-linejoin:round;stroke-miterlimit:2;"><path d="M1483.99,2046.97l1637.26,840.388l-2.563,2157.01c-0,-0 -97.361,-63.686 -130.442,-84.352c-22.267,-13.911 -45.452,-26.273 -68.043,-39.651c-28.321,-16.772 -68.313,-40.01 -101.875,-60.982c-37.412,-23.369 -82.033,-52.346 -122.577,-79.25c-48.47,-32.171 -125.131,-84.089 -168.265,-113.792c-30.517,-21.016 -60.518,-42.766 -90.563,-64.447c-31.103,-22.45 -64.682,-45.96 -96.04,-70.247c-33.238,-25.741 -71.332,-56.931 -103.398,-84.212c-30.298,-25.766 -61.087,-52.302 -89.014,-79.451c-27.403,-26.633 -53.283,-54.814 -78.577,-83.45c-27.455,-31.095 -60.886,-71.647 -86.162,-103.109c-22.52,-28.024 -44.288,-56.652 -65.514,-85.655c-21.996,-30.054 -45.33,-62.399 -66.433,-94.658c-28.645,-43.781 -73.344,-110.975 -105.436,-168.046c-31.856,-56.633 -60.178,-116.111 -87.134,-174.38c-26.667,-57.614 -53.274,-115.437 -74.639,-175.212c-22.958,-64.228 -47.097,-145.114 -63.108,-210.13c-14.585,-59.205 -31.27,-118.989 -32.959,-179.944c-6.247,-225.328 -4.514,-1046.43 -4.514,-1046.43Z" style="fill:#cdc39d;"/><path d="M4752.48,2047.87c-0,0 7.174,824.902 2.712,1045.53c-1.05,51.812 -19.03,105.016 -29.494,152.638c-9.816,44.656 -21.007,92.156 -33.29,133.076c-11.453,38.146 -26.467,75.138 -40.431,112.436c-14.978,40.01 -32.512,88.559 -49.459,127.651c-15.775,36.379 -34.052,71.638 -52.215,106.889c-20.184,39.179 -44.665,86.162 -68.918,128.176c-24.585,42.591 -51.191,85.654 -78.576,127.344c-27.446,41.795 -59.241,86.687 -86.11,123.408c-24.13,32.976 -49.503,65.041 -75.094,96.897c-26.3,32.74 -54.175,68.174 -82.707,99.522c-28.093,30.859 -57.762,60.326 -88.498,88.56c-33.509,30.78 -76.389,66.695 -112.55,96.127c-34.078,27.735 -69.18,54.184 -104.404,80.449c-36.187,26.983 -77.85,56.774 -112.707,81.438c-31.882,22.555 -64.744,44.866 -96.425,66.529c-31.13,21.287 -62.907,43.186 -93.66,63.458c-30.019,19.791 -60.431,38.986 -90.843,58.165c-30.649,19.335 -61.691,39.074 -93.022,57.814c-34.936,20.902 -77.107,46.17 -116.609,67.579c-40.868,22.145 -128.614,65.322 -128.614,65.322l-0.315,-2138.3l1631.23,-840.712Z" style="fill:#b5e7de;"/><path d="M3122.3,1213.81l1630.18,834.061l-1626.57,841.298l-1641.92,-842.199l1638.31,-833.16Z" style="fill:url(#_Linear1);"/><g><path d="M4324.9,1717.55c-0.217,-0.118 -0.443,-0.235 -0.668,-0.352l-1013.83,-518.656c-117.88,-60.653 -258.334,-60.653 -376.214,-0.009c-10.727,5.494 -1335.52,683.128 -1335.52,683.128c-0.064,0.027 -0.136,0.063 -0.199,0.099c-128.019,65.84 -208.462,197.537 -208.462,341.415c0,-0.09 -0.903,870.128 -0.903,870.128c-0,2.576 0.099,5.151 0.289,7.717c1.003,12.986 5.774,51.969 16.753,110.896c0.064,0.307 0.118,0.605 0.181,0.912c9.515,48.526 23.766,111.248 46.492,184.398c4.989,17.802 10.944,36.606 17.838,55.429c5.486,16.492 11.088,33.2 17.567,50.803c26.342,72.409 55.52,143.869 89.371,215.339c0.054,0.108 0.108,0.226 0.162,0.334c30.869,64.547 64.548,129.104 101.037,192.72c0.099,0.181 0.208,0.362 0.316,0.542c96.473,165.783 213.513,325.041 348.391,473.971c0.036,0.045 0.081,0.09 0.127,0.135c102.753,113.037 304.754,271.826 588.733,460.525c0.416,0.28 0.84,0.551 1.265,0.822c25.058,16.112 50.125,33.128 76.087,50.134c0.054,0.036 0.117,0.082 0.172,0.118c63.3,41.278 142.188,89.009 211,130.287c0.037,0.027 0.073,0.045 0.109,0.072c132.528,79.277 299.359,79.277 431.888,0c0.208,-0.126 0.415,-0.253 0.614,-0.37c67.792,-41.224 145.622,-87.961 209.763,-130.107c324.96,-210.45 555.208,-387.654 666.203,-510.703c137.67,-151.722 256.581,-314.704 353.984,-483.287c0.009,-0.028 0.028,-0.064 0.046,-0.091c78.183,-135.628 142.197,-275.051 191.175,-415.387c-0,-0.018 0.009,-0.036 0.018,-0.054c73.746,-211.661 89.704,-357.328 92.578,-383.182c0.407,-3.677 0.605,-7.373 0.605,-11.069l-0.903,-870.219c-0,-143.824 -80.379,-274.382 -207.215,-340.24c0.136,0.072 -318.851,-166.198 -318.851,-166.198Zm-45.941,88.141l-1013.89,-518.691c-89.461,-46.086 -196.091,-46.086 -285.552,-0l-1335.59,683.155c-94.882,48.796 -154.523,146.39 -154.523,253.02l-0.904,870.219c0.904,11.747 5.422,46.989 15.362,100.304c9.037,46.086 22.591,105.726 44.279,175.307c4.518,16.266 9.94,33.435 16.266,50.604c5.421,16.266 10.843,32.531 17.169,49.701c25.302,69.58 53.315,138.257 85.846,206.934c29.82,62.352 62.351,124.703 97.594,186.151c93.075,159.945 206.03,313.564 336.155,457.244c99.401,109.341 295.492,262.057 570.2,444.593c25.302,16.265 50.604,33.435 76.81,50.604c62.351,40.664 140.064,87.653 207.838,128.317c101.208,60.545 228.622,60.545 329.83,0c66.87,-40.664 143.679,-86.749 206.934,-128.317c315.372,-204.224 539.476,-375.012 647.01,-494.294c132.835,-146.39 247.598,-303.624 341.577,-466.28c75.003,-130.125 136.451,-263.864 183.44,-398.507c69.581,-199.705 84.943,-337.059 87.654,-361.458l-0.904,-870.218c-0,-106.63 -59.641,-203.32 -153.62,-252.117l-318.986,-166.271Z" style="fill:#090a0b;"/></g><g><path d="M4379.61,1657.08c-0.235,-0.123 -0.47,-0.245 -0.705,-0.359c-0,0 -1046.47,-536.873 -1055.93,-541.724c-122.888,-63.406 -269.297,-63.406 -392.185,-0l-1390.97,713.49c-0.075,0.038 -0.141,0.076 -0.207,0.104c-133.288,68.739 -217.09,206.206 -217.09,356.415c0,-0.094 -0.941,914.402 -0.941,914.402c-0.009,2.68 0.094,5.351 0.301,8.022c1.035,13.554 6.005,54.261 17.44,115.788c0.056,0.312 0.122,0.633 0.179,0.944c9.91,50.683 24.753,116.175 48.423,192.558c5.186,18.594 11.388,38.225 18.569,57.885c5.723,17.215 11.548,34.666 18.306,53.052c27.426,75.619 57.807,150.247 93.063,224.894c0.056,0.113 0.103,0.226 0.16,0.349c32.16,67.408 67.237,134.825 105.232,201.26c0.104,0.189 0.217,0.378 0.32,0.567c100.479,173.153 222.38,339.482 362.849,495.024c0.047,0.047 0.085,0.104 0.132,0.151c107.03,118.063 317.419,283.911 613.2,480.999c0.433,0.293 0.875,0.576 1.308,0.859c26.108,16.829 52.217,34.601 79.247,52.363c0.066,0.048 0.122,0.085 0.188,0.123c65.929,43.123 148.093,92.966 219.763,136.09c0.038,0.028 0.076,0.047 0.113,0.075c138.145,82.868 312.054,82.868 450.199,0c0.217,-0.132 0.424,-0.264 0.64,-0.396c70.607,-43.048 151.679,-91.872 218.474,-135.882c338.473,-219.816 578.273,-404.899 693.887,-533.419c143.377,-158.468 267.217,-328.686 368.665,-504.756c0.019,-0.037 0.028,-0.066 0.047,-0.094c81.421,-141.649 148.084,-287.252 199.086,-433.818c0.009,-0.009 0.019,-0.028 0.019,-0.047c76.799,-221.033 93.42,-373.13 96.404,-400.133c0.423,-3.822 0.64,-7.663 0.63,-11.514l-0.941,-914.496c0,-150.153 -83.736,-286.431 -215.791,-355.188c0.15,0.075 -332.083,-173.588 -332.083,-173.588Zm-48.027,91.881l-1055.99,-541.753c-93.176,-48.135 -204.234,-48.135 -297.409,0l-1391.05,713.528c-98.823,50.967 -160.94,152.899 -160.94,264.27l-0.941,914.496c0.941,12.27 5.647,49.079 16,104.764c9.411,48.135 23.529,110.427 46.117,183.102c4.706,16.988 10.353,34.921 16.941,52.854c5.647,16.988 11.294,33.977 17.882,51.91c26.353,72.674 55.529,144.404 89.411,216.135c31.059,65.123 64.941,130.247 101.647,194.427c96.94,167.056 214.586,327.505 350.115,477.573c103.528,114.202 307.762,273.708 593.878,464.36c26.353,16.988 52.705,34.921 79.999,52.854c64.941,42.472 145.882,91.55 216.469,134.022c105.411,63.236 238.116,63.236 343.527,0c69.647,-42.472 149.646,-90.607 215.528,-134.022c328.468,-213.304 561.878,-391.686 673.877,-516.27c138.352,-152.899 257.881,-317.124 355.763,-487.012c78.117,-135.91 142.116,-275.595 191.057,-416.225c72.47,-208.584 88.47,-352.045 91.294,-377.528l-0.942,-914.496c0,-111.371 -62.117,-212.36 -159.999,-263.326l-332.232,-173.663Z" style="fill:#fff;"/></g><g><rect x="3077.63" y="3307.27" width="151.02" height="1692.52"/></g><g><g><path d="M3580.34,2721.43l-61.032,-131.109l404.001,-222.432l68.406,142.965l-411.375,210.576Z" style="fill-rule:nonzero;"/></g><path d="M2318.36,3354.8l-55.176,-127.658c-0,-0 423.457,-232.824 423.935,-231.396c-0.478,-1.428 74.027,129.835 74.027,129.835l-442.786,229.219Z" style="fill-rule:nonzero;"/><circle cx="2067.6" cy="3386.16" r="252.117"/><g><circle cx="3131.19" cy="2850.3" r="467.184" style="fill:url(#_Radial2);"/></g><path d="M3121.25,2887.35l-0.18,430.027c-0,-0 3.361,0.072 -0,-0c-253.184,-5.395 -457.064,-212.61 -457.064,-467.076c0,-63.228 12.588,-123.546 35.396,-178.569c11.386,-27.48 0.027,-0.063 0.027,-0.063l421.821,215.681Z"/><g><circle cx="4173.09" cy="2333.42" r="252.117" style="fill:url(#_Radial3);"/></g></g><defs><linearGradient id="_Linear1" x1="0" y1="0" x2="1" y2="0" gradientUnits="userSpaceOnUse" gradientTransform="matrix(-3.9923,-1691.4,1691.4,-3.9923,3126.29,2905.2)"><stop offset="0" style="stop-color:#eefaf8;stop-opacity:1"/><stop offset="0.85" style="stop-color:#cdf4f9;stop-opacity:1"/><stop offset="1" style="stop-color:#b8eff4;stop-opacity:1"/></linearGradient><radialGradient id="_Radial2" cx="0" cy="0" r="1" gradientUnits="userSpaceOnUse" gradientTransform="matrix(-613.337,57.0076,57.0076,613.337,3255,2679.46)"><stop offset="0" style="stop-color:#666d6f;stop-opacity:1"/><stop offset="0" style="stop-color:#666d6f;stop-opacity:1"/><stop offset="0.15" style="stop-color:#4e5455;stop-opacity:1"/><stop offset="0.4" style="stop-color:#2d3031;stop-opacity:1"/><stop offset="0.63" style="stop-color:#141516;stop-opacity:1"/><stop offset="0.84" style="stop-color:#050606;stop-opacity:1"/><stop offset="1" style="stop-color:#000;stop-opacity:1"/></radialGradient><radialGradient id="_Radial3" cx="0" cy="0" r="1" gradientUnits="userSpaceOnUse" gradientTransform="matrix(-316.594,29.4264,29.4264,316.594,4263.58,2216.96)"><stop offset="0" style="stop-color:#555b5c;stop-opacity:1"/><stop offset="0" style="stop-color:#666d6f;stop-opacity:1"/><stop offset="0.15" style="stop-color:#4e5455;stop-opacity:1"/><stop offset="0.4" style="stop-color:#2d3031;stop-opacity:1"/><stop offset="0.63" style="stop-color:#141516;stop-opacity:1"/><stop offset="0.84" style="stop-color:#050606;stop-opacity:1"/><stop offset="1" style="stop-color:#000;stop-opacity:1"/></radialGradient></defs></svg>